<?xml version="1.0" encoding="utf-8"?>
<!-- Generator: Adobe Illustrator 16.0.0, SVG Export Plug-In . SVG Version: 6.00 Build 0)  -->
<!DOCTYPE svg PUBLIC "-//W3C//DTD SVG 1.1//EN" "http://www.w3.org/Graphics/SVG/1.1/DTD/svg11.dtd">
<svg version="1.1" xmlns="http://www.w3.org/2000/svg" xmlns:xlink="http://www.w3.org/1999/xlink" x="0px" y="0px" width="16px"
	 height="16px" viewBox="0 0 16 16" style="enable-background:new 0 0 16 16;" xml:space="preserve">
<style type="text/css">
<![CDATA[
	.st0{display:inline;fill:#384047;}
	.st1{display:inline;}
	.st2{fill:#384047;}
	.st3{display:none;}
]]>
</style>
<g id="Bold" class="st3">
	<path class="st1" d="M-56.5,3c-1.104,0-2,0.896-2,2v6c0,1.104,0.896,2,2,2h1c1.104,0,2-0.896,2-2V5c0-1.104-0.896-2-2-2H-56.5z
		 M-55.5,11h-1V5h1V11z"/>
	<g class="st1">
		<g>
			<path d="M-55.5,35v8h-1v-8h-2v8c0,1.104,0.896,2,2,2h1c0.552,0,2,0,2,0s0-1.447,0-2v-8H-55.5z"/>
		</g>
	</g>
	<g class="st1">
		<g>
			<g>
				<path d="M7,35v8H6v-8H4v8c0,1.104,0.896,2,2,2h1c1.104,0,2-0.896,2-2v-8H7z"/>
			</g>
			<g>
				<path d="M10,35v8H9v-8H7v8c0,1.104,0.896,2,2,2h1c1.104,0,2-0.896,2-2v-8H10z"/>
			</g>
		</g>
	</g>
	<path class="st1" d="M-56-61c-1.104,0-2,0.896-2,2v6c0,1.104,0.896,2,2,2h2v-2h-2v-6h2v-2H-56z"/>
	<path class="st1" d="M-23.5-51c1.104,0,2-0.896,2-2v-6c0-1.104-0.896-2-2-2h-3v10H-23.5z M-23.5-53h-1v-6h1V-53z"/>
	<polygon class="st1" points="-90,35 -90,37 -89,37 -89,45 -87,45 -87,37 -86,37 -86,35 	"/>
	<polygon class="st1" points="10,-59 10,-61 6,-61 6,-51 10,-51 10,-53 8,-53 8,-55 10,-55 10,-57 8,-57 8,-59 	"/>
	<polygon class="st1" points="38,-51 38,-61 42,-61 42,-59 40,-59 40,-57 42,-57 42,-55 40,-55 40,-51 	"/>
	<path class="st1" d="M40.5,3h-1h-2v2v2v2v4h2V9h1v4h2V9.5c0-0.601-0.271-1.134-0.689-1.5C42.229,7.634,42.5,7.101,42.5,6.5V5
		C42.5,3.896,41.604,3,40.5,3z M40.5,7h-1V5h1V7z"/>
	<path class="st1" d="M-23.5,3h-1h-2v2v2v2v4h2V9h1c1.104,0,2-0.896,2-2V5C-21.5,3.896-22.396,3-23.5,3z M-23.5,7h-1V5h1V7z"/>
	<path class="st1" d="M-119.5-61h-1c-1.104,0-2,0.896-2,2v2v2v4h2v-4h1v4h2v-4v-2v-2C-117.5-60.104-118.396-61-119.5-61z M-119.5-57
		h-1v-2h1V-57z"/>
	<rect x="-57" y="-29" class="st1" width="2" height="10"/>
	<g class="st1">
		<g>
			<rect x="-90.5" y="-61" width="2" height="10"/>
			<path d="M-87.5-61h-3v2h3v2h-3v2h3c1.104,0,2-0.896,2-2l0,0v-2C-85.5-60.104-86.396-61-87.5-61z"/>
			<path d="M-87.5-57h-3v2h3v2h-3v2h3c1.104,0,2-0.896,2-2v-2C-85.5-56.104-86.396-57-87.5-57z"/>
		</g>
	</g>
	<g class="st1">
		<g>
			<path d="M-120.5-29c-1.104,0-2,0.896-2,2v6c0,1.104,0.896,2,2,2h3v-2h-3v-6h2v-2H-120.5z"/>
			<rect x="-119.5" y="-25" width="2" height="6"/>
		</g>
	</g>
	<g class="st1">
		<g>
			<rect x="-90.5" y="-29" width="2" height="10"/>
			<rect x="-90.5" y="-25" width="5" height="2"/>
			<rect x="-87.5" y="-29" width="2" height="10"/>
		</g>
	</g>
	<g class="st1">
		<g>
			<rect x="-123" y="3" width="2" height="10"/>
			<polygon points="-123,3 -121,3 -120,6 -119,3 -117,3 -120,10 			"/>
			<rect x="-119" y="3" width="2" height="10"/>
		</g>
	</g>
	<g class="st1">
		<g>
			<rect x="-90.5" y="3" width="2" height="10"/>
			<polygon points="-85.5,9 -87.5,9 -90.5,3 -88.5,3 			"/>
			<rect x="-87.5" y="3" width="2" height="10"/>
		</g>
	</g>
	<g class="st1">
		<g>
			<path d="M-24.5-29c1.104,0,2,0.896,2,2v6c0,1.104-0.896,2-2,2h-1v-2h1v-6h-1v-2H-24.5z"/>
			<rect x="-25.5" y="-29" width="3" height="2"/>
		</g>
	</g>
	<path class="st1" d="M5.5-29v4v2v4h2v-4h1v4h2v-3.5c0-0.601-0.271-1.134-0.689-1.5c0.419-0.366,0.689-0.899,0.689-1.5V-29h-2v4h-1
		v-4H5.5z"/>
	<g class="st1">
		<g>
			<rect x="38.5" y="-29" width="2" height="10"/>
			<rect x="38.5" y="-21" width="3" height="2"/>
		</g>
	</g>
	<g class="st1">
		<g>
			<path d="M7.5,3c-1.104,0-2,0.896-2,2v6c0,1.104,0.896,2,2,2h1c1.104,0,2-0.896,2-2V5c0-1.104-0.896-2-2-2H7.5z M8.5,11h-1V5h1V11
				z"/>
			<path d="M8.5,12c0,1.104,0.896,2,2,2v-4h-2V12z"/>
		</g>
	</g>
	<g class="st1">
		<g>
			<path d="M-119.5,67v7v1h-1v-8h-2v8c0,1.104,0.896,2,2,2h1l0.263-0.026c0.343,0.609,0.988,1.026,1.737,1.026v-3v-1v-7H-119.5z"/>
		</g>
	</g>
	<path class="st1" d="M-118,37v-2h-2c-1.104,0-2,0.896-2,2v2c0,1.104,0.896,2,2,2v2h-2v2h2c1.104,0,2-0.896,2-2v-2
		c0-1.104-0.896-2-2-2v-2H-118z"/>
	<g class="st1">
		<g>
			<polygon points="42.5,45 40.5,45 37.5,35 39.5,35 			"/>
			<polygon points="37.5,45 39.5,45 42.5,35 40.5,35 			"/>
		</g>
	</g>
	<g class="st1">
		<g>
			<polygon points="-23,45 -25,45 -27,35 -25,35 			"/>
			<polygon points="-23,45 -25,45 -23,35 -21,35 			"/>
		</g>
	</g>
	<g class="st1">
		<g>
			<polygon points="-87,69 -90,69 -90,67 -86,67 			"/>
			<polygon points="-86,77 -90,77 -89,75 -86,75 			"/>
			<polygon points="-90,77 -88,77 -86,67 -88,67 			"/>
		</g>
	</g>
	<g class="st1">
		<g>
			<path class="st2" d="M-118-157v9h-1c-0.552,0-1-0.448-1-1v-8h-1v8c0,1.104,0.896,2,2,2l0,0c0.552,0,2,0,2,0s0-1.447,0-2v-8H-118z
				"/>
		</g>
	</g>
	<rect x="-115" y="-157" class="st0" width="1" height="10"/>
	<g class="st1">
		<g>
			<path class="st2" d="M-125-157c1.104,0,2,0,2,0v8c0,1.104-0.896,2-2,2h-1v-1h1c0.552,0,1-0.448,1-1v-7h-1V-157L-125-157z"/>
			<rect x="-126" y="-157" class="st2" width="3" height="1"/>
		</g>
	</g>
	<polygon class="st0" points="-102,-157 -102,-155 -101,-155 -101,-147 -99,-147 -99,-155 -98,-155 -98,-157 	"/>
	<rect x="-105" y="-157" class="st0" width="2" height="10"/>
	<path class="st0" d="M-112-157v4v2v4h2v-4h1v4h2v-3c0-0.601-0.271-1.134-0.689-1.5c0.419-0.366,0.689-0.899,0.689-1.5v-4h-2v4h-1
		v-4H-112z"/>
	<g class="st1">
		<g>
			<path d="M-125-93c1.104,0,2,0.896,2,2v6c0,1.104-0.896,2-2,2h-1v-2h1v-6h-1v-2H-125z"/>
			<rect x="-126" y="-93" width="3" height="2"/>
		</g>
	</g>
	<g class="st1">
		<g>
			<path d="M-119-93v8h-1v-8h-2v8c0,1.104,0.896,2,2,2h1c0.552,0,2,0,2,0s0-1.447,0-2v-8H-119z"/>
		</g>
	</g>
	<rect x="-116" y="-93" class="st1" width="2" height="10"/>
</g>
<g id="Medium">
	<g>
		<g>
			<g>
				<path d="M-118-93v9h-1c-0.552,0-1-0.448-1-1v-8h-1v8c0,1.104,0.896,2,2,2l0,0c0.552,0,2,0,2,0s0-1.447,0-2v-8H-118z"/>
			</g>
		</g>
		<rect x="-115" y="-93" width="1" height="10"/>
		<g>
			<g>
				<path d="M-125-93c1.104,0,2,0,2,0v8c0,1.104-0.896,2-2,2h-1v-1h1c0.552,0,1-0.448,1-1v-7h-1V-93L-125-93z"/>
				<rect x="-126" y="-93" width="3" height="1"/>
			</g>
		</g>
	</g>
	<path d="M-56-61c-1.104,0-2,0.896-2,2v6c0,1.104,0.896,2,2,2h2v-1h-2c-0.552,0-1-0.448-1-1v-6c0-0.552,0.448-1,1-1h2v-1H-56z"/>
	<path d="M-23.5-51c1.104,0,2-0.896,2-2v-6c0-1.104-0.896-2-2-2h-3v10H-23.5z M-22.5-53c0,0.552-0.447,1-1,1h-2v-8h2
		c0.553,0,1,0.448,1,1V-53z"/>
	<polygon points="10,-60 10,-61 6,-61 6,-51 10,-51 10,-52 7,-52 7,-55.5 10,-55.5 10,-56.5 7,-56.5 7,-60 	"/>
	<polygon points="38,-51 38,-61 42,-61 42,-60 39,-60 39,-56.5 42,-56.5 42,-55.5 39,-55.5 39,-51 	"/>
	<path d="M-119.5-61h-1c-1.104,0-2,0.896-2,2v2v2v4h1v-4h3v4h1v-4v-2v-2C-117.5-60.104-118.396-61-119.5-61z M-118.5-56h-3v-3
		c0-0.552,0.448-1,1-1h1c0.552,0,1,0.448,1,1V-56z"/>
	<g>
		<rect x="-90.5" y="-61" width="1" height="10"/>
		<path d="M-85.5-59c0-1.104-0.896-2-2-2h-3v1h3c0.552,0,1,0.448,1,1v1.5c0,0.552-0.448,1-1,1h-3v1h3c1.104,0,2-0.896,2-2V-59z"/>
		<path d="M-85.5-54.5c0-1.104-0.896-2-2-2h-3v1h3c0.552,0,1,0.448,1,1v1.5c0,0.552-0.448,1-1,1h-3v1h3c1.104,0,2-0.896,2-2V-54.5z"
			/>
	</g>
	<path d="M-56.5,3c-1.104,0-2,0.896-2,2v6c0,1.104,0.896,2,2,2h1c1.104,0,2-0.896,2-2V5c0-1.104-0.896-2-2-2H-56.5z M-54.5,11
		c0,0.552-0.448,1-1,1h-1c-0.552,0-1-0.448-1-1V5c0-0.552,0.448-1,1-1h1c0.552,0,1,0.448,1,1V11z"/>
	<g>
		<g>
			<path d="M-54.5,35v9h-2c-0.552,0-1-0.447-1-1v-8h-1v8c0,1.104,0.896,2,2,2h1c0.552,0,2,0,2,0s0-1.447,0-2v-8H-54.5z"/>
		</g>
	</g>
	<g>
		<g>
			<g>
				<path d="M7.5,35v8c0,0.553-0.447,1-1,1H6c-0.553,0-1-0.447-1-1v-8H4v8c0,1.104,0.896,2,2,2h0.5c1.104,0,2-0.896,2-2v-8H7.5z"/>
			</g>
			<g>
				<path d="M11,35v8c0,0.553-0.447,1-1,1H9.5c-0.553,0-1-0.447-1-1v-8h-1v8c0,1.104,0.896,2,2,2H10c1.104,0,2-0.896,2-2v-8H11z"/>
			</g>
		</g>
	</g>
	<polygon points="-90,35 -90,36 -88.5,36 -88.5,45 -87.5,45 -87.5,36 -86,36 -86,35 	"/>
	<path d="M40.5,3h-1h-2v2v2v2v4h1V8.5h2c0.553,0,1,0.448,1,1V13h1V9.5c0-0.601-0.271-1.134-0.689-1.5
		C42.229,7.634,42.5,7.101,42.5,6.5V5C42.5,3.896,41.604,3,40.5,3z M41.5,6.5c0,0.552-0.447,1-1,1h-2V4h2c0.553,0,1,0.448,1,1V6.5z"
		/>
	<path d="M-23.5,3h-1h-2v2v2v2v4h1V9h2c1.104,0,2-0.896,2-2V5C-21.5,3.896-22.396,3-23.5,3z M-22.5,7c0,0.552-0.447,1-1,1h-2V4h2
		c0.553,0,1,0.448,1,1V7z"/>
	<rect x="-56.5" y="-29" width="1" height="10"/>
	<g>
		<g>
			<path d="M-120.5-29c-1.104,0-2,0.896-2,2v6c0,1.104,0.896,2,2,2h3v-1h-3c-0.552,0-1-0.448-1-1v-6c0-0.552,0.448-1,1-1h2v-1
				H-120.5z"/>
			<rect x="-118.5" y="-25" width="1" height="6"/>
		</g>
	</g>
	<g>
		<g>
			<rect x="-90.5" y="-29" width="1" height="10"/>
			<rect x="-90.5" y="-24.5" width="5" height="1"/>
			<rect x="-86.5" y="-29" width="1" height="10"/>
		</g>
	</g>
	<g>
		<g>
			<rect x="-123" y="3" width="1" height="10"/>
			<polygon points="-123,3 -122,3 -120,7 -118,3 -117,3 -120,9 			"/>
			<rect x="-118" y="3" width="1" height="10"/>
		</g>
	</g>
	<g>
		<g>
			<rect x="-90.5" y="3" width="1" height="10"/>
			<polygon points="-85.5,8 -85.5,9.5 -90.5,3 -89.5,3 			"/>
			<rect x="-86.5" y="3" width="1" height="10"/>
		</g>
	</g>
	<g>
		<g>
			<path d="M-24.5-29c1.104,0,2,0,2,0v8c0,1.104-0.896,2-2,2h-1v-1h1c0.553,0,1-0.448,1-1v-7h-2v-1H-24.5z"/>
			<rect x="-25.5" y="-29" width="3" height="1"/>
		</g>
	</g>
	<path d="M5.5-29v4v2v4h1v-4.5h2c0.553,0,1,0.448,1,1v3.5h1v-3.5c0-0.601-0.271-1.134-0.689-1.5c0.419-0.366,0.689-0.899,0.689-1.5
		V-29h-1v3.5c0,0.552-0.447,1-1,1h-2V-29H5.5z"/>
	<g>
		<g>
			<rect x="38.5" y="-29" width="1" height="10"/>
			<rect x="38.5" y="-20" width="3" height="1"/>
		</g>
	</g>
	<g>
		<g>
			<path d="M7.5,3c-1.104,0-2,0.896-2,2v6c0,1.104,0.896,2,2,2h1c1.104,0,2,0,2,0V5c0-1.104-0.896-2-2-2H7.5z M9.5,12h-2
				c-0.553,0-1-0.448-1-1V5c0-0.552,0.447-1,1-1h1c0.553,0,1,0.448,1,1V12z"/>
			<path d="M9.5,12c0,1.104-0.104,2,1,2v-2H9.5z"/>
		</g>
	</g>
	<g>
		<g>
			<path d="M-118.5,67v7v2h-2c-0.552,0-1-0.447-1-1v-8h-1v8c0,1.104,0.896,2,2,2h3v-2v-1v-7H-118.5z"/>
		</g>
	</g>
	<path d="M-118,36v-1h-2c-1.104,0-2,0.896-2,2v1.5c0,1.104,0.896,2,2,2c0.552,0,1,0.447,1,1V43c0,0.553-0.448,1-1,1h-2v1h2
		c1.104,0,2-0.896,2-2v-1.5c0-1.104-0.896-2-2-2c-0.552,0-1-0.447-1-1V37c0-0.553,0.448-1,1-1H-118z"/>
	<g>
		<g>
			<polygon points="42.5,45 41.5,45 37.5,35 38.5,35 			"/>
			<polygon points="37.5,45 38.5,45 42.5,35 41.5,35 			"/>
		</g>
	</g>
	<g>
		<g>
			<polygon points="-23.5,45 -24.5,45 -27,35 -26,35 			"/>
			<polygon points="-23.5,45 -24.5,45 -22,35 -21,35 			"/>
		</g>
	</g>
	<g>
		<g>
			<polygon points="-87,68 -90,68 -90,67 -86,67 			"/>
			<polygon points="-86,77 -90,77 -89,76 -86,76 			"/>
			<polygon points="-90,77 -89,77 -86,67 -87,67 			"/>
		</g>
	</g>
	<path d="M-118.5,76c0,1.104-0.104,2,1,2v-2H-118.5z"/>
</g>
</svg>
