<?xml version="1.0" encoding="utf-8"?>
<!-- Generator: Adobe Illustrator 16.0.0, SVG Export Plug-In . SVG Version: 6.00 Build 0)  -->
<!DOCTYPE svg PUBLIC "-//W3C//DTD SVG 1.1//EN" "http://www.w3.org/Graphics/SVG/1.1/DTD/svg11.dtd">
<svg version="1.1" xmlns="http://www.w3.org/2000/svg" xmlns:xlink="http://www.w3.org/1999/xlink" x="0px" y="0px" width="16px"
	 height="16px" viewBox="0 0 16 16" style="enable-background:new 0 0 16 16;" xml:space="preserve">
<style type="text/css">
<![CDATA[
	.st0{display:inline;fill:#384047;}
	.st1{display:inline;}
	.st2{fill:#384047;}
	.st3{display:none;}
]]>
</style>
<g id="Bold" class="st3">
	<g class="st1">
		<g>
			<rect x="5.5" y="3" width="2" height="10"/>
			<path d="M8.5,3h-3v2h3v2h-3v2h3c1.104,0,2-0.896,2-2l0,0V5C10.5,3.896,9.604,3,8.5,3z"/>
			<path d="M8.5,7h-3v2h3v2h-3v2h3c1.104,0,2-0.896,2-2V9C10.5,7.896,9.604,7,8.5,7z"/>
		</g>
	</g>
</g>
<g id="Medium">
	<path d="M8.5,3h-2h-1v1v3.5v1V12v1h1h2c1.104,0,2-0.896,2-2V9.5c0-0.601-0.271-1.133-0.69-1.5c0.419-0.367,0.69-0.899,0.69-1.5V5
		C10.5,3.896,9.604,3,8.5,3z M9.5,9.5V11c0,0.552-0.448,1-1,1h-2V8.5h2C9.052,8.5,9.5,8.948,9.5,9.5z M6.5,7.5V4h2
		c0.552,0,1,0.448,1,1v1.5c0,0.552-0.448,1-1,1H6.5z"/>
</g>
</svg>
