<?xml version="1.0" encoding="utf-8"?>
<!-- Generator: Adobe Illustrator 16.0.0, SVG Export Plug-In . SVG Version: 6.00 Build 0)  -->
<!DOCTYPE svg PUBLIC "-//W3C//DTD SVG 1.1//EN" "http://www.w3.org/Graphics/SVG/1.1/DTD/svg11.dtd">
<svg version="1.1" xmlns="http://www.w3.org/2000/svg" xmlns:xlink="http://www.w3.org/1999/xlink" x="0px" y="0px" width="16px"
	 height="16px" viewBox="0 0 16 16" style="enable-background:new 0 0 16 16;" xml:space="preserve">
<style type="text/css">
<![CDATA[
	.st0{display:inline;fill:#384047;}
	.st1{display:inline;}
	.st2{fill:#384047;}
	.st3{display:none;}
]]>
</style>
<g id="Bold" class="st3">
	<path class="st1" d="M5.5,3v4v2v4h2V9h1v4h2V9.5c0-0.601-0.271-1.134-0.689-1.5C10.229,7.634,10.5,7.101,10.5,6.5V3h-2v4h-1V3H5.5z
		"/>
</g>
<g id="Medium">
	<path d="M6.5,8.5h2c0.553,0,1,0.448,1,1V13h1V9.5c0-0.601-0.271-1.134-0.689-1.5C10.229,7.634,10.5,7.101,10.5,6.5V3h-1v3.5
		c0,0.552-0.447,1-1,1h-2V3h-1v4v2v4h1V8.5z"/>
</g>
</svg>
