<?xml version="1.0" encoding="utf-8"?>
<!-- Generator: Adobe Illustrator 16.0.0, SVG Export Plug-In . SVG Version: 6.00 Build 0)  -->
<!DOCTYPE svg PUBLIC "-//W3C//DTD SVG 1.1//EN" "http://www.w3.org/Graphics/SVG/1.1/DTD/svg11.dtd">
<svg version="1.1" xmlns="http://www.w3.org/2000/svg" xmlns:xlink="http://www.w3.org/1999/xlink" x="0px" y="0px" width="16px"
	 height="16px" viewBox="0 0 16 16" style="enable-background:new 0 0 16 16;" xml:space="preserve">
<style type="text/css">
<![CDATA[
	.st0{display:inline;fill:#384047;}
	.st1{display:inline;}
	.st2{fill:#384047;}
	.st3{display:none;}
]]>
</style>
<g id="Bold" class="st3">
	<g class="st1">
		<g>
			<path d="M3,3c1.104,0,2,0.896,2,2v6c0,1.104-0.896,2-2,2H2v-2h1V5H2V3H3z"/>
			<rect x="2" y="3" width="3" height="2"/>
		</g>
	</g>
	<g class="st1">
		<g>
			<path d="M9,3v8H8V3H6v8c0,1.104,0.896,2,2,2h1c0.552,0,2,0,2,0s0-1.447,0-2V3H9z"/>
		</g>
	</g>
	<rect x="12" y="3" class="st1" width="2" height="10"/>
</g>
<g id="Medium">
	<path d="M10,12H9c-0.552,0-1-0.448-1-1V3H7v8c0,1.104,0.896,2,2,2c0.552,0,2,0,2,0s0-1.447,0-2V3h-1V12z"/>
	<rect x="13" y="3" width="1" height="10"/>
	<path d="M5,4V3c0,0-0.896,0-2,0H2v1h1h1v7c0,0.552-0.448,1-1,1H2v1h1c1.104,0,2-0.896,2-2V4z"/>
</g>
</svg>
