<?xml version="1.0" encoding="utf-8"?>
<!-- Generator: Adobe Illustrator 16.0.0, SVG Export Plug-In . SVG Version: 6.00 Build 0)  -->
<!DOCTYPE svg PUBLIC "-//W3C//DTD SVG 1.1//EN" "http://www.w3.org/Graphics/SVG/1.1/DTD/svg11.dtd">
<svg version="1.1" xmlns="http://www.w3.org/2000/svg" xmlns:xlink="http://www.w3.org/1999/xlink" x="0px" y="0px" width="16px"
	 height="16px" viewBox="0 0 16 16" style="enable-background:new 0 0 16 16;" xml:space="preserve">
<style type="text/css">
<![CDATA[
	.st0{display:inline;fill:#384047;}
	.st1{display:inline;}
	.st2{fill:#384047;}
	.st3{display:none;}
]]>
</style>
<g id="Bold" class="st3">
	<g class="st1">
		<g>
			<path d="M8.5,3v8h-1V3h-2v8c0,1.104,0.896,2,2,2h1c0.552,0,2,0,2,0s0-1.447,0-2V3H8.5z"/>
		</g>
	</g>
</g>
<g id="Medium">
	<path d="M9.5,12h-2c-0.552,0-1-0.447-1-1V3h-1v8c0,1.104,0.896,2,2,2h1c0.552,0,2,0,2,0s0-1.447,0-2V3h-1V12z"/>
</g>
</svg>
