<?xml version="1.0" encoding="utf-8"?>
<!-- Generator: Adobe Illustrator 16.0.0, SVG Export Plug-In . SVG Version: 6.00 Build 0)  -->
<!DOCTYPE svg PUBLIC "-//W3C//DTD SVG 1.1//EN" "http://www.w3.org/Graphics/SVG/1.1/DTD/svg11.dtd">
<svg version="1.1" xmlns="http://www.w3.org/2000/svg" xmlns:xlink="http://www.w3.org/1999/xlink" x="0px" y="0px" width="16px"
	 height="16px" viewBox="0 0 16 16" style="enable-background:new 0 0 16 16;" xml:space="preserve">
<style type="text/css">
<![CDATA[
	.st0{display:inline;fill:#384047;}
	.st1{display:inline;}
	.st2{fill:#384047;}
	.st3{display:none;}
]]>
</style>
<g id="Bold" class="st3">
	<g class="st1">
		<g>
			<g>
				<path d="M7,3v8H6V3H4v8c0,1.104,0.896,2,2,2h1c1.104,0,2-0.896,2-2V3H7z"/>
			</g>
			<g>
				<path d="M10,3v8H9V3H7v8c0,1.104,0.896,2,2,2h1c1.104,0,2-0.896,2-2V3H10z"/>
			</g>
		</g>
	</g>
</g>
<g id="Medium">
	<path d="M11,11c0,0.553-0.447,1-1,1H9.5c-0.553,0-1-0.447-1-1V3h-1v8c0,0.553-0.447,1-1,1H6c-0.553,0-1-0.447-1-1V3H4v8
		c0,1.104,0.896,2,2,2h0.5c0.601,0,1.134-0.271,1.5-0.689C8.366,12.729,8.899,13,9.5,13H10c1.104,0,2-0.896,2-2V3h-1V11z"/>
</g>
</svg>
