<?xml version="1.0" encoding="utf-8"?>
<!-- Generator: Adobe Illustrator 16.0.0, SVG Export Plug-In . SVG Version: 6.00 Build 0)  -->
<!DOCTYPE svg PUBLIC "-//W3C//DTD SVG 1.1//EN" "http://www.w3.org/Graphics/SVG/1.1/DTD/svg11.dtd">
<svg version="1.1" xmlns="http://www.w3.org/2000/svg" xmlns:xlink="http://www.w3.org/1999/xlink" x="0px" y="0px" width="16px"
	 height="16px" viewBox="0 0 16 16" style="enable-background:new 0 0 16 16;" xml:space="preserve">
<style type="text/css">
<![CDATA[
	.st0{display:inline;}
	.st1{fill:#384047;}
	.st2{display:none;}
]]>
</style>
<g id="Bold">
	<path d="M8,13h2v-2H8V5h2V3H8C6.896,3,6,3.896,6,5v6C6,12.104,6.896,13,8,13z"/>
</g>
<g id="Medium" class="st2">
	<path class="st0" d="M8,13h2v-1H8c-0.552,0-1-0.448-1-1V5c0-0.552,0.448-1,1-1h2V3H8C6.896,3,6,3.896,6,5v6C6,12.104,6.896,13,8,13
		z"/>
</g>
</svg>
