<?xml version="1.0" encoding="utf-8"?>
<!-- Generator: Adobe Illustrator 16.0.0, SVG Export Plug-In . SVG Version: 6.00 Build 0)  -->
<!DOCTYPE svg PUBLIC "-//W3C//DTD SVG 1.1//EN" "http://www.w3.org/Graphics/SVG/1.1/DTD/svg11.dtd">
<svg version="1.1" xmlns="http://www.w3.org/2000/svg" xmlns:xlink="http://www.w3.org/1999/xlink" x="0px" y="0px" width="16px"
	 height="16px" viewBox="0 0 16 16" style="enable-background:new 0 0 16 16;" xml:space="preserve">
<style type="text/css">
<![CDATA[
	.st0{display:inline;}
	.st1{fill:#384047;}
	.st2{display:none;}
]]>
</style>
<g id="Bold">
	<polygon points="8.5,7 7.5,7 7.5,3 5.5,3 5.5,7 5.5,9 5.5,13 7.5,13 7.5,9 8.5,9 8.5,13 10.5,13 10.5,9 10.5,7 10.5,3 8.5,3 	"/>
</g>
<g id="Medium" class="st2">
	<polygon class="st0" points="9.5,7.5 6.5,7.5 6.5,3 5.5,3 5.5,7.5 5.5,8.5 5.5,13 6.5,13 6.5,8.5 9.5,8.5 9.5,13 10.5,13 10.5,8.5 
		10.5,7.5 10.5,3 9.5,3 	"/>
</g>
</svg>
