<?xml version="1.0" encoding="utf-8"?>
<!-- Generator: Adobe Illustrator 16.0.0, SVG Export Plug-In . SVG Version: 6.00 Build 0)  -->
<!DOCTYPE svg PUBLIC "-//W3C//DTD SVG 1.1//EN" "http://www.w3.org/Graphics/SVG/1.1/DTD/svg11.dtd">
<svg version="1.1" xmlns="http://www.w3.org/2000/svg" xmlns:xlink="http://www.w3.org/1999/xlink" x="0px" y="0px" width="16px"
	 height="16px" viewBox="0 0 16 16" style="enable-background:new 0 0 16 16;" xml:space="preserve">
<style type="text/css">
<![CDATA[
	.st0{display:inline;}
	.st1{fill:#384047;}
	.st2{display:none;}
]]>
</style>
<g id="Bold">
	<path d="M5,5V3H3H2v2h1v6H2v2h1c1.104,0,2-0.896,2-2V5z"/>
	<path d="M9,11H8V3H6v8c0,1.104,0.896,2,2,2h1c0.552,0,2,0,2,0s0-1.447,0-2V3H9V11z"/>
	<rect x="12" y="3" width="2" height="10"/>
</g>
<g id="Medium" class="st2">
	<path class="st0" d="M10,12H9c-0.552,0-1-0.448-1-1V3H7v8c0,1.104,0.896,2,2,2c0.552,0,2,0,2,0s0-1.447,0-2V3h-1V12z"/>
	<rect x="13" y="3" class="st0" width="1" height="10"/>
	<path class="st0" d="M5,4V3c0,0-0.896,0-2,0H2v1h1h1v7c0,0.552-0.448,1-1,1H2v1h1c1.104,0,2-0.896,2-2V4z"/>
</g>
</svg>
