<?xml version="1.0" encoding="utf-8"?>
<!-- Generator: Adobe Illustrator 16.0.0, SVG Export Plug-In . SVG Version: 6.00 Build 0)  -->
<!DOCTYPE svg PUBLIC "-//W3C//DTD SVG 1.1//EN" "http://www.w3.org/Graphics/SVG/1.1/DTD/svg11.dtd">
<svg version="1.1" xmlns="http://www.w3.org/2000/svg" xmlns:xlink="http://www.w3.org/1999/xlink" x="0px" y="0px" width="16px"
	 height="16px" viewBox="0 0 16 16" style="enable-background:new 0 0 16 16;" xml:space="preserve">
<style type="text/css">
<![CDATA[
	.st0{display:inline;}
	.st1{fill:#384047;}
	.st2{display:none;}
]]>
</style>
<g id="Bold">
	<path d="M10.5,5c0-1.104-0.896-2-2-2h-1h-2v2v2v2v4h2V9h1v4h2V9.5c0-0.601-0.271-1.134-0.689-1.5C10.229,7.634,10.5,7.101,10.5,6.5
		V5z M8.5,7h-1V5h1V7z"/>
</g>
<g id="Medium" class="st2">
	<path class="st0" d="M10.5,5c0-1.104-0.896-2-2-2h-1h-2v2v2v2v4h1V8.5h2c0.553,0,1,0.448,1,1V13h1V9.5
		c0-0.601-0.271-1.134-0.689-1.5C10.229,7.634,10.5,7.101,10.5,6.5V5z M9.5,6.5c0,0.552-0.447,1-1,1h-2V4h2c0.553,0,1,0.448,1,1V6.5
		z"/>
</g>
</svg>
