<?xml version="1.0" encoding="utf-8"?>
<!-- Generator: Adobe Illustrator 16.0.0, SVG Export Plug-In . SVG Version: 6.00 Build 0)  -->
<!DOCTYPE svg PUBLIC "-//W3C//DTD SVG 1.1//EN" "http://www.w3.org/Graphics/SVG/1.1/DTD/svg11.dtd">
<svg version="1.1" xmlns="http://www.w3.org/2000/svg" xmlns:xlink="http://www.w3.org/1999/xlink" x="0px" y="0px" width="16px"
	 height="16px" viewBox="0 0 16 16" style="enable-background:new 0 0 16 16;" xml:space="preserve">
<style type="text/css">
<![CDATA[
	.st0{display:inline;}
	.st1{fill:#384047;}
	.st2{display:none;}
]]>
</style>
<g id="Bold">
	<path d="M8.5,10v1h-1V3h-2v8c0,1.104,0.896,2,2,2h1l0.263-0.026C9.105,13.583,9.751,14,10.5,14v-3v-1V3h-2V10z"/>
</g>
<g id="Medium" class="st2">
	<path class="st0" d="M9.5,10v2h-2c-0.552,0-1-0.447-1-1V3h-1v8c0,1.104,0.896,2,2,2h2.017c0.05,0.596,0.245,1,0.983,1v-1v-1v-1v-1
		V3h-1V10z"/>
</g>
</svg>
