<?xml version="1.0" encoding="utf-8"?>
<!-- Generator: Adobe Illustrator 16.0.0, SVG Export Plug-In . SVG Version: 6.00 Build 0)  -->
<!DOCTYPE svg PUBLIC "-//W3C//DTD SVG 1.1//EN" "http://www.w3.org/Graphics/SVG/1.1/DTD/svg11.dtd">
<svg version="1.1" id="_x2D_Labels" xmlns="http://www.w3.org/2000/svg" xmlns:xlink="http://www.w3.org/1999/xlink" x="0px"
	 y="0px" width="16px" height="16px" viewBox="0 0 16 16" style="enable-background:new 0 0 16 16;" xml:space="preserve">
<style type="text/css">
<![CDATA[
	.st0{fill-rule:evenodd;clip-rule:evenodd;}
]]>
</style>
<text transform="matrix(1 0 0 1 -32 -31.9165)" style="font-family:'ProximaNovaSoft-Regular'; font-size:20;">Social</text>
<path d="M-16,3.038c-0.589,0.261-1.221,0.438-1.885,0.517c0.678-0.406,1.198-1.05,1.443-1.816c-0.634,0.377-1.337,0.649-2.084,0.797
	c-0.599-0.638-1.452-1.036-2.396-1.036c-1.813,0-3.283,1.47-3.283,3.282c0,0.257,0.029,0.508,0.085,0.748
	c-2.728-0.137-5.147-1.444-6.766-3.43c-0.283,0.484-0.444,1.049-0.444,1.65c0,1.139,0.58,2.144,1.46,2.732
	c-0.538-0.018-1.044-0.165-1.487-0.411c0,0.014,0,0.027,0,0.041c0,1.591,1.131,2.918,2.633,3.219
	C-29,9.406-29.29,9.446-29.589,9.446c-0.211,0-0.417-0.021-0.618-0.059c0.417,1.304,1.63,2.253,3.066,2.279
	c-1.124,0.881-2.539,1.405-4.077,1.405c-0.265,0-0.526-0.016-0.783-0.046c1.453,0.932,3.178,1.475,5.032,1.475
	c6.038,0,9.34-5.001,9.34-9.339c0-0.143-0.003-0.284-0.01-0.425C-16.997,4.274-16.44,3.696-16,3.038z"/>
<g id="LinkedIn_3">
	<path class="st0" d="M79,0H65c-0.553,0-1,0.447-1,1v14c0,0.553,0.447,1,1,1h14c0.553,0,1-0.447,1-1V1C80,0.447,79.553,0,79,0z
		 M69,12h-2V5h2V12z M68,4c-0.553,0-1-0.447-1-1s0.447-1,1-1s1,0.447,1,1S68.553,4,68,4z M77,12h-2V9c0-0.939-0.25-2-1.25-2
		C72.625,7,72,8,72,9v3h-1.984c0,0,0.047-7,0.016-7H72v1.5c0.305-0.671,0.938-1.312,1.854-1.438C75.795,4.798,77,5.824,77,7.974V12z
		"/>
</g>
<g id="Dropbox_1">
	<path d="M100.757,0L96,2.96l3.259,2.729L104,2.614L100.757,0z M106.876,12.563c-0.084,0-0.169-0.028-0.237-0.085L104,10.29
		l-2.64,2.188c-0.068,0.057-0.153,0.085-0.237,0.085c-0.071,0-0.124-0.02-0.187-0.061L99,11.227v1.605L104,16l5-3.168v-1.605
		l-1.937,1.276C107,12.544,106.947,12.563,106.876,12.563z M112,2.96L107.242,0L104,2.614l4.74,3.075L112,2.96z M104,8.649
		l2.939,2.437l4.701-3.07l-2.9-2.326L104,8.649z M101.06,11.086L104,8.649l-4.741-2.96l-2.9,2.326L101.06,11.086z"/>
</g>
<g>
	<path d="M47.117,0H32.883C32.396,0,32,0.396,32,0.883v14.233C32,15.604,32.396,16,32.883,16h7.663V9.804h-2.085V7.389h2.085V5.608
		c0-2.066,1.263-3.192,3.105-3.192c0.884,0,1.643,0.066,1.863,0.095v2.16l-1.278,0c-1.003,0-1.196,0.477-1.196,1.176v1.542h2.391
		l-0.312,2.415H43.04V16h4.077C47.604,16,48,15.604,48,15.117V0.883C48,0.396,47.604,0,47.117,0z"/>
</g>
<g id="Google_Plus_1">
	<path d="M128.946,3.989c0,1.358,0.484,2.338,1.439,2.915c0.781,0.472,1.689,0.542,2.161,0.542c0.114,0,0.206-0.13,0.271-0.134
		c0,0-0.149,0.688,0.572,1.688h-0.032c-1.251,0-5.333,0.373-5.333,3.514c0,3.197,3.748,3.486,4.5,3.486c0.061,0,0.094,0,0.094,0
		c0.009,0,0.062,0.001,0.154,0.001c0.482,0,1.73-0.058,2.889-0.585c1.504-0.684,2.266-1.871,2.266-3.532
		c0-1.604-1.161-2.56-2.01-3.257c-0.518-0.425-0.965-0.793-0.965-1.15c0-0.363,0.326-0.637,0.74-0.983
		c0.668-0.56,1.299-1.357,1.299-2.864c0-1.325-0.184-2.214-1.313-2.778c0.118-0.056,0.559-0.098,0.765-0.125
		c0.612-0.077,1.533-0.167,1.533-0.635V0h-4.514C133.417,0,128.946,0.156,128.946,3.989z M136.155,12.183
		c0.084,1.277-1.084,2.222-2.838,2.341c-1.78,0.122-3.247-0.629-3.333-1.905c-0.042-0.613,0.247-1.216,0.812-1.694
		c0.572-0.485,1.357-0.785,2.212-0.844c0.101-0.006,0.2-0.01,0.301-0.01C134.957,10.071,136.074,10.979,136.155,12.183z
		 M134.989,3.114c0.438,1.443-0.224,2.951-1.278,3.229c-0.121,0.031-0.246,0.048-0.372,0.048c-0.966,0-1.923-0.914-2.277-2.175
		c-0.197-0.708-0.182-1.326,0.045-1.921c0.224-0.586,0.624-0.98,1.129-1.113c0.121-0.032,0.247-0.049,0.373-0.049
		C133.774,1.133,134.524,1.585,134.989,3.114z M141.976,6V4h-2v2h-2v2h2v2h2V8h2V6H141.976z"/>
</g>
<g>
	<polygon points="5.333,10.964 3.021,14.946 13.371,14.944 15.708,10.935 10.817,10.949 	"/>
	<polygon points="7.39,5.434 5.185,1.554 0,10.479 2.162,14.434 4.613,10.214 	"/>
	<polygon points="15.707,9.935 10.504,1.056 6.052,1.056 11.106,9.935 	"/>
</g>
</svg>
