<?xml version="1.0" standalone="no"?>
<!DOCTYPE svg PUBLIC "-//W3C//DTD SVG 1.1//EN" "http://www.w3.org/Graphics/SVG/1.1/DTD/svg11.dtd" >
<svg xmlns="http://www.w3.org/2000/svg">
<metadata>Generated by IcoMoon</metadata>
<defs>
<font id="jui-lettering-medium" horiz-adv-x="1024">
<font-face units-per-em="1024" ascent="942.08" descent="-81.92" />
<missing-glyph horiz-adv-x="1024" />
<glyph unicode="&#x20;" d="" horiz-adv-x="512" />
<glyph unicode="&#xe600;" d="M416 352h192v-256h64v512c0 70.656-57.344 128-128 128h-64c-70.656 0-128-57.344-128-128v-512h64v256zM416 608c0 35.328 28.672 64 64 64h64c35.328 0 64-28.672 64-64v-192h-192v192z" />
<glyph unicode="&#xe601;" d="M544 736h-192v-640h192c70.656 0 128 57.344 128 128v96c0 38.464-17.344 72.512-44.16 96 26.816 23.488 44.16 57.536 44.16 96v96c0 70.656-57.344 128-128 128zM608 320v-96c0-35.328-28.672-64-64-64h-128v224h128c35.328 0 64-28.672 64-64zM416 448v224h128c35.328 0 64-28.672 64-64v-96c0-35.328-28.672-64-64-64h-128z" />
<glyph unicode="&#xe602;" d="M512 96h128v64h-128c-35.328 0-64 28.672-64 64v384c0 35.328 28.672 64 64 64h128v64h-128c-70.656 0-128-57.344-128-128v-384c0-70.656 57.344-128 128-128z" />
<glyph unicode="&#xe603;" d="M672 224v384c0 70.656-57.344 128-128 128h-192v-640h192c70.656 0 128 57.344 128 128zM416 672h128c35.392 0 64-28.672 64-64v-384c0-35.328-28.608-64-64-64h-128v512z" />
<glyph unicode="&#xe604;" d="M640 160h-192v224h192v64h-192v224h192v64h-256v-640h256z" />
<glyph unicode="&#xe605;" d="M448 384h192v64h-192v224h192v64h-256v-640h64z" />
<glyph unicode="&#xe606;" d="M480 96h192v384h-64v-320h-128c-35.328 0-64 28.672-64 64v384c0 35.328 28.672 64 64 64h128v64h-128c-70.656 0-128-57.344-128-128v-384c0-70.656 57.344-128 128-128z" />
<glyph unicode="&#xe607;" d="M608 448h-192v288h-64v-640h64v288h192v-288h64v640h-64z" />
<glyph unicode="&#xe608;" d="M480 736h64v-640h-64v640z" />
<glyph unicode="&#xe609;" d="M480 160h-64v-64h64c70.656 0 128 57.344 128 128v512c0 0-57.344 0-128 0h-64v-64h128v-448c0-35.328-28.608-64-64-64z" />
<glyph unicode="&#xe60a;" d="M416 384h128c35.392 0 64-28.672 64-64v-224h64v224c0 38.464-17.344 72.576-44.096 96 26.752 23.424 44.096 57.536 44.096 96v224h-64v-224c0-35.328-28.608-64-64-64h-128v288h-64v-640h64v288z" />
<glyph unicode="&#xe60b;" d="M416 736v-640h192v64h-128v576z" />
<glyph unicode="&#xe60c;" d="M640 160h-64c-35.328 0-64 28.672-64 64v512h-64v-512c0-70.656 57.344-128 128-128 35.328 0 128 0 128 0s0 92.608 0 128v512h-64v-576zM832 736h64v-640h-64v640zM320 672v64c0 0-57.344 0-128 0h-64v-64h128v-448c0-35.328-28.672-64-64-64h-64v-64h64c70.656 0 128 57.344 128 128v448z" />
<glyph unicode="&#xe60d;" d="M512 480l-128 256h-64v-640h64v512l128-256 128 256v-512h64v640h-64z" />
<glyph unicode="&#xe60e;" d="M608 496l-192 240h-64v-640h64v556.8l192-249.6v-307.2h64v640h-64z" />
<glyph unicode="&#xe60f;" d="M544 736h-64c-70.656 0-128-57.344-128-128v-384c0-70.656 57.344-128 128-128h64c70.656 0 128 57.344 128 128v384c0 70.656-57.344 128-128 128zM608 224c0-35.328-28.672-64-64-64h-64c-35.328 0-64 28.672-64 64v384c0 35.328 28.672 64 64 64h64c35.328 0 64-28.672 64-64v-384z" />
<glyph unicode="&#xe610;" d="M416 352h128c70.656 0 128 57.344 128 128v128c0 70.656-57.344 128-128 128h-192v-640h64v256zM416 672h128c35.392 0 64-28.672 64-64v-128c0-35.328-28.608-64-64-64h-128v256z" />
<glyph unicode="&#xe611;" d="M480 96h64c23.872 0 45.952 0 65.088 0 3.264-38.080 15.68-64 62.912-64v576c0 70.656-57.344 128-128 128h-64c-70.656 0-128-57.344-128-128v-384c0-70.656 57.344-128 128-128zM416 608c0 35.328 28.608 64 64 64h64c35.392 0 64-28.672 64-64v-448h-128c-35.392 0-64 28.672-64 64v384z" />
<glyph unicode="&#xe612;" d="M672 608c0 70.656-57.344 128-128 128h-192v-640h64v288h128c35.392 0 64-28.672 64-64v-224h64v224c0 38.464-17.344 72.576-44.096 96 26.752 23.424 44.096 57.536 44.096 96v96zM608 512c0-35.328-28.608-64-64-64h-128v224h128c35.392 0 64-28.672 64-64v-96z" />
<glyph unicode="&#xe613;" d="M512 160h-128v-64h128c70.656 0 128 57.344 128 128v96c0 70.656-57.344 128-128 128-35.328 0-64 28.608-64 64v96c0 35.392 28.672 64 64 64h128v64h-128c-70.656 0-128-57.344-128-128v-96c0-70.656 57.344-128 128-128 35.328 0 64-28.608 64-64v-96c0-35.392-28.672-64-64-64z" />
<glyph unicode="&#xe614;" d="M384 672h96v-576h64v576h96v64h-256z" />
<glyph unicode="&#xe615;" d="M608 160h-128c-35.328 0-64 28.608-64 64v512h-64v-512c0-70.656 57.344-128 128-128h64c35.328 0 128 0 128 0s0 92.608 0 128v512h-64v-576z" />
<glyph unicode="&#xe616;" d="M512 224l-128 512h-64l160-640h64l160 640h-64z" />
<glyph unicode="&#xe617;" d="M704 224c0-35.392-28.608-64-64-64h-32c-35.392 0-64 28.608-64 64v512h-64v-512c0-35.392-28.608-64-64-64h-32c-35.392 0-64 28.608-64 64v512h-64v-512c0-70.656 57.344-128 128-128h32c38.464 0 72.576 17.344 96 44.096 23.424-26.752 57.536-44.096 96-44.096h32c70.656 0 128 57.344 128 128v512h-64v-512z" />
<glyph unicode="&#xe618;" d="M608 736l-96-240-96 240h-64l128-320-128-320h64l96 240 96-240h64l-128 320 128 320z" />
<glyph unicode="&#xe619;" d="M608 288v-128h-128c-35.328 0-64 28.608-64 64v512h-64v-512c0-70.656 57.344-128 128-128h129.088c3.2-38.144 15.68-64 62.912-64v704h-64v-448z" />
<glyph unicode="&#xe61a;" d="M576 736h-192v-64h172.8l-172.8-576h256v64h-172.8l172.8 576z" />
<glyph unicode="&#xe61b;" d="M480 736c-70.656 0-128-57.344-128-128v-384c0-70.656 57.344-128 128-128h64c70.656 0 128 0 128 0v512c0 70.656-57.344 128-128 128h-64zM608 160h-128c-35.392 0-64 28.672-64 64v384c0 35.328 28.608 64 64 64h64c35.392 0 64-28.672 64-64v-448zM608 160c0-70.656-6.656-128 64-128v128h-64z" />
</font>
</defs>
</svg>
