<?xml version="1.0" standalone="no"?>
<!DOCTYPE svg PUBLIC "-//W3C//DTD SVG 1.1//EN" "http://www.w3.org/Graphics/SVG/1.1/DTD/svg11.dtd" >
<svg xmlns="http://www.w3.org/2000/svg">
<metadata>Generated by IcoMoon</metadata>
<defs>
<font id="juicons" horiz-adv-x="1024">
<font-face units-per-em="1024" ascent="960" descent="-64" />
<missing-glyph horiz-adv-x="1024" />
<glyph unicode="&#x20;" d="" horiz-adv-x="512" />
<glyph unicode="&#xe001;" d="M512 198.784c50.112 0 415.104 410.816 381.888 481.856-31.488 66.688-732.288 66.688-763.776 0-33.216-71.040 331.776-481.856 381.888-481.856z" />
<glyph unicode="&#xe002;" d="M727.936 82.88c66.752 31.488 66.752 732.352 0 763.776-71.104 33.152-481.856-331.84-481.856-381.888 0-50.112 410.752-414.976 481.856-381.888z" />
<glyph unicode="&#xe003;" d="M777.856 464.768c0 50.112-410.816 415.040-481.92 381.952-66.688-31.488-66.688-732.288 0-763.712 71.104-33.344 481.92 331.648 481.92 381.76z" />
<glyph unicode="&#xe004;" d="M893.76 248.832c33.088 71.168-331.712 481.856-381.76 481.856-50.112 0-415.104-410.688-381.952-481.92 31.424-66.56 732.288-66.56 763.712 0.064z" />
<glyph unicode="&#xe005;" d="M512 86.016c72.768 72.768 145.92 145.984 203.648 203.648 57.792 57.728 65.664 160.64 0 226.304-62.528 62.528-163.776 62.528-226.24 0l-158.4-158.464c-25.088-25.024-25.088-65.472 0-90.496 25.024-25.024 65.472-25.024 90.496 0l158.4 158.4c12.48 12.48 32.768 12.48 45.248 0s12.48-32.768 0-45.312l-203.648-203.648c-49.984-49.984-131.072-49.984-180.992 0-49.984 49.984-49.984 131.008 0 180.992l361.984 362.048c49.984 49.984 131.072 49.984 180.992 0 49.984-49.984 49.984-131.008 0-181.056l-2.24-2.304c30.080-40.256 45.504-88.064 44.864-136.064l47.936 47.936c99.968 99.968 99.968 262.080 0 362.048s-262.144 99.968-362.048 0l-362.048-362.048c-99.968-99.904-99.968-262.016 0-362.048 100.032-99.968 262.080-99.968 362.048 0.064z" />
<glyph unicode="&#xe006;" d="M275.776-16.32c11.968-4.928 25.728-2.176 34.88 6.912l201.344 201.408 201.344-201.344c9.152-9.152 22.912-11.904 34.88-6.912s19.776 16.576 19.776 29.504v882.752c0 35.328-28.608 64-64 64h-384c-35.392 0-64-28.672-64-64v-882.752c0-12.928 7.808-24.64 19.776-29.568z" />
<glyph unicode="&#xe007;" d="M928.896 188.736c7.296 27.072-3.776 55.744-27.392 70.72l-184.192 117.376c-7.296 4.544-16.128 6.144-24.576 4.032-8.384-1.92-15.616-7.232-19.968-14.656-35.84-59.264-118.848-108.864-235.072 7.36-116.224 116.352-66.624 199.424-7.36 235.136 7.36 4.416 12.672 11.712 14.656 20.096 1.92 8.384 0.448 17.216-4.16 24.512l-117.248 184.192c-15.104 23.68-43.776 34.752-70.848 27.392-160.384-43.712-279.808-297.92 49.216-626.944 328.896-328.96 583.232-209.6 626.944-49.216z" />
<glyph unicode="&#xe008;" d="M185.088 174.656c24.384-6.592 47.744-11.968 70.912-17.152v-154.944c0-25.984 17.024-48.896 41.792-56.384 24.896-7.552 51.712 2.048 66.112 23.68l106.304 159.424c116.864-3.904 231.040 12.032 366.208 46.912 80.064 20.672 143.36 90.624 163.968 181.12 30.144 132.928 32.192 241.728 1.664 374.784-20.544 89.536-83.328 158.976-162.496 180.096-238.464 63.552-413.184 63.68-654.272 0-79.488-20.928-142.272-90.432-162.752-180.288-30.208-132.224-30.080-242.496 0.832-377.28 20.48-89.28 82.752-158.656 161.728-179.968z" />
<glyph unicode="&#xe009;" d="M512-64c64 0 384 320 384 640 0 212.032-171.968 384-384 384s-384-171.968-384-384c0-320 320-640 384-640zM320 576c0 105.984 85.952 192 192 192s192-86.016 192-192-85.952-192-192-192-192 86.016-192 192z" />
<glyph unicode="&#xe00a;" d="M671.36 101.824c17.536-14.656 41.984-17.728 62.656-8.064 45.376 21.248 42.112 87.424 12.736 111.936l-258.816 242.304 258.88 242.304c29.376 24.512 32.64 90.688-12.736 111.936-20.672 9.664-45.12 6.592-62.656-8.064l-361.024-300.864c-13.44-11.2-21.184-27.84-21.184-45.248-0.064-17.472 7.68-34.112 21.12-45.312 116.992-97.472 361.024-300.928 361.024-300.928z" />
<glyph unicode="&#xe00b;" d="M323.712 93.76c20.672-9.664 45.12-6.592 62.656 8.064l361.024 300.864c13.44 11.2 21.184 27.84 21.184 45.248 0.064 17.472-7.68 34.112-21.12 45.312-116.992 97.472-361.088 300.928-361.088 300.928-17.536 14.656-41.984 17.792-62.656 8.064-45.376-21.248-42.176-87.424-12.8-111.936l258.88-242.304-258.88-242.304c-29.376-24.512-32.576-90.688 12.8-111.936z" />
<glyph unicode="&#xe00c;" d="M82.752 18.752c25.024-25.024 65.472-25.024 90.496 0l338.752 306.752 338.752-306.752c25.024-25.024 65.472-25.024 90.496 0s25.024 65.472 0 90.496l-306.752 338.752 306.752 338.752c25.024 25.024 25.024 65.472 0 90.496s-65.472 25.024-90.496 0l-338.752-306.752-338.752 306.752c-25.024 25.024-65.472 25.024-90.496 0s-25.024-65.472 0-90.496l306.752-338.752-306.752-338.752c-25.024-25.024-25.024-65.472 0-90.496z" />
<glyph unicode="&#xe00d;" d="M435.2 317.632l-371.2 278.336v-467.968c0-35.392 28.608-64 64-64h768c35.392 0 64 28.608 64 64v467.968l-371.2-278.4c-45.504-34.112-108.096-34.112-153.6 0.064zM896 832h-768c-35.392 0-64-28.608-64-64v-51.968l409.6-307.2c22.72-17.088 54.016-17.088 76.736 0l409.6 307.2v51.968c0.064 35.392-28.544 64-63.936 64z" />
<glyph unicode="&#xe00e;" d="M128 0h768c35.392 0 64 28.608 64 64v640c0 35.392-28.608 64-64 64h-128v64c0 35.392-28.608 64-64 64s-64-28.608-64-64v-181.568l-3.456-7.36-7.872-2.048c-29.952 5.312-52.672 31.488-52.672 62.976v64h-128v64c0 35.392-28.608 64-64 64s-64-28.608-64-64v-181.568l-3.456-7.36-7.872-2.048c-29.952 5.312-52.672 31.488-52.672 62.976v64h-128c-35.392 0-64-28.608-64-64v-640c0-35.392 28.608-64 64-64zM192 576h640v-448h-640v448zM448 512h128v-128h-128v128zM640 512h128v-128h-128v128zM448 320h128v-128h-128v128zM256 320h128v-128h-128v128zM640 320h128v-128h-128v128z" />
<glyph unicode="&#xe00f;" d="M255.808 44.608l15.488-1.728c50.432 23.552 167.424 78.336 240.704 114.688 73.28-36.352 190.272-91.136 240.704-114.688l15.488 1.728 6.4 14.848c-5.312 56.832-17.856 187.136-29.12 271.68 58.752 62.656 143.232 165.504 178.816 209.344l2.944 15.872-11.456 10.816c-52.544 12.16-175.424 40-257.664 54.208-38.656 78.976-104.576 195.2-132.736 244.16l-13.376 7.872-13.376-7.872c-28.16-49.024-94.080-165.184-132.672-244.096-82.24-14.208-205.12-41.984-257.728-54.208l-11.456-10.88 2.944-15.808c35.584-43.904 120.064-146.688 178.816-209.344-11.264-84.544-23.808-214.848-29.12-271.68l6.4-14.912z" />
<glyph unicode="&#xe010;" d="M715.904 832c-67.392 0-131.776-27.264-177.984-75.456-9.792-10.24-18.176-21.696-25.92-33.28-7.744 11.648-16.128 23.040-25.856 33.344-46.272 48.128-110.656 75.392-178.048 75.392-286.784 0-425.408-443.2 174.528-753.28 18.432-9.472 40.32-9.472 58.752 0 612.928 316.096 451.648 753.28 174.528 753.28z" />
<glyph unicode="&#xe011;" d="M404.16 334.528c-110.656-28.416-211.904-59.776-254.4-157.376-7.936-18.112-6.976-38.912 2.56-56.448 9.536-17.344 26.688-29.376 46.336-32.384 102.208-15.808 206.784-24.32 313.344-24.32s211.136 8.512 313.344 24.32c19.648 3.008 36.608 14.976 46.272 32.384 9.6 17.408 10.56 38.336 2.624 56.448-42.56 97.728-144 129.152-254.848 157.504-9.792 2.496-17.792 9.216-21.632 18.496-3.904 9.152-3.328 19.648 1.664 28.352 44.224 77.056 72.576 158.976 72.576 194.496 0 106.048-53.952 192-160 192s-160-85.952-160-192c0-50.432 28.032-120.832 71.744-194.176 5.12-8.64 5.952-19.264 2.048-28.544-3.776-9.344-11.84-16.256-21.632-18.752z" />
<glyph unicode="&#xe012;" d="M70.656 88.32c102.208-15.808 206.784-24.32 313.344-24.32s211.136 8.512 313.344 24.32c19.648 3.008 36.672 14.976 46.272 32.384s10.56 38.272 2.624 56.448c-42.56 97.728-144 129.088-254.848 157.44-9.792 2.496-17.792 9.28-21.632 18.56-3.904 9.152-3.328 19.648 1.664 28.352 44.224 77.056 72.576 158.976 72.576 194.496 0 106.048-53.952 192-160 192s-160-85.952-160-192c0-50.432 28.032-120.832 71.744-194.176 5.12-8.64 5.952-19.264 2.048-28.544-3.84-9.344-11.904-16.32-21.632-18.816-110.656-28.416-211.904-59.712-254.4-157.312-7.936-18.176-6.976-38.976 2.56-56.448 9.6-17.408 26.752-29.376 46.336-32.384zM768 704h-112c-8.832 0-16-7.168-16-16v-96c0-8.832 7.168-16 16-16h112v-112c0-8.832 7.168-16 16-16h96c8.832 0 16 7.168 16 16v112h112c8.832 0 16 7.168 16 16v96c0 8.832-7.168 16-16 16h-112v112c0 8.832-7.168 16-16 16h-96c-8.832 0-16-7.168-16-16v-112z" />
<glyph unicode="&#xe013;" d="M800 704c0 106.048-53.952 192-160 192-80 0-130.112-49.024-150.016-118.592 91.776-41.856 150.016-139.392 150.016-265.408 0-45.248-20.992-109.632-48.192-169.6 76.288-24 160.576-63.232 214.784-142.272 49.344 3.904 98.368 8.768 146.624 16.192 19.712 3.008 36.672 14.976 46.336 32.384 9.536 17.408 10.56 38.336 2.624 56.448-42.56 97.728-144 129.152-254.848 157.44-9.664 2.496-17.664 9.344-21.568 18.56s-3.328 19.712 1.664 28.352c44.224 77.056 72.576 158.976 72.576 194.496zM70.656 24.32c102.208-15.808 206.784-24.32 313.344-24.32s211.136 8.512 313.344 24.32c19.648 3.008 36.608 14.976 46.272 32.384 9.6 17.408 10.56 38.336 2.624 56.448-42.56 97.728-144 129.152-254.848 157.504-9.664 2.496-17.664 9.344-21.568 18.496-3.904 9.28-3.328 19.776 1.664 28.352 44.16 77.056 72.512 158.976 72.512 194.496 0 106.048-53.952 192-160 192s-160-85.952-160-192c0-50.432 28.032-120.896 71.744-194.176 5.12-8.64 5.952-19.264 2.048-28.544-3.84-9.344-11.904-16.256-21.632-18.752-110.656-28.416-211.904-59.776-254.4-157.376-7.936-18.112-6.976-38.912 2.56-56.448 9.6-17.408 26.752-29.376 46.336-32.384z" />
<glyph unicode="&#xe014;" d="M57.152 258.24c48.64-7.552 98.304-11.584 148.352-14.208 35.136 36.16 78.4 58.88 120.576 74.432-17.28 41.92-25.984 79.872-25.984 113.536 0 97.344 42.816 173.568 110.656 212.096-6.336 69.952-45.952 123.904-118.656 123.904-79.552 0-120-64.448-120-144 0-37.824 20.992-90.624 53.824-145.6 3.84-6.528 4.48-14.464 1.6-21.44s-8.96-12.224-16.256-14.144c-83.008-21.312-158.912-44.736-190.784-117.952-6.016-13.696-5.248-29.248 1.856-42.368 7.232-12.992 20.096-22.016 34.816-24.256zM804.416 456.896c-2.944 6.848-2.496 14.72 1.28 21.248 33.152 57.792 54.464 119.232 54.464 145.856 0 79.552-40.448 144-120 144-72.704 0-112.32-53.952-118.72-123.904 67.904-38.592 110.656-114.752 110.656-212.096 0-32.32-11.904-73.344-27.904-112.768 42.816-15.616 86.784-38.464 122.496-75.2 49.984 2.624 99.712 6.656 148.352 14.208 14.656 2.24 27.52 11.264 34.688 24.256 7.104 13.056 7.872 28.672 1.92 42.368-31.936 73.28-108.032 96.768-191.104 118.080-7.232 1.856-13.248 6.912-16.128 13.952zM435.264 250.816c-83.008-21.312-158.848-44.736-190.72-117.952-6.016-13.696-5.248-29.248 1.856-42.368 7.168-12.992 20.032-22.016 34.752-24.256 76.608-11.84 155.008-18.24 234.944-18.24s158.336 6.4 235.008 18.24c14.656 2.24 27.52 11.264 34.688 24.256 7.104 13.056 7.872 28.672 1.92 42.368-31.936 73.28-108.032 96.768-191.104 118.080-7.296 1.856-13.312 6.912-16.192 13.952-2.944 6.848-2.496 14.72 1.28 21.248 33.088 57.792 54.4 119.232 54.4 145.856 0 79.552-40.384 144-120 144s-120-64.448-120-144c0-37.824 20.992-90.624 53.824-145.6 3.84-6.528 4.416-14.464 1.536-21.44s-8.896-12.288-16.192-14.144z" />
<glyph unicode="&#xe015;" d="M896 832h-768c-35.392 0-64-28.608-64-64v-640c0-35.392 28.608-64 64-64h768c35.392 0 64 28.608 64 64v640c0 35.392-28.608 64-64 64zM352 704c52.992 0 96-43.008 96-96s-43.008-96-96-96-96 43.008-96 96 43.008 96 96 96zM192 192l146.752 146.752c25.024 25.024 65.472 25.024 90.496 0l40.896-40.896 12.416-1.024 2.944 12.032-16.192 32.448 61.44 61.44c25.024 25.024 65.472 25.024 90.496 0l210.752-210.752h-640z" />
<glyph unicode="&#xe016;" d="M128 0c35.392 0 64 28.608 64 64v448c0 35.392-28.608 64-64 64s-64-28.608-64-64v-448c0-35.392 28.608-64 64-64zM690.24 827.392c-1.088 17.216-0.96 34.304-11.84 47.616s-27.2 20.992-44.416 20.992h-3.328c-28.8 0-53.888-19.136-61.504-46.784-29.76-106.56-148.416-232-243.392-255.808l-21.248-5.312c-28.544-7.104-48.512-32.704-48.512-62.080v-398.016c79.104 0 145.472-10.88 179.648-26.56 81.344-37.44 93.696-37.44 268.352-37.44 141.376 0 256 114.624 256 256 0 137.792 32 256-128 256h-192c0 0 58.688 120 50.24 251.392z" />
<glyph unicode="&#xe017;" d="M512 810.048l-113.152-113.152-0.96-1.216v0.064c-98.88-100.096-98.624-261.248 0.96-360.896 25.024-25.088 65.472-25.088 90.496 0 25.024 25.024 25.024 65.408 0 90.496-49.984 49.984-49.984 131.072 0 180.992l113.088 113.088c49.92 49.984 131.072 49.984 180.992 0 49.92-49.92 49.92-131.008 0-180.992l-41.664-41.664c20.416-52.16 25.856-108.416 17.856-163.2l114.432 114.432c99.968 99.968 99.968 262.080 0 362.048-99.904 99.968-262.080 99.968-362.048 0zM512 85.952l113.152 113.216 1.088 1.28v-0.064c98.88 100.032 98.624 261.248-1.088 360.896-25.024 25.024-65.408 25.024-90.496 0s-25.024-65.472 0-90.496c49.984-49.984 49.984-131.072 0-180.992l-113.088-113.152c-49.984-49.984-131.072-49.984-180.992 0-49.984 49.92-49.984 131.008 0 180.992l41.728 41.728c-20.544 52.032-25.984 108.288-17.984 163.008l-114.368-114.368c-99.968-99.968-99.968-262.144 0-362.048 99.968-99.968 262.080-99.968 362.048 0z" />
<glyph unicode="&#xe018;" d="M192 448c0-35.346-28.654-64-64-64s-64 28.654-64 64c0 35.346 28.654 64 64 64s64-28.654 64-64zM192 704c0-35.346-28.654-64-64-64s-64 28.654-64 64c0 35.346 28.654 64 64 64s64-28.654 64-64zM192 192c0-35.346-28.654-64-64-64s-64 28.654-64 64c0 35.346 28.654 64 64 64s64-28.654 64-64zM896 768h-512c-35.392 0-64-28.608-64-64s28.608-64 64-64h512c35.392 0 64 28.608 64 64s-28.608 64-64 64zM896 512h-512c-35.392 0-64-28.608-64-64s28.608-64 64-64h512c35.392 0 64 28.608 64 64s-28.608 64-64 64zM896 256h-512c-35.392 0-64-28.608-64-64s28.608-64 64-64h512c35.392 0 64 28.608 64 64s-28.608 64-64 64z" />
<glyph unicode="&#xe019;" d="M152 118.912c275.584-76.224 443.456-70.4 718.656 0.32 114.24 29.248 116.544 498.496 1.472 529.472-60.992 16.448-116.352 28.608-169.344 37.696 5.312 51.264-6.336 116.608-56.512 128.32-99.136 22.976-167.872 23.040-268.096 0-50.304-11.392-61.888-77.056-56.896-128.512-52.8-9.152-108.032-21.12-168.96-37.376-114.688-30.528-113.472-498.688-0.32-529.92zM512 608c123.52 0 224-100.48 224-224s-100.48-224-224-224-224 100.48-224 224 100.48 224 224 224zM656 384c0-79.529-64.471-144-144-144s-144 64.471-144 144c0 79.529 64.471 144 144 144s144-64.471 144-144z" />
<glyph unicode="&#xe01a;" d="M498.752 571.648c-4.736 81.408-14.976 146.496-31.104 154.112-48.64 22.72-329.408-226.752-329.408-260.992s280.768-283.648 329.344-261.056c13.568 6.464 22.976 53.76 28.48 117.12 199.424 1.6 205.888-63.872 163.2-173.76l2.112-10.24 10.24-2.112c35.2 13.504 107.456 49.344 140.736 125.504 50.624 115.968-13.504 274.624-313.6 311.424z" />
<glyph unicode="&#xe01b;" d="M541.44 433.984c10.688-49.984 361.216-119.488 387.008-99.84 26.048 19.648 53.952 375.68 8.832 399.488-13.376 7.040-52.352-30.912-103.232-77.632-68.48 105.664-186.816 176-322.048 176-212.032 0-384-171.968-384-384 0-211.968 171.968-384 384-384 90.88 0 174.4 31.552 240.128 84.224 10.752 8.704 17.344 21.504 18.048 35.328s-4.48 27.264-14.336 36.928c-17.792 17.472-45.376 19.968-65.984 5.952-127.296-87.232-326.080-48.832-371.968 123.584-57.344 215.936 220.992 348.288 340.096 170.56-66.176-41.216-120.128-69.568-116.544-86.592z" />
<glyph unicode="&#xe01c;" d="M896 768h-768c-35.392 0-64-28.608-64-64s28.608-64 64-64h768c35.392 0 64 28.608 64 64s-28.608 64-64 64zM896 512h-768c-35.392 0-64-28.608-64-64s28.608-64 64-64h768c35.392 0 64 28.608 64 64s-28.608 64-64 64zM896 256h-768c-35.392 0-64-28.608-64-64s28.608-64 64-64h768c35.392 0 64 28.608 64 64s-28.608 64-64 64z" />
<glyph unicode="&#xe01d;" d="M705.856 344.576c39.168 56.704 62.144 125.376 62.144 199.424 0 194.432-157.568 352-352 352s-352-157.568-352-352 157.568-352 352-352c74.048 0 142.72 22.976 199.424 62.144l235.328-235.392c25.024-25.024 65.472-25.024 90.496 0s25.024 65.472 0 90.496l-235.392 235.328zM416 320c-123.52 0-224 100.48-224 224s100.48 224 224 224 224-100.48 224-224-100.48-224-224-224z" />
<glyph unicode="&#xe01e;" d="M995.968 515.52l-158.336 19.84c-11.968 1.472-22.080 9.536-26.048 20.928-3.456 9.28-7.104 18.304-11.328 27.136-5.12 10.944-3.712 23.808 3.84 33.344l97.792 125.824c9.856 12.736 8.832 30.848-2.688 42.304l-50.496 50.496c-11.456 11.456-29.568 12.544-42.24 2.688l-125.888-97.856c-9.472-7.424-22.4-8.896-33.344-3.776-8.576 4.096-17.728 7.808-27.008 11.2-11.328 4.032-19.328 14.144-20.992 26.112l-19.712 158.272c-2.048 15.936-15.616 27.968-31.744 27.968h-71.552c-16.128 0-29.696-12.032-31.744-28.032l-19.776-158.208c-1.536-11.968-9.6-22.080-20.928-26.112-9.28-3.392-18.304-7.040-27.136-11.264-10.944-5.12-23.808-3.712-33.344 3.776l-125.824 97.856c-12.736 9.856-30.848 8.704-42.304-2.688l-50.496-50.496c-11.392-11.456-12.544-29.568-2.688-42.304l97.856-125.824c7.424-9.472 8.896-22.4 3.776-33.344-4.16-8.768-7.872-17.856-11.264-27.136-4.032-11.328-14.144-19.392-26.112-20.928l-158.272-19.84c-15.936-1.984-27.968-15.552-27.968-31.68v-71.552c0-16.128 12.032-29.76 28.032-31.744l158.272-19.84c11.968-1.408 22.080-9.536 26.112-20.928 3.392-9.28 7.040-18.24 11.264-27.136 5.12-10.944 3.712-23.744-3.776-33.344l-97.856-125.824c-9.856-12.736-8.768-30.848 2.688-42.368l50.496-50.432c11.456-11.456 29.568-12.544 42.304-2.688l125.824 97.856c9.472 7.36 22.4 8.896 33.344 3.776 8.832-4.096 17.856-7.872 27.136-11.264 11.392-4.032 19.456-14.272 20.928-26.112l19.84-158.272c1.92-15.872 15.488-27.904 31.616-27.904h71.552c16.128 0 29.76 12.032 31.744 28.032l19.904 158.336c1.472 11.968 9.472 22.080 20.864 26.048 9.344 3.456 18.368 7.104 27.2 11.328 10.944 5.12 23.808 3.712 33.344-3.84l125.888-97.792c12.672-9.856 30.784-8.832 42.24 2.688l50.496 50.496c11.52 11.456 12.544 29.568 2.752 42.24l-97.856 125.888c-7.424 9.472-8.96 22.4-3.84 33.344 4.16 8.832 7.872 17.856 11.328 27.2 3.968 11.392 14.144 19.392 26.048 20.864l158.336 19.904c15.744 1.792 27.776 15.36 27.776 31.488v71.552c0 16.128-12.032 29.696-28.032 31.744zM512 256c-105.984 0-192 86.016-192 192s86.016 192 192 192 192-86.016 192-192-86.016-192-192-192z" />
<glyph unicode="&#xe01f;" d="M956.032 427.968c-22.528-19.072-42.88-35.52-61.632-49.92-2.112-65.856-6.656-125.12-14.080-156.032-5.504-22.72-20.8-40.448-39.168-44.864-86.848-21.248-210.752-33.408-339.712-33.408-123.84 0-240.192 11.648-319.552 31.936-17.984 4.48-33.152 22.080-38.592 44.352-20.096 83.264-20.48 371.776-0.64 454.208 5.504 22.4 20.8 39.808 39.104 44.416 37.312 9.344 83.008 16.448 132.672 21.76 49.344 47.104 124.672 92.352 241.408 118.912 1.024 7.040 2.496 12.544 3.776 19.2-15.488 0.384-31.040 0.96-46.656 0.96-132.032 0-264.448-12.224-362.304-36.736-64.64-16.128-115.712-69.632-132.352-138.752-24.576-101.696-24.448-410.432 0.64-514.112 16.704-68.736 67.328-122.112 131.456-138.368 94.848-24.32 222.656-35.968 351.104-35.968 134.848 0 270.656 12.8 370.048 37.12 65.088 15.808 116.48 69.696 133.248 139.328 13.824 57.856 20.032 181.056 18.56 296.064-19.008-17.984-40.96-37.76-67.328-60.096zM690.752 917.76c-16.128-7.616-26.368-72.704-31.104-154.112-300.16-36.8-364.352-195.456-313.728-311.488 33.344-76.16 105.536-112 140.736-125.504l3.456-0.64 6.784 2.88 2.112 10.176c-42.176 108.48-36.352 173.76 156.032 173.76h7.232c5.504-63.36 14.848-110.72 28.416-117.12l7.552-1.408c64.832 0 321.728 229.696 321.728 262.464s-256.896 262.464-321.664 262.464l-7.552-1.472z" />
<glyph unicode="&#xe020;" d="M214.4 51.52c51.136-13.12 150.912-22.272 233.344-28.032 16.64-1.216 33.024 4.544 45.184 16 12.16 11.328 19.072 27.264 19.072 44.032v4.288c0 33.536-25.92 61.376-59.456 63.808-74.816 5.312-165.248 13.248-206.656 23.872-17.984 4.48-33.152 22.080-38.592 44.352-20.096 83.264-20.48 371.776-0.64 454.208 5.504 22.528 20.8 39.936 39.104 44.544 42.048 10.56 132.416 18.56 206.912 24.064 33.472 2.432 59.328 30.208 59.328 63.744v8.64c0 15.552-6.528 30.464-17.856 41.024-11.392 10.624-26.624 16.064-42.176 14.912-83.008-5.888-185.344-15.232-237.312-28.224-64.64-16.128-115.712-69.632-132.352-138.752-24.576-101.696-24.448-410.432 0.64-514.112 16.704-68.736 67.328-122.112 131.456-138.368zM630.656 708.992c-16.256-7.68-26.624-74.24-31.296-157.056l-216-30.848c-36.352-5.184-63.36-36.352-63.36-73.088s27.008-67.904 63.36-73.152l215.872-30.784c4.736-82.816 14.976-149.376 31.36-157.056 48.64-22.784 329.408 226.688 329.408 260.928s-280.768 283.712-329.344 261.056z" />
<glyph unicode="&#xe021;" d="M908.48 150.4c13.12 51.136 22.272 150.912 28.032 233.344 1.216 16.64-4.544 33.024-16 45.184-11.328 12.16-27.264 19.072-44.032 19.072h-4.288c-33.536 0-61.376-25.92-63.808-59.52-5.312-74.752-13.248-165.184-23.872-206.656-4.48-17.984-22.080-33.152-44.352-38.592-83.264-20.096-371.776-20.48-454.208-0.704-22.528 5.504-39.936 20.672-44.48 38.976-10.56 42.048-18.56 132.416-24.064 206.848-2.496 33.792-30.272 59.648-63.808 59.648h-8.64c-15.616 0-30.464-6.528-41.024-17.856-10.624-11.392-16.064-26.624-14.912-42.176 5.952-83.136 15.232-185.344 28.224-237.376 16.128-64.576 69.632-115.648 138.752-132.288 101.696-24.576 410.432-24.448 514.112 0.64 68.736 16.704 122.112 67.328 138.368 131.456zM438.912 319.36c5.184-36.352 36.352-63.36 73.088-63.36s67.904 27.008 73.152 63.36l30.784 215.936c82.816 4.672 149.376 14.976 157.056 31.296 22.784 48.64-226.688 329.408-260.928 329.408s-283.712-280.768-261.056-329.344c7.68-16.32 74.24-26.624 157.056-31.296l30.848-216z" />
<glyph unicode="&#xe022;" d="M89.024 387.968c5.952-83.136 15.232-185.344 28.224-237.376 16.128-64.576 69.632-115.648 138.752-132.288 101.696-24.576 410.432-24.448 514.112 0.64 68.736 16.704 122.112 67.328 138.368 131.456 13.12 51.136 22.272 150.912 28.032 233.344 1.216 16.64-4.544 33.024-16 45.184-11.328 12.16-27.264 19.072-44.032 19.072h-4.288c-33.536 0-61.376-25.92-63.808-59.52-5.312-74.752-13.248-165.184-23.872-206.656-4.48-17.984-22.080-33.152-44.352-38.592-83.264-20.096-371.776-20.48-454.208-0.704-22.528 5.504-39.936 20.672-44.48 38.976-10.56 42.048-18.56 132.416-24.064 206.848-2.496 33.792-30.272 59.648-63.808 59.648h-8.64c-15.616 0-30.464-6.528-41.024-17.856-10.624-11.392-16.064-26.624-14.912-42.176zM585.152 832.64c-5.248 36.352-36.416 63.36-73.152 63.36s-67.904-27.008-73.088-63.36l-30.848-215.936c-82.816-4.736-149.376-15.040-157.056-31.36-22.72-48.576 226.688-329.344 260.928-329.344s283.712 280.768 261.056 329.344c-7.68 16.32-74.24 26.624-157.056 31.296l-30.784 216z" />
<glyph unicode="&#xe023;" d="M192-64v896c35.392 0 64 28.608 64 64s-28.608 64-64 64h-128c-35.392 0-64-28.608-64-64s28.608-64 64-64v-896h128zM1024 665.28c0 20.224-9.6 39.296-25.856 51.392-16.32 12.096-37.376 15.744-56.768 9.856-228.48-69.504-456.96 205.44-685.376 41.472 0-191.296 0-382.656 0-574.016 223.168 160.128 446.4-98.56 669.568-45.888 57.792 13.76 98.432 65.28 98.432 124.672 0 130.88 0 261.696 0 392.512z" />
<glyph unicode="&#xe024;" d="M608-32v395.328c0 13.44 4.224 26.56 12.096 37.44l330.496 457.728c14.208 19.52 16.128 45.248 5.12 66.624-10.816 21.44-32.832 34.88-56.896 34.88h-773.632c-24.064 0-46.080-13.44-57.024-34.88-10.944-21.376-9.024-47.104 5.12-66.624l330.56-457.728c7.936-10.88 12.16-24 12.16-37.44v-395.328c0-17.6 14.336-32 32-32h128c17.6 0 32 14.4 32 32z" />
<glyph unicode="&#xe025;" d="M512 896c-119.296 0-216-96.704-216-216v-203.968c-26.752 0-54.144 0-80 0-28.224 0-53.184-18.56-61.312-45.632-36.288-121.536-35.584-242.56 2.24-364.096 7.296-23.488 27.52-40.832 51.904-44.288 199.744-29.376 406.656-29.376 606.4 0 24.384 3.648 44.48 20.8 51.904 44.288 37.888 121.536 38.656 242.56 2.24 364.096-8.128 27.136-33.024 45.632-61.312 45.632-25.792 0-53.248 0-80 0v203.968c-0.064 119.296-96.832 216-216.064 216zM424 680c0 48.512 39.488 88 88 88s88-39.488 88-88v-203.968c-58.624 0-117.376 0-176 0v203.968z" />
<glyph unicode="&#xe026;" d="M21.696 594.24c-5.76-19.392-2.048-40.32 10.048-56.512s31.040-25.728 51.328-25.728c28.288 0 53.248 18.56 61.312 45.76 47.232 158.464 193.728 274.24 367.616 274.24 211.968 0 384-171.968 384-384 0-211.968-172.032-384-384-384-173.888 0-320.448 115.776-367.616 274.304-8.064 27.072-33.024 45.696-61.312 45.696-20.288 0-39.232-9.472-51.392-25.728-12.032-16.128-15.744-37.12-9.984-56.512 62.912-211.52 258.432-365.76 490.304-365.76 282.752 0 512 229.248 512 512s-229.248 512-512 512c-231.872 0-427.392-154.24-490.304-365.76z" />
<glyph unicode="&#xe027;" d="M896 832h-640c-35.392 0-64-28.608-64-64s28.608-64 64-64h640c35.392 0 64 28.608 64 64s-28.608 64-64 64zM896 576h-384c-35.392 0-64-28.608-64-64s28.608-64 64-64h384c35.392 0 64 28.608 64 64s-28.608 64-64 64zM896 320h-256c-35.392 0-64-28.608-64-64s28.608-64 64-64h256c35.392 0 64 28.608 64 64s-28.608 64-64 64zM256 576c-35.392 0-64-28.608-64-64v-193.344c-66.432-2.88-121.344-10.368-127.104-22.656-16-34.304 163.136-232 187.2-232 24.128 0 210.944 197.696 194.944 231.936-5.76 12.16-60.608 19.84-127.040 22.656v193.408c0 35.392-28.608 64-64 64z" />
<glyph unicode="&#xe028;" d="M960 0v608h-192c-88.256 0-160 71.744-160 160v192h-480c-35.392 0-64-28.608-64-64v-896c0-35.392 28.608-64 64-64h768c35.392 0 64 28.608 64 64zM704 768c0-35.392 28.608-64 64-64h192l-256 256v-192z" />
<glyph unicode="&#xe029;" d="M852.8 663.936v3.008c0 180.416-135.808 293.056-337.92 293.056-136.96 0-237.184-50.048-316.288-126.72-18.432-17.856-19.136-47.168-1.6-65.856l45.44-48.448c17.408-18.496 46.336-19.776 65.408-2.944 60.224 53.376 125.76 82.176 202.624 82.176 104 0 166.208-56.192 166.208-137.152v-3.008c0-95.104-83.84-154.368-267.2-161.536l-7.296-7.232 23.68-165.376c3.008-20.992 20.992-36.608 42.24-36.608h43.84c20.8 0 38.656 14.976 42.048 35.52l8.448 49.472c160.448 27.2 290.368 109.696 290.368 291.648zM486.016 133.952c-53.44 0-96.832-43.392-96.832-96.832v-4.224c0-53.504 43.392-96.896 96.832-96.896s96.896 43.392 96.896 96.896v4.224c-0.192 53.44-43.456 96.832-96.896 96.832z" />
<glyph unicode="&#xe02a;" d="M512 960c-282.752 0-512-229.248-512-512s229.248-512 512-512 512 229.248 512 512-229.248 512-512 512zM576 160c0-17.6-14.4-32-32-32h-64c-17.664 0-32 14.4-32 32v64c0 17.6 14.336 32 32 32h64c17.6 0 32-14.4 32-32v-64zM727.488 582.912c0-113.728-81.28-165.312-181.504-182.336l-4.416-20.224c-2.688-12.224-13.568-20.928-26.048-20.928h-28.8c-13.12 0-24.32 9.536-26.368 22.528l-14.528 91.776 4.544 4.544c114.624 4.416 166.976 41.472 166.976 100.928v1.92c0 50.624-38.848 85.76-103.936 85.76-48.064 0-89.024-17.984-126.656-51.392-11.84-10.496-29.952-9.664-40.832 1.856l-28.352 30.336c-10.944 11.712-10.496 30.016 1.024 41.152 49.408 47.872 112.064 79.168 197.632 79.168 126.4 0 211.264-70.4 211.264-183.168v-1.92z" />
<glyph unicode="&#xe02b;" d="M635.52 949.12c-6.080 6.912-14.848 10.88-24 10.88h-198.976c-9.216 0-17.92-3.968-24-10.88-6.144-6.912-8.896-16.128-7.68-25.28l79.168-604.736c2.048-15.872 15.616-27.904 31.68-27.904h41.792c16.064 0 29.696 12.032 31.744 28.032l77.952 604.672c1.152 9.152-1.728 18.368-7.68 25.216zM415.424 39.232v-6.016c0-53.76 43.584-97.344 97.344-97.344 53.696 0 97.28 43.584 97.28 97.344v6.016c0 53.696-43.584 97.28-97.28 97.28-53.76 0-97.344-43.584-97.344-97.28z" />
<glyph unicode="&#xe02c;" d="M1024 448c0 282.752-229.248 512-512 512s-512-229.248-512-512 229.248-512 512-512 512 229.248 512 512zM576 160c0-17.6-14.4-32-32-32h-64c-17.664 0-32 14.4-32 32v64c0 17.6 14.336 32 32 32h64c17.6 0 32-14.4 32-32v-64zM545.344 367.552c-1.344-9.984-9.792-17.408-19.84-17.408h-26.112c-10.048 0-18.56 7.424-19.84 17.344l-49.472 377.856 4.8 15.808c3.776 4.352 9.216 6.848 15.040 6.848h124.224l14.976-6.784 4.736-15.744-48.512-377.92z" />
<glyph unicode="&#xe02d;" d="M932.48 515.968c-107.776 15.36-216 24.64-324.352 28.16-3.648 108.352-12.8 216.704-28.096 324.352-2.432 15.808-15.936 27.52-31.808 27.52h-72.448c-15.936 0-29.44-11.712-31.68-27.52-15.36-107.712-24.64-216-28.16-324.352-108.352-3.584-216.704-12.8-324.352-28.16-15.872-2.304-27.584-15.808-27.584-31.744v-72.448c0-16 11.712-29.504 27.52-31.744 107.712-15.296 216-24.64 324.352-28.096 3.584-108.352 12.8-216.768 28.16-324.352 2.304-15.808 15.808-27.584 31.744-27.584h72.448c16 0 29.504 11.776 31.744 27.52 15.296 107.776 24.64 216 28.096 324.352 108.352 3.648 216.768 12.8 324.352 28.096 15.808 2.432 27.584 15.936 27.584 31.808v72.448c0 15.936-11.776 29.44-27.52 31.744z" />
<glyph unicode="&#xe02e;" d="M0 448c0-282.752 229.248-512 512-512s512 229.248 512 512-229.248 512-512 512-512-229.248-512-512zM192 473.856c0 11.392 8.384 20.992 19.648 22.656 77.248 11.072 155.072 16.512 232.896 19.008 2.432 77.76 7.872 155.456 18.944 232.64 1.6 11.264 11.264 19.648 22.656 19.648h51.776c11.392 0 20.992-8.384 22.656-19.648v-0.128c11.072-77.184 16.448-154.88 18.944-232.576 77.888-2.496 155.52-7.936 232.768-19.008 11.328-1.6 19.712-11.264 19.712-22.656v-51.776c0-11.392-8.384-20.992-19.712-22.656h-0.128c-77.12-11.008-154.88-16.512-232.64-19.008-2.368-77.76-7.872-155.52-18.944-232.896-1.728-11.072-11.328-19.456-22.72-19.456h-51.712c-11.392 0-20.992 8.384-22.656 19.648-11.072 77.248-16.512 155.136-19.008 233.024-77.824 2.368-155.52 7.744-232.768 18.88-11.328 1.6-19.712 11.2-19.712 22.592v51.712z" />
<glyph unicode="&#xe02f;" d="M932.48 515.968c-278.912 39.808-562.048 39.808-841.024 0-15.744-2.304-27.456-15.808-27.456-31.744v-72.448c0-16 11.712-29.504 27.52-31.744 278.912-39.744 562.048-39.744 840.96 0 15.744 2.368 27.52 15.872 27.52 31.744v72.448c0 15.936-11.776 29.44-27.52 31.744z" />
<glyph unicode="&#xe030;" d="M512 960c-282.752 0-512-229.248-512-512s229.248-512 512-512 512 229.248 512 512-229.248 512-512 512zM831.808 422.144c0-11.392-8.384-21.056-19.712-22.656h-0.128c-199.040-28.416-401.28-28.416-600.32 0-11.264 1.664-19.648 11.264-19.648 22.656v51.712c0 11.392 8.384 20.992 19.648 22.656 199.104 28.48 401.344 28.48 600.576 0 11.264-1.6 19.648-11.264 19.648-22.656l-0.064-51.712z" />
<glyph unicode="&#xe031;" d="M512-64c282.752 0 512 229.248 512 512s-229.248 512-512 512-512-229.248-512-512 229.248-512 512-512zM448 736c0 17.664 14.336 32 32 32h64c17.6 0 32-14.336 32-32v-64c0-17.664-14.4-32-32-32h-64c-17.664 0-32 14.336-32 32v64zM416 480c0 17.664 14.336 32 32 32h96c17.6 0 32-14.336 32-32v-288c17.6 0 32-14.4 32-32s-14.4-32-32-32h-128c-17.664 0-32 14.4-32 32s14.336 32 32 32v256c-17.664 0-32 14.336-32 32z" />
<glyph unicode="&#xe032;" d="M64 512h320c35.392 0 64 28.608 64 64v320c0 35.392-28.608 64-64 64h-320c-35.392 0-64-28.608-64-64v-320c0-35.392 28.608-64 64-64zM384-64c35.392 0 64 28.608 64 64v320c0 35.392-28.608 64-64 64h-320c-35.392 0-64-28.608-64-64v-320c0-35.392 28.608-64 64-64h320zM960 960h-320c-35.392 0-64-28.608-64-64v-320c0-35.392 28.608-64 64-64h320c35.392 0 64 28.608 64 64v320c0 35.392-28.608 64-64 64zM1024 320c0 35.392-28.608 64-64 64h-320c-35.392 0-64-28.608-64-64v-320c0-35.392 28.608-64 64-64h320c35.392 0 64 28.608 64 64v320z" />
<glyph unicode="&#xe033;" d="M802.752 749.248c-12.48 12.48-32.768 12.48-45.248 0l-357.504-357.504-133.504 133.504c-12.48 12.48-32.768 12.48-45.248 0l-90.496-90.496c-12.48-12.48-12.48-32.768 0-45.248l246.656-246.656c12.48-12.48 32.768-12.48 45.248 0l470.656 470.656c12.416 12.48 12.416 32.768 0 45.248l-90.56 90.496z" />
<glyph unicode="&#xe034;" d="M0 448c0-282.752 229.248-512 512-512s512 229.248 512 512-229.248 512-512 512-512-229.248-512-512zM262.144 438.656l59.456 59.392 14.784 6.144 14.784-6.144 87.424-87.552 234.432 234.24c8.128 8.192 21.376 8.192 29.632 0l59.264-59.328 6.208-14.784-6.208-14.784-308.48-308.352c-8.192-8.192-21.44-8.192-29.632 0l-161.664 161.536-6.144 14.784 6.144 14.848z" />
<glyph unicode="&#xe035;" d="M777.6 589.696l-123.904 123.904c-169.6-147.2-323.456-311.872-458.496-491.904l-45.248-135.808 135.808 45.248c179.968 135.104 344.768 288.896 491.84 458.56zM848.448 835.648c-11.328 11.264-29.248 12.416-41.92 2.752-26.752-20.48-53.12-41.408-79.104-62.656l112.448-112.448c21.184 26.048 42.048 52.416 62.656 79.104 9.6 12.736 8.512 30.656-2.752 41.984l-51.328 51.264z" />
<glyph unicode="&#xe036;" d="M320 448c0-61.856-50.144-112-112-112s-112 50.144-112 112c0 61.856 50.144 112 112 112s112-50.144 112-112zM624 448c0-61.856-50.144-112-112-112s-112 50.144-112 112c0 61.856 50.144 112 112 112s112-50.144 112-112zM928 448c0-61.856-50.144-112-112-112s-112 50.144-112 112c0 61.856 50.144 112 112 112s112-50.144 112-112z" />
<glyph unicode="&#xe037;" d="M768 614.72v25.28c0 141.376-114.624 256-256 256s-256-114.624-256-256v-25.28c0-186.56-70.912-265.92-142.272-355.648-12.864-16.192-17.024-37.632-11.328-57.6 5.76-19.904 20.672-35.776 40.256-42.624 73.344-25.856 156.928-42.24 243.392-50.752 9.536-61.12 62.080-108.096 125.952-108.096s116.352 46.976 126.016 108.096c86.528 8.512 169.984 24.896 243.392 50.752 19.648 6.848 34.496 22.72 40.256 42.624 5.76 19.968 1.408 41.344-11.392 57.472-71.424 89.856-142.272 169.216-142.272 355.776z" />
<glyph unicode="&#xe038;" d="M316.16 64c24.128 0 210.944 197.696 194.944 231.936-4.992 10.624-47.040 17.536-101.312 21.248l-22.656 454.016c-1.792 34.048-29.824 60.8-63.936 60.8h-6.272c-34.112 0-62.208-26.752-63.936-60.8l-22.656-454.016c-54.336-3.584-96.384-10.624-101.376-21.248-16-34.24 163.136-231.936 187.2-231.936zM707.904 832c-24.128 0-210.944-197.696-194.944-231.936 4.928-10.624 46.976-17.6 101.312-21.248l22.656-454.016c1.728-34.048 29.76-60.8 63.872-60.8h6.272c34.112 0 62.208 26.752 63.936 60.8l22.592 454.016c54.4 3.584 96.448 10.624 101.376 21.248 16 34.24-163.072 231.936-187.072 231.936z" />
<glyph unicode="&#xe039;" d="M1024 32c0 17.6-14.4 32-32 32h-866.624v864c0 17.664-14.336 32-32 32h-61.376c-17.664 0-32-14.336-32-32v-960c0-17.6 14.336-32 32-32h960c17.6 0 32 14.4 32 32v64zM224 448c-17.664 0-32-14.336-32-32v-288h128v288c0 17.664-14.336 32-32 32h-64zM416 704c-17.664 0-32-14.336-32-32v-544h128v544c0 17.664-14.336 32-32 32h-64zM608 576c-17.6 0-32-14.336-32-32v-416h128v416c0 17.664-14.4 32-32 32h-64zM800 832c-17.6 0-32-14.336-32-32v-672h128v672c0 17.664-14.4 32-32 32h-64z" />
<glyph unicode="&#xe03a;" d="M706.112 916.672c-9.152 3.2-19.264 2.048-27.392-3.008-8.256-5.12-13.76-13.632-14.912-23.232l-41.536-332.16 332.16 41.536c9.536 1.216 18.048 6.656 23.168 14.848 5.12 8.256 6.272 18.304 3.072 27.456-44.864 128.256-146.304 229.696-274.56 274.56zM583.936 448.512l-81.6-10.176 10.176 81.6 42.496 339.904c1.152 9.024-1.6 17.984-7.488 24.832s-14.4 10.88-23.424 11.136c-4.032 0.128-8.064 0.192-12.096 0.192-247.424 0-448-200.576-448-448s200.576-448 448-448 448 200.576 448 448c0 4.032-0.064 8.064-0.192 12.096-0.256 9.024-4.288 17.472-11.136 23.36s-15.872 8.64-24.96 7.488l-339.776-42.432z" />
<glyph unicode="&#xe03b;" d="M832 960h-640c-35.392 0-64-28.608-64-64v-896c0-35.392 28.608-64 64-64h640c35.392 0 64 28.608 64 64v896c0 35.392-28.608 64-64 64zM512 0c-35.392 0-64 28.608-64 64s28.608 64 64 64c35.392 0 64-28.608 64-64s-28.608-64-64-64zM768 192h-512v640h512v-640z" />
<glyph unicode="&#xe03c;" d="M256 928c0 17.664-14.336 32-32 32h-192c-17.664 0-32-14.336-32-32v-192c0-17.664 14.336-32 32-32h192c17.664 0 32 14.336 32 32v192zM640 928c0 17.664-14.4 32-32 32h-192c-17.664 0-32-14.336-32-32v-192c0-17.664 14.336-32 32-32h192c17.6 0 32 14.336 32 32v192zM1024 928c0 17.664-14.4 32-32 32h-192c-17.6 0-32-14.336-32-32v-192c0-17.664 14.4-32 32-32h192c17.6 0 32 14.336 32 32v192zM448 352c0-17.6-14.336-32-32-32h-384c-17.664 0-32 14.4-32 32v192c0 17.664 14.336 32 32 32h384c17.664 0 32-14.336 32-32v-192zM1024 352c0-17.6-14.4-32-32-32h-384c-17.6 0-32 14.4-32 32v192c0 17.664 14.4 32 32 32h384c17.6 0 32-14.336 32-32v-192zM448-32c0-17.6-14.336-32-32-32h-384c-17.664 0-32 14.4-32 32v192c0 17.6 14.336 32 32 32h384c17.664 0 32-14.4 32-32v-192zM1024-32c0-17.6-14.4-32-32-32h-384c-17.6 0-32 14.4-32 32v192c0 17.6 14.4 32 32 32h384c17.6 0 32-14.4 32-32v-192z" />
<glyph unicode="&#xe03d;" d="M835.2 515.072l-414.72 20.672 165.12 154.56c29.376 24.512 32.64 90.688-12.736 111.936-20.672 9.728-45.12 6.592-62.656-8.064l-361.024-300.864c-13.44-11.2-21.184-27.84-21.184-45.248-0.064-17.472 7.68-34.112 21.12-45.312 116.992-97.472 361.088-300.928 361.088-300.928 17.536-14.656 41.984-17.664 62.656-8.064 45.376 21.248 42.112 87.424 12.736 111.936l-165.12 154.56 414.656 20.672c34.112 1.728 60.864 29.824 60.864 63.936v6.272c0 34.112-26.752 62.208-60.8 63.936z" />
<glyph unicode="&#xe03e;" d="M513.792 794.176c-17.536 14.656-41.984 17.792-62.656 8.064-45.376-21.248-42.112-87.424-12.736-111.936l165.12-154.56-414.72-20.672c-34.048-1.728-60.8-29.824-60.8-63.936v-6.272c0-34.112 26.752-62.208 60.8-63.936l414.72-20.672-165.12-154.56c-29.376-24.512-32.64-90.688 12.736-111.936 20.672-9.664 45.12-6.592 62.656 8.064l361.024 300.864c13.44 11.2 21.184 27.84 21.184 45.248 0.064 17.472-7.68 34.112-21.12 45.312-116.992 97.472-361.088 300.928-361.088 300.928z" />
<glyph unicode="&#xe03f;" d="M557.312 810.816c-11.2 13.44-27.84 21.184-45.248 21.184-17.472 0.064-34.112-7.68-45.312-21.12-97.472-116.992-300.928-361.088-300.928-361.088-14.656-17.536-17.792-41.984-8.064-62.656 21.248-45.376 87.424-42.112 111.936-12.736l154.56 165.12 20.672-414.656c1.728-34.112 29.824-60.864 63.936-60.864h6.272c34.112 0 62.208 26.752 63.936 60.8l20.672 414.72 154.56-165.12c24.512-29.376 90.688-32.64 111.936 12.736 9.664 20.672 6.592 45.12-8.064 62.656l-300.864 361.024z" />
<glyph unicode="&#xe040;" d="M754.304 521.6l-154.56-165.12-20.672 414.72c-1.728 34.048-29.824 60.8-63.936 60.8h-6.272c-34.112 0-62.208-26.752-63.936-60.8l-20.672-414.72-154.56 165.12c-24.512 29.376-90.688 32.64-111.936-12.736-9.728-20.672-6.592-45.12 8.064-62.656l300.864-361.024c11.2-13.44 27.84-21.184 45.248-21.184 17.472-0.064 34.112 7.68 45.312 21.12 97.472 116.992 300.928 361.088 300.928 361.088 14.656 17.536 17.728 41.984 8.064 62.656-21.248 45.376-87.424 42.112-111.936 12.736z" />
</font>
</defs>
</svg>
