<?xml version="1.0" standalone="no"?>
<!DOCTYPE svg PUBLIC "-//W3C//DTD SVG 1.1//EN" "http://www.w3.org/Graphics/SVG/1.1/DTD/svg11.dtd" >
<svg xmlns="http://www.w3.org/2000/svg">
<metadata>Generated by IcoMoon</metadata>
<defs>
<font id="juicons" horiz-adv-x="1024">
<font-face units-per-em="1024" ascent="960" descent="-64" />
<missing-glyph horiz-adv-x="1024" />
<glyph unicode="&#x20;" d="" horiz-adv-x="512" />
<glyph unicode="&#xe600;" d="M804.544 638.592v28.864c0 161.536-131.008 292.544-292.544 292.544s-292.544-131.008-292.544-292.544v-28.864c0-213.184-81.088-303.936-162.56-406.528-14.72-18.496-19.52-43.008-12.992-65.664 6.592-22.72 23.616-40.896 46.016-48.832 83.84-29.568 179.328-48.256 278.144-57.92 10.88-69.952 70.912-123.648 143.936-123.648s133.056 53.696 144 123.648c98.816 9.664 194.304 28.352 278.144 57.92 22.4 7.936 39.424 26.048 46.016 48.832 6.528 22.656 1.664 47.168-12.992 65.664-81.536 102.592-162.624 193.28-162.624 406.528z" />
<glyph unicode="&#xe601;" d="M932.48 515.968c-67.776 9.664-135.744 16.896-203.84 21.888 44.608 51.648 87.68 104.768 128.704 159.424 9.6 12.8 8.32 30.656-2.944 41.856l-51.264 51.264c-11.264 11.328-29.056 12.544-41.856 3.008-54.72-41.088-107.84-84.16-159.488-128.768-4.992 68.096-12.224 136.128-21.824 203.84-2.304 15.808-15.808 27.52-31.744 27.52h-72.448c-15.936 0-29.44-11.712-31.68-27.52-9.728-67.712-16.896-135.744-21.888-203.84-51.648 44.608-104.768 87.616-159.488 128.704-12.8 9.6-30.656 8.32-41.856-2.944l-51.264-51.264c-11.2-11.264-12.544-29.056-2.944-41.856 41.088-54.72 84.096-107.84 128.704-159.488-68.096-4.992-136.128-12.16-203.84-21.824-15.808-2.304-27.52-15.808-27.52-31.744v-72.512c0-15.936 11.712-29.44 27.52-31.68 67.776-9.664 135.744-16.896 203.904-21.888-44.672-51.712-87.68-104.768-128.768-159.488-9.6-12.8-8.32-30.656 2.944-41.856l51.264-51.264c11.264-11.264 29.056-12.544 41.856-2.944 54.72 41.088 107.84 84.096 159.488 128.768 4.992-68.096 12.224-136.128 21.888-203.904 2.24-15.744 15.744-27.456 31.68-27.456h72.512c15.936 0 29.44 11.712 31.68 27.52 9.664 67.776 16.896 135.744 21.888 203.904 51.648-44.672 104.768-87.744 159.488-128.832 12.8-9.536 30.656-8.32 41.856 3.008l51.264 51.264c11.328 11.264 12.544 29.056 3.008 41.856-41.088 54.72-84.096 107.84-128.768 159.488 68.096 4.992 136.064 12.16 203.84 21.888 15.744 2.24 27.456 15.744 27.456 31.68v72.448c0 15.936-11.712 29.44-27.52 31.744z" />
<glyph unicode="&#xe602;" d="M889.088 526.208l-483.84 24.192 192.64 180.288c34.24 28.608 38.144 105.792-14.848 130.56-24.064 11.328-52.608 7.68-73.088-9.344l-421.248-351.104c-15.68-13.056-24.704-32.448-24.704-52.736-0.064-20.352 8.96-39.744 24.64-52.8 136.512-113.728 421.312-351.168 421.312-351.168 20.416-17.024 49.024-20.608 73.088-9.344 52.992 24.768 49.152 101.952 14.848 130.56l-192.64 180.288 483.84 24.192c39.68 2.048 70.912 34.688 70.912 74.56v7.296c0 39.872-31.232 72.512-70.912 74.56z" />
<glyph unicode="&#xe603;" d="M275.776-16.32c11.968-4.928 25.728-2.176 34.88 6.912l201.344 201.408 201.344-201.344c9.152-9.152 22.912-11.904 34.88-6.912s19.776 16.576 19.776 29.504v882.752c0 35.392-28.608 64-64 64h-384c-35.392 0-64-28.608-64-64v-882.752c0-12.928 7.808-24.64 19.776-29.568z" />
<glyph unicode="&#xe604;" d="M960 896h-896c-35.392 0-64-28.608-64-64v-768c0-35.392 28.608-64 64-64h896c35.392 0 64 28.608 64 64v768c0 35.392-28.608 64-64 64zM192 768c35.392 0 64-28.608 64-64s-28.608-64-64-64-64 28.608-64 64 28.608 64 64 64zM896 128h-768v448h768v-448z" />
<glyph unicode="&#xe605;" d="M128 0h768c35.392 0 64 28.608 64 64v640c0 35.392-28.608 64-64 64h-128v64c0 35.392-28.608 64-64 64s-64-28.608-64-64v-181.568l-3.456-7.36-7.872-2.048c-29.952 5.312-52.672 31.488-52.672 62.976v64h-128v64c0 35.392-28.608 64-64 64s-64-28.608-64-64v-181.568l-3.456-7.36-7.872-2.048c-29.952 5.312-52.672 31.488-52.672 62.976v64h-128c-35.392 0-64-28.608-64-64v-640c0-35.392 28.608-64 64-64zM192 576h640v-448h-640v448zM448 512h128v-128h-128v128zM640 512h128v-128h-128v128zM448 320h128v-128h-128v128zM256 320h128v-128h-128v128zM640 320h128v-128h-128v128z" />
<glyph unicode="&#xe606;" d="M151.936 118.912c275.584-76.224 443.456-70.4 718.656 0.32 114.24 29.248 116.544 498.496 1.472 529.472-60.992 16.448-116.352 28.608-169.344 37.696 5.312 51.264-6.336 116.608-56.512 128.32-99.136 22.976-167.872 23.040-268.096 0-50.304-11.392-61.888-77.056-56.896-128.512-52.8-9.152-108.032-21.12-168.96-37.376-114.688-30.528-113.472-498.688-0.32-529.92zM511.936 608c123.52 0 224-100.48 224-224s-100.48-224-224-224-224 100.48-224 224 100.48 224 224 224zM655.936 384c0-79.529-64.471-144-144-144s-144 64.471-144 144c0 79.529 64.471 144 144 144s144-64.471 144-144z" />
<glyph unicode="&#xe607;" d="M1024 32c0 17.664-14.336 32-32 32h-866.624v864c0 17.664-14.336 32-32 32h-61.376c-17.664 0-32-14.336-32-32v-960c0-17.664 14.336-32 32-32h960c17.664 0 32 14.336 32 32v64zM224 448c-17.664 0-32-14.336-32-32v-288h128v288c0 17.664-14.336 32-32 32h-64zM416 704c-17.664 0-32-14.336-32-32v-544h128v544c0 17.664-14.336 32-32 32h-64zM608 576c-17.664 0-32-14.336-32-32v-416h128v416c0 17.664-14.336 32-32 32h-64zM800 832c-17.664 0-32-14.336-32-32v-672h128v672c0 17.664-14.336 32-32 32h-64z" />
<glyph unicode="&#xe608;" d="M706.112 916.672c-9.152 3.2-19.2 2.048-27.392-3.008-8.256-5.12-13.76-13.632-14.912-23.232l-41.536-332.032 332.032 41.472c9.6 1.216 18.176 6.656 23.232 14.848 5.12 8.256 6.208 18.304 3.008 27.456-44.8 128.256-146.176 229.632-274.432 274.496zM583.936 448.512l-81.6-10.176 10.176 81.6 42.496 339.904c1.152 9.024-1.6 17.984-7.488 24.832s-14.4 10.88-23.424 11.136c-4.032 0.128-8.064 0.192-12.096 0.192-247.424 0-448-200.576-448-448s200.576-448 448-448 448 200.576 448 448c0 4.032-0.064 8.064-0.192 12.096-0.256 9.024-4.288 17.472-11.136 23.36s-15.872 8.64-24.896 7.488l-339.84-42.432z" />
<glyph unicode="&#xe609;" d="M185.088 174.656c24.384-6.592 47.744-11.968 70.912-17.152v-154.944c0-25.984 17.024-48.896 41.792-56.384 24.896-7.552 51.712 2.048 66.112 23.68l106.304 159.424c116.864-3.904 231.040 12.032 366.208 46.912 80.064 20.672 143.36 90.624 163.968 181.12 30.144 132.864 32.192 241.728 1.664 374.784-20.544 89.536-83.328 158.912-162.496 180.096-238.464 63.552-413.184 63.68-654.272 0-79.488-20.928-142.272-90.432-162.752-180.288-30.208-132.224-30.080-242.496 0.832-377.28 20.48-89.28 82.752-158.656 161.728-179.968z" />
<glyph unicode="&#xe60a;" d="M0 448c0-282.752 229.248-512 512-512s512 229.248 512 512-229.248 512-512 512-512-229.248-512-512zM262.144 438.656l59.456 59.392 14.784 6.144 14.784-6.144 87.424-87.552 234.368 234.24c8.192 8.192 21.44 8.192 29.632 0l59.328-59.328 6.144-14.784-6.144-14.784-308.544-308.352c-8.192-8.192-21.44-8.192-29.632 0l-161.6 161.536-6.144 14.784 6.144 14.848z" />
<glyph unicode="&#xe60b;" d="M802.752 751.168c-12.48 12.48-32.768 12.48-45.248 0l-357.504-357.504-133.504 133.504c-12.48 12.48-32.768 12.48-45.248 0l-90.496-90.496c-12.48-12.48-12.48-32.768 0-45.248l246.656-246.656c12.48-12.48 32.768-12.48 45.248 0l470.656 470.656c12.48 12.48 12.48 32.768 0 45.248l-90.56 90.496z" />
<glyph unicode="&#xe60c;" d="M671.36 101.824c17.536-14.656 41.984-17.728 62.656-8.064 45.376 21.248 42.112 87.424 12.736 111.936l-258.816 242.304 258.88 242.304c29.376 24.512 32.64 90.688-12.736 111.936-20.672 9.664-45.12 6.592-62.656-8.064l-361.024-300.864c-13.44-11.2-21.184-27.84-21.184-45.248-0.064-17.472 7.68-34.112 21.12-45.312 116.992-97.472 361.024-300.928 361.024-300.928z" />
<glyph unicode="&#xe60d;" d="M323.712 93.76c20.672-9.664 45.12-6.592 62.656 8.064l361.024 300.864c13.44 11.2 21.184 27.84 21.184 45.248 0.064 17.472-7.68 34.112-21.12 45.312-116.992 97.472-361.088 300.928-361.088 300.928-17.536 14.656-41.984 17.792-62.656 8.064-45.376-21.248-42.176-87.424-12.8-111.936l258.88-242.304-258.88-242.304c-29.376-24.512-32.576-90.688 12.8-111.936z" />
<glyph unicode="&#xe60e;" d="M512 960c-282.752 0-512-229.248-512-512s229.248-512 512-512 512 229.248 512 512-229.248 512-512 512zM768 416c0-17.664-14.336-32-32-32h-224c-35.392 0-64 28.608-64 64v288c0 17.664 14.336 32 32 32h64c17.664 0 32-14.336 32-32v-224h160c17.664 0 32-14.336 32-32v-64z" />
<glyph unicode="&#xe60f;" d="M256 928c0 17.664-14.336 32-32 32h-192c-17.664 0-32-14.336-32-32v-192c0-17.664 14.336-32 32-32h192c17.664 0 32 14.336 32 32v192zM640 928c0 17.664-14.336 32-32 32h-192c-17.664 0-32-14.336-32-32v-192c0-17.664 14.336-32 32-32h192c17.664 0 32 14.336 32 32v192zM1024 928c0 17.664-14.336 32-32 32h-192c-17.664 0-32-14.336-32-32v-192c0-17.664 14.336-32 32-32h192c17.664 0 32 14.336 32 32v192zM448 352c0-17.664-14.336-32-32-32h-384c-17.664 0-32 14.336-32 32v192c0 17.664 14.336 32 32 32h384c17.664 0 32-14.336 32-32v-192zM1024 352c0-17.664-14.336-32-32-32h-384c-17.664 0-32 14.336-32 32v192c0 17.664 14.336 32 32 32h384c17.664 0 32-14.336 32-32v-192zM448-32c0-17.664-14.336-32-32-32h-384c-17.664 0-32 14.336-32 32v192c0 17.664 14.336 32 32 32h384c17.664 0 32-14.336 32-32v-192zM1024-32c0-17.664-14.336-32-32-32h-384c-17.664 0-32 14.336-32 32v192c0 17.664 14.336 32 32 32h384c17.664 0 32-14.336 32-32v-192z" />
<glyph unicode="&#xe610;" d="M960 0v608h-192c-88.256 0-160 71.744-160 160v192h-480c-35.392 0-64-28.608-64-64v-896c0-35.392 28.608-64 64-64h768c35.392 0 64 28.608 64 64zM704 768c0-35.392 28.608-64 64-64h192l-256 256v-192z" />
<glyph unicode="&#xe611;" d="M1024 928c0 17.664-14.336 32-32 32h-448c-17.664 0-32-14.336-32-32v-96h224c52.928 0 96-43.072 96-96v-416h160c17.664 0 32 14.336 32 32v576zM768 736c0 17.664-14.336 32-32 32h-448c-17.664 0-32-14.336-32-32v-96h224c52.928 0 96-43.072 96-96v-416h160c17.664 0 32 14.336 32 32v576zM0 128l192-192v160c0 17.664-14.336 32-32 32h-160zM512 544c0 17.664-14.336 32-32 32h-448c-17.664 0-32-14.336-32-32v-352h160c53.056 0 96-43.008 96-96v-160h224c17.664 0 32 14.336 32 32v576z" />
<glyph unicode="&#xe612;" d="M1024 928c0 17.664-14.336 32-32 32h-576c-17.664 0-32-14.336-32-32v-128h224c70.656 0 128-57.344 128-128v-480h256c17.664 0 32 14.336 32 32v704zM640 672c0 17.664-14.336 32-32 32h-576c-17.664 0-32-14.336-32-32v-384h224c70.656 0 128-57.344 128-128v-224h256c17.664 0 32 14.336 32 32v704zM256 160c0 17.664-14.336 32-32 32h-224l256-256v224z" />
<glyph unicode="&#xe613;" d="M320 448c0-61.856-50.144-112-112-112s-112 50.144-112 112c0 61.856 50.144 112 112 112s112-50.144 112-112zM624 448c0-61.856-50.144-112-112-112s-112 50.144-112 112c0 61.856 50.144 112 112 112s112-50.144 112-112zM928 448c0-61.856-50.144-112-112-112s-112 50.144-112 112c0 61.856 50.144 112 112 112s112-50.144 112-112z" />
<glyph unicode="&#xe614;" d="M512 198.784c50.112 0 414.976 410.816 381.888 481.92-31.488 66.688-732.224 66.688-763.776 0-33.088-71.104 331.776-481.92 381.888-481.92z" />
<glyph unicode="&#xe615;" d="M88.256 387.968c5.888-83.072 15.232-185.344 28.224-237.376 16.128-64.64 69.632-115.712 138.752-132.288 101.632-24.576 410.368-24.448 514.112 0.64 68.736 16.704 122.112 67.328 138.368 131.456 13.12 51.136 22.272 150.912 28.032 233.344 1.28 16.64-4.608 33.024-16 45.184s-27.264 19.072-43.968 19.072h-4.352c-33.6 0-61.376-25.92-63.744-59.456-5.376-74.816-13.248-165.248-23.872-206.656-4.608-17.984-22.144-33.152-44.48-38.592-83.136-20.096-371.648-20.48-454.144-0.64-22.528 5.44-39.872 20.672-44.48 38.976-10.496 42.048-18.496 132.416-24 206.912-2.56 33.6-30.336 59.456-63.808 59.456h-8.768c-15.488 0-30.4-6.528-41.024-17.856s-16-26.624-14.848-42.176zM584.256 832.64c-5.12 36.352-36.288 63.36-73.024 63.36s-67.84-27.008-73.088-63.36l-30.912-215.936c-82.752-4.736-149.376-15.040-156.992-31.36-22.72-48.576 226.624-329.344 260.864-329.344s283.776 280.768 261.12 329.344c-7.744 16.32-74.24 26.624-157.12 31.296l-30.848 216z" />
<glyph unicode="&#xe616;" d="M794.688 533.888l-180.288-192.64-24.192 483.84c-2.048 39.68-34.688 70.912-74.56 70.912h-7.296c-39.872 0-72.512-31.232-74.56-70.912l-24.192-483.84-180.288 192.64c-28.608 34.24-105.792 38.144-130.56-14.912-11.328-24.064-7.68-52.608 9.344-73.088l351.104-421.248c13.056-15.616 32.448-24.64 52.736-24.64 20.352-0.064 39.744 8.96 52.8 24.64 113.728 136.512 351.168 421.312 351.168 421.312 17.024 20.416 20.608 49.024 9.344 73.088-24.768 52.992-101.952 49.088-130.56 14.848z" />
<glyph unicode="&#xe617;" d="M435.2 317.632l-371.2 278.336v-467.968c0-35.392 28.608-64 64-64h768c35.392 0 64 28.608 64 64v467.968l-371.2-278.4c-45.504-34.112-108.096-34.112-153.6 0.064zM896 832h-768c-35.392 0-64-28.608-64-64v-51.968l409.6-307.2c22.72-17.088 54.016-17.088 76.736 0l409.6 307.2v51.968c0.064 35.392-28.544 64-63.936 64z" />
<glyph unicode="&#xe618;" d="M1024 448c0 282.752-229.248 512-512 512s-512-229.248-512-512 229.248-512 512-512 512 229.248 512 512zM576 160c0-17.664-14.336-32-32-32h-64c-17.664 0-32 14.336-32 32v64c0 17.664 14.336 32 32 32h64c17.664 0 32-14.336 32-32v-64zM545.344 367.552c-1.344-9.984-9.792-17.408-19.84-17.408h-26.112c-10.048 0-18.56 7.424-19.84 17.344l-49.472 377.856 4.8 15.808c3.776 4.352 9.216 6.848 15.040 6.848h124.224l14.976-6.784 4.8-15.744-48.576-377.92z" />
<glyph unicode="&#xe619;" d="M635.456 949.12c-6.080 6.912-14.848 10.88-24 10.88h-198.976c-9.152 0-17.92-3.968-24-10.88s-8.832-16.128-7.68-25.216l79.168-604.672c2.048-15.936 15.616-27.904 31.68-27.904h41.792c16.064 0 29.696 11.968 31.744 27.968l77.952 604.672c1.152 9.088-1.664 18.304-7.68 25.152zM415.36 39.232v-6.016c0-53.696 43.584-97.28 97.344-97.28 53.696 0 97.28 43.584 97.28 97.28v6.016c0 53.696-43.584 97.28-97.28 97.28-53.76 0-97.344-43.584-97.344-97.28z" />
<glyph unicode="&#xe61a;" d="M444.288 590.336l-219.136 242.176 177.792-5.888c29.952-2.688 68.608 32.32 55.168 69.376-6.144 16.896-21.44 28.736-39.36 30.4l-368.192 33.408c-13.696 1.28-27.264-3.712-36.928-13.376-9.728-9.664-14.72-23.232-13.44-36.928 10.88-119.36 33.408-368.256 33.408-368.256 1.664-17.92 13.504-33.216 30.4-39.36 37.056-13.44 72.064 25.28 69.376 55.168l-5.888 177.792 242.176-219.2c19.904-17.92 50.368-17.216 69.376 1.792l3.456 3.52c19.008 19.008 19.776 49.472 1.792 69.376zM990.4 354.752c-1.6 17.92-13.504 33.28-30.4 39.36-37.056 13.44-72.064-25.28-69.376-55.168l5.888-177.792-242.176 219.2c-19.904 17.92-50.368 17.152-69.376-1.856l-3.456-3.456c-19.008-19.008-19.776-49.472-1.792-69.376l219.2-242.176-177.792 5.888c-30.016 2.688-68.672-32.32-55.232-69.376 6.144-16.896 21.44-28.736 39.296-30.4l368.256-33.408c13.632-1.28 27.264 3.712 36.928 13.376 9.728 9.728 14.656 23.232 13.44 36.928-10.88 119.36-33.408 368.256-33.408 368.256zM369.664 380.288l-242.176-219.2 5.888 177.792c2.688 30.016-32.32 68.672-69.376 55.232-16.896-6.144-28.736-21.44-30.4-39.36l-33.408-368.192c-1.344-13.632 3.712-27.264 13.376-36.928 9.728-9.728 23.232-14.656 36.928-13.44 119.36 10.88 368.256 33.408 368.256 33.408 17.92 1.6 33.28 13.504 39.36 30.4 13.44 37.056-25.28 72.064-55.168 69.376l-177.792-5.888 219.2 242.176c17.92 19.904 17.216 50.368-1.792 69.376l-3.52 3.456c-19.008 19.008-49.472 19.776-69.376 1.792zM605.184 926.4c-17.856-1.664-33.152-13.504-39.296-30.4-13.44-37.056 25.28-72.064 55.168-69.376l177.792 5.888-219.136-242.176c-17.984-19.904-17.216-50.368 1.792-69.376l3.456-3.456c19.008-19.008 49.472-19.776 69.376-1.792l242.176 219.2-5.888-177.792c-2.688-30.016 32.32-68.672 69.376-55.232 16.896 6.144 28.736 21.44 30.4 39.36l33.408 368.192c1.28 13.632-3.712 27.264-13.376 36.928-9.728 9.728-23.232 14.656-36.928 13.44-119.36-10.88-368.32-33.408-368.32-33.408z" />
<glyph unicode="&#xe61b;" d="M512 800c-256 0-512-224-512-352s256-352 512-352 512 224 512 352-256 352-512 352zM512 208c-132.544 0-240 107.456-240 240s107.456 240 240 240 240-107.456 240-240-107.456-240-240-240zM656 448c0-79.529-64.471-144-144-144s-144 64.471-144 144c0 79.529 64.471 144 144 144s144-64.471 144-144z" />
<glyph unicode="&#xe61c;" d="M192-64v896c35.392 0 64 28.608 64 64s-28.608 64-64 64h-128c-35.392 0-64-28.608-64-64s28.608-64 64-64v-896h128zM1024 665.28c0 20.224-9.6 39.296-25.856 51.392-16.32 12.096-37.376 15.744-56.768 9.856-228.48-69.504-456.96 205.44-685.376 41.472 0-191.296 0-382.656 0-574.016 223.168 160.128 446.4-98.56 669.568-45.824 57.792 13.696 98.432 65.216 98.432 124.608 0 130.816 0 261.696 0 392.512z" />
<glyph unicode="&#xe61d;" d="M300.16 0c24.128 0 242.944 229.696 226.944 263.936-4.992 10.624-79.040 17.6-133.312 21.248l-22.656 546.816c-1.792 34.048-29.824 60.8-63.936 60.8h-6.272c-34.112 0-62.208-26.752-63.936-60.8l-22.656-546.816c-54.336-3.584-128.384-10.624-133.376-21.248-16-34.24 195.136-263.936 219.2-263.936zM723.84 896c-24.128 0-242.944-229.696-226.944-263.936 4.992-10.624 79.040-17.6 133.312-21.248l22.656-546.816c1.728-34.048 29.824-60.8 63.936-60.8h6.272c34.112 0 62.208 26.752 63.936 60.8l22.656 546.816c54.336 3.584 128.384 10.624 133.376 21.248 16 34.24-195.136 263.936-219.2 263.936z" />
<glyph unicode="&#xe61e;" d="M514.048 851.968c-20.416 16.96-48.96 20.608-73.024 9.28-53.056-24.768-49.152-101.952-14.912-130.56l192.64-180.288-483.84-24.192c-39.68-2.048-70.912-34.688-70.912-74.56v-7.232c0-39.936 31.232-72.576 70.912-74.624l483.84-24.192-192.64-180.288c-34.24-28.608-38.144-105.792 14.848-130.56 24.064-11.328 52.608-7.68 73.088 9.344l421.248 351.104c15.68 13.056 24.704 32.448 24.704 52.736 0.064 20.352-8.96 39.744-24.64 52.8-136.512 113.792-421.312 351.232-421.312 351.232z" />
<glyph unicode="&#xe61f;" d="M608-32v395.328c0 13.44 4.224 26.56 12.096 37.44l330.56 457.728c14.144 19.52 16.064 45.248 5.12 66.624-10.88 21.44-32.896 34.88-56.96 34.88h-773.632c-24.064 0-46.080-13.44-57.024-34.88-10.944-21.376-9.024-47.104 5.12-66.624l330.56-457.728c7.936-10.88 12.16-24 12.16-37.44v-395.328c0-17.664 14.336-32 32-32h128c17.664 0 32 14.336 32 32z" />
<glyph unicode="&#xe620;" d="M995.968 515.52l-158.272 19.84c-11.968 1.472-22.080 9.536-26.112 20.928-3.392 9.28-7.040 18.304-11.264 27.136-5.12 10.944-3.712 23.808 3.776 33.344l97.856 125.824c9.856 12.736 8.768 30.848-2.688 42.304l-50.496 50.496c-11.456 11.456-29.568 12.544-42.304 2.688l-125.824-97.856c-9.472-7.424-22.4-8.896-33.344-3.776-8.704 4.096-17.792 7.808-27.072 11.2-11.328 4.032-19.392 14.144-20.928 26.112l-19.84 158.272c-1.984 15.936-15.552 27.968-31.68 27.968h-71.552c-16.128 0-29.696-12.032-31.744-28.032l-19.776-158.208c-1.536-11.968-9.6-22.080-20.928-26.112-9.28-3.392-18.304-7.040-27.136-11.264-10.944-5.12-23.808-3.712-33.344 3.776l-125.824 97.856c-12.736 9.856-30.848 8.704-42.304-2.688l-50.496-50.496c-11.392-11.456-12.544-29.568-2.688-42.304l97.856-125.824c7.424-9.472 8.896-22.4 3.776-33.344-4.16-8.768-7.872-17.856-11.264-27.136-4.032-11.328-14.144-19.392-26.112-20.928l-158.272-19.84c-15.936-1.984-27.968-15.552-27.968-31.68v-71.488c0-16.128 12.032-29.76 28.032-31.744l158.272-19.84c11.968-1.472 22.080-9.536 26.112-20.928 3.392-9.28 7.040-18.304 11.264-27.136 5.12-10.944 3.712-23.808-3.776-33.344l-97.856-125.824c-9.856-12.736-8.768-30.848 2.688-42.304l50.496-50.496c11.456-11.456 29.568-12.544 42.304-2.688l125.824 97.856c9.472 7.424 22.4 8.896 33.344 3.776 8.832-4.16 17.856-7.872 27.136-11.264 11.392-4.032 19.456-14.208 20.928-26.112l19.84-158.272c1.92-15.936 15.488-27.968 31.616-27.968h71.552c16.128 0 29.76 12.032 31.744 28.032l19.84 158.272c1.472 11.968 9.536 22.080 20.928 26.112 9.28 3.392 18.304 7.040 27.136 11.264 10.944 5.12 23.808 3.712 33.344-3.776l125.824-97.856c12.736-9.856 30.848-8.768 42.304 2.688l50.496 50.496c11.456 11.456 12.544 29.568 2.688 42.304l-97.856 125.824c-7.424 9.472-8.896 22.4-3.776 33.344 4.16 8.832 7.872 17.856 11.264 27.136 4.032 11.392 14.208 19.456 26.112 20.928l158.272 19.84c15.872 1.92 27.904 15.488 27.904 31.616v71.552c0 16.128-12.032 29.696-28.032 31.744zM512 256c-105.984 0-192 86.016-192 192s86.016 192 192 192 192-86.016 192-192-86.016-192-192-192z" />
<glyph unicode="&#xe621;" d="M64 512h320c35.392 0 64 28.608 64 64v320c0 35.392-28.608 64-64 64h-320c-35.392 0-64-28.608-64-64v-320c0-35.392 28.608-64 64-64zM384-64c35.392 0 64 28.608 64 64v320c0 35.392-28.608 64-64 64h-320c-35.392 0-64-28.608-64-64v-320c0-35.392 28.608-64 64-64h320zM960 960h-320c-35.392 0-64-28.608-64-64v-320c0-35.392 28.608-64 64-64h320c35.392 0 64 28.608 64 64v320c0 35.392-28.608 64-64 64zM1024 320c0 35.392-28.608 64-64 64h-320c-35.392 0-64-28.608-64-64v-320c0-35.392 28.608-64 64-64h320c35.392 0 64 28.608 64 64v320z" />
<glyph unicode="&#xe622;" d="M52.992 298.24c48.64-7.552 98.368-11.584 148.352-14.208 35.136 36.16 78.4 58.88 120.64 74.432-17.28 41.856-25.984 79.808-25.984 113.472 0 97.344 42.88 173.568 110.72 212.096-6.336 70.016-45.952 123.968-118.72 123.968-79.488 0-120-64.448-120-144 0-37.824 20.992-90.624 53.888-145.6 3.712-6.528 4.352-14.464 1.472-21.44s-8.832-12.288-16.256-14.144c-83.008-21.312-158.848-44.736-190.72-117.952-6.016-13.696-5.248-29.248 1.856-42.368 7.232-12.992 20.16-22.016 34.752-24.256zM800.384 496.896c-3.008 6.848-2.496 14.72 1.28 21.248 33.152 57.792 54.4 119.232 54.4 145.856 0 79.552-40.384 144-120 144-72.64 0-112.256-53.952-118.656-123.904 67.904-38.592 110.656-114.752 110.656-212.096 0-32.32-11.904-73.344-27.904-112.768 42.88-15.616 86.848-38.464 122.496-75.2 49.984 2.624 99.776 6.656 148.352 14.208 14.72 2.24 27.52 11.264 34.752 24.256 7.104 13.056 7.872 28.672 1.856 42.368-31.872 73.28-108.032 96.768-191.104 118.080-7.232 1.856-13.248 6.912-16.128 13.952zM431.104 290.816c-83.008-21.312-158.848-44.736-190.72-117.952-6.016-13.696-5.248-29.248 1.856-42.368 7.232-12.992 20.096-22.016 34.752-24.256 76.608-11.84 155.136-18.24 235.008-18.24 80 0 158.4 6.4 235.008 18.24 14.72 2.24 27.52 11.264 34.752 24.256 7.104 13.056 7.872 28.672 1.856 42.368-31.872 73.28-108.032 96.768-191.104 118.080-7.232 1.856-13.248 6.912-16.128 13.952-3.008 6.848-2.496 14.72 1.28 21.248 33.152 57.792 54.4 119.232 54.4 145.856 0 79.552-40.384 144-120 144-79.488 0-120-64.448-120-144 0-37.824 20.992-90.624 53.888-145.6 3.776-6.528 4.352-14.464 1.472-21.44s-8.896-12.288-16.32-14.144z" />
<glyph unicode="&#xe623;" d="M715.904 832c-67.392 0-131.776-27.264-177.984-75.456-9.792-10.24-18.176-21.696-25.92-33.28-7.744 11.648-16.128 23.040-25.856 33.344-46.272 48.128-110.656 75.392-178.048 75.392-286.784 0-425.408-443.2 174.528-753.28 18.432-9.472 40.32-9.472 58.752 0 612.928 316.096 451.648 753.28 174.528 753.28z" />
<glyph unicode="&#xe624;" d="M896 832h-768c-35.392 0-64-28.608-64-64v-640c0-35.392 28.608-64 64-64h768c35.392 0 64 28.608 64 64v640c0 35.392-28.608 64-64 64zM352 704c52.992 0 96-43.008 96-96s-43.008-96-96-96-96 43.008-96 96 43.008 96 96 96zM192 192l146.752 146.752c25.024 25.024 65.472 25.024 90.496 0l40.896-40.896 12.416-1.024 2.944 12.032-16.192 32.448 61.44 61.44c25.024 25.024 65.472 25.024 90.496 0l210.752-210.752h-640z" />
<glyph unicode="&#xe625;" d="M512-64c282.752 0 512 229.248 512 512s-229.248 512-512 512-512-229.248-512-512 229.248-512 512-512zM448 736c0 17.664 14.336 32 32 32h64c17.664 0 32-14.336 32-32v-64c0-17.664-14.336-32-32-32h-64c-17.664 0-32 14.336-32 32v64zM416 480c0 17.664 14.336 32 32 32h96c17.664 0 32-14.336 32-32v-288c17.664 0 32-14.336 32-32s-14.336-32-32-32h-128c-17.664 0-32 14.336-32 32s14.336 32 32 32v256c-17.664 0-32 14.336-32 32z" />
<glyph unicode="&#xe626;" d="M728 82.88c66.624 31.424 66.624 732.288 0 763.776-71.168 33.216-481.92-331.712-481.92-381.824 0-50.176 410.752-415.040 481.92-381.952z" />
<glyph unicode="&#xe627;" d="M126.656 0c35.392 0 64 28.608 64 64v448c0 35.392-28.608 64-64 64s-64-28.608-64-64v-448c0-35.392 28.672-64 64-64zM688.96 827.392c-1.152 17.216-0.96 34.304-11.904 47.616-10.88 13.312-27.2 20.992-44.352 20.992h-3.392c-28.736 0-53.888-19.136-61.568-46.784-29.696-106.56-148.288-232-243.328-255.808l-21.248-5.312c-28.48-7.104-48.512-32.704-48.512-62.080v-398.016c79.104 0 145.472-10.88 179.648-26.56 81.408-37.44 93.76-37.44 268.352-37.44 141.376 0 256 114.624 256 256 0 137.792 32 256-128 256h-192c0 0 58.688 120 50.304 251.392z" />
<glyph unicode="&#xe628;" d="M512 810.048l-113.152-113.152-0.96-1.216v0.064c-98.88-100.096-98.624-261.248 0.96-360.896 25.024-25.024 65.472-25.024 90.496 0s25.024 65.472 0 90.496c-49.984 49.984-49.984 131.072 0 180.992l113.088 113.088c49.984 49.984 131.072 49.984 180.992 0 49.984-49.92 49.984-131.008 0-180.992l-41.664-41.664c20.416-52.16 25.856-108.416 17.856-163.2l114.432 114.432c99.968 99.968 99.968 262.080 0 362.048s-262.080 99.968-362.048 0zM512 85.952l113.152 113.216 1.024 1.216v-0.064c98.88 100.096 98.624 261.248-1.024 360.896-25.024 25.024-65.472 25.024-90.496 0s-25.024-65.472 0-90.496c49.984-49.984 49.984-131.072 0-180.992l-113.088-113.088c-49.984-49.984-131.072-49.984-180.992 0-49.984 49.92-49.984 131.008 0 180.992l41.728 41.728c-20.544 52.032-25.984 108.288-17.984 163.008l-114.368-114.368c-99.968-99.968-99.968-262.080 0-362.048s262.080-99.968 362.048 0z" />
<glyph unicode="&#xe629;" d="M192 448c0-35.346-28.654-64-64-64s-64 28.654-64 64c0 35.346 28.654 64 64 64s64-28.654 64-64zM192 704c0-35.346-28.654-64-64-64s-64 28.654-64 64c0 35.346 28.654 64 64 64s64-28.654 64-64zM192 192c0-35.346-28.654-64-64-64s-64 28.654-64 64c0 35.346 28.654 64 64 64s64-28.654 64-64zM896 768h-512c-35.392 0-64-28.608-64-64s28.608-64 64-64h512c35.392 0 64 28.608 64 64s-28.608 64-64 64zM896 512h-512c-35.392 0-64-28.608-64-64s28.608-64 64-64h512c35.392 0 64 28.608 64 64s-28.608 64-64 64zM896 256h-512c-35.392 0-64-28.608-64-64s28.608-64 64-64h512c35.392 0 64 28.608 64 64s-28.608 64-64 64z" />
<glyph unicode="&#xe62a;" d="M21.696 594.24c-5.76-19.392-2.048-40.32 10.048-56.512s31.040-25.728 51.328-25.728c28.288 0 53.248 18.56 61.312 45.76 47.232 158.464 193.728 274.24 367.616 274.24 212.032 0 384-171.968 384-384s-171.968-384-384-384c-173.888 0-320.448 115.776-367.616 274.304-8.064 27.072-33.024 45.696-61.312 45.696-20.288 0-39.232-9.536-51.392-25.728-12.032-16.192-15.744-37.12-9.984-56.512 62.912-211.52 258.432-365.76 490.304-365.76 282.752 0 512 229.248 512 512s-229.248 512-512 512c-231.872 0-427.392-154.24-490.304-365.76z" />
<glyph unicode="&#xe62b;" d="M512-64c64 0 384 320 384 640 0 212.032-172.032 384-384 384-212.096 0-384-171.968-384-384 0-320 320-640 384-640zM320 576c0 105.984 85.888 192 192 192 105.984 0 192-86.016 192-192s-86.016-192-192-192c-106.112 0-192 86.016-192 192z" />
<glyph unicode="&#xe62c;" d="M512 960c-136.384 0-246.848-110.528-246.848-246.848v-201.088c-30.592 0-61.824 0-91.456 0-32.256 0-60.736-21.184-70.080-52.096-41.472-138.944-40.64-309.248 2.56-448.128 8.384-26.88 31.424-46.592 59.328-50.688 228.288-33.536 464.704-33.536 692.992 0 27.904 4.096 50.944 23.808 59.328 50.688 43.2 138.88 44.032 309.184 2.56 448.128-9.344 30.976-37.76 52.096-70.080 52.096-29.632 0-60.864 0-91.456 0v201.088c0 136.32-110.464 246.848-246.848 246.848zM411.456 713.152c0 55.424 45.12 100.544 100.544 100.544s100.544-45.12 100.544-100.544v-201.088c-67.008 0-134.144 0-201.152 0v201.088z" />
<glyph unicode="&#xe62d;" d="M896 768h-768c-35.392 0-64-28.608-64-64s28.608-64 64-64h768c35.392 0 64 28.608 64 64s-28.608 64-64 64zM896 512h-768c-35.392 0-64-28.608-64-64s28.608-64 64-64h768c35.392 0 64 28.608 64 64s-28.608 64-64 64zM896 256h-768c-35.392 0-64-28.608-64-64s28.608-64 64-64h768c35.392 0 64 28.608 64 64s-28.608 64-64 64z" />
<glyph unicode="&#xe62e;" d="M512 960c-282.752 0-512-229.248-512-512s229.248-512 512-512 512 229.248 512 512-229.248 512-512 512zM831.808 422.144c0-11.392-8.384-20.992-19.648-22.656h-0.128c-199.104-28.416-401.28-28.416-600.384 0-11.264 1.664-19.648 11.264-19.648 22.656v51.712c0 11.392 8.384 20.992 19.648 22.656 199.104 28.48 401.344 28.48 600.576 0 11.264-1.6 19.648-11.264 19.648-22.656v-51.712z" />
<glyph unicode="&#xe62f;" d="M932.48 515.968c-278.912 39.808-562.048 39.808-841.024 0-15.744-2.304-27.456-15.808-27.456-31.744v-72.512c0-15.936 11.712-29.44 27.52-31.68 278.912-39.808 562.048-39.808 841.024 0 15.744 2.304 27.456 15.808 27.456 31.744v72.448c0 15.936-11.712 29.44-27.52 31.744z" />
<glyph unicode="&#xe630;" d="M673.536 241.152l-97.536-104.192v622.080l97.536-104.192c16.32-19.648 60.416-21.696 74.688 8.512 6.4 13.888 4.288 30.144-5.44 41.856l-200.576 240.64c-7.488 8.96-18.496 14.144-30.144 14.144-11.712 0.064-22.784-5.12-30.272-14.144-65.024-77.952-200.576-240.576-200.576-240.576-9.792-11.776-11.84-28.032-5.44-41.92 14.272-30.208 58.368-28.096 74.688-8.512l97.536 104.192v-622.144l-97.536 104.192c-16.32 19.648-60.416 21.696-74.688-8.512-6.4-13.888-4.288-30.144 5.44-41.856l200.576-240.64c7.488-8.896 18.496-14.080 30.144-14.080 11.712-0.064 22.784 5.12 30.272 14.144 65.088 78.016 200.64 240.64 200.64 240.64 9.728 11.776 11.84 28.032 5.44 41.856-14.272 30.144-58.432 28.096-74.752 8.512z" />
<glyph unicode="&#xe631;" d="M954.432 352c-20.672 0-40.32 4.16-58.432 11.264v-299.264h-768v768h299.264c-7.104 18.112-11.264 37.76-11.264 58.432v5.568c0 22.72 4.928 44.352 13.568 64h-365.568c-35.392 0-64-28.608-64-64v-896c0-35.392 28.608-64 64-64h896c35.392 0 64 28.608 64 64v365.568c-19.648-8.64-41.28-13.568-64-13.568h-5.568zM960 960h-384c-35.392 0-64-28.608-64-64v-5.568c0-33.088 25.28-60.736 58.176-63.744l150.848-13.696-309.12-393.408c-15.872-20.352-14.144-49.344 4.096-67.584 9.856-9.856 22.912-14.912 36.032-14.912 11.072 0 22.208 3.584 31.488 10.88l393.408 309.12 13.696-150.848c3.072-32.96 30.72-58.24 63.808-58.24h5.568c35.392 0 64 28.608 64 64v384c0 35.392-28.608 64-64 64z" />
<glyph unicode="&#xe632;" d="M608 768v192h-480c-35.392 0-64-28.608-64-64v-896c0-35.392 28.608-64 64-64h768c35.392 0 64 28.608 64 64v608h-192c-88.256 0-160 71.744-160 160zM832 320l-192-192-192 192 192 192 192-192zM192 320c0 105.984 85.952 192 192 192 46.272 0 88.064-17.024 121.28-44.224l-147.776-147.776 147.776-147.776c-33.216-27.2-75.008-44.224-121.28-44.224-106.048 0-192 86.016-192 192zM768 704h192l-256 256v-192c0-35.392 28.608-64 64-64z" />
<glyph unicode="&#xe633;" d="M512 86.016c72.768 72.768 145.92 145.984 203.648 203.648 57.792 57.728 65.664 160.64 0 226.24-62.528 62.528-163.776 62.528-226.24 0l-158.4-158.4c-25.088-25.024-25.088-65.472 0-90.496 25.024-25.024 65.472-25.024 90.496 0l158.4 158.4c12.48 12.48 32.768 12.48 45.248 0s12.48-32.768 0-45.248l-203.648-203.648c-49.984-49.984-131.072-49.984-180.992 0-49.984 49.984-49.984 131.008 0 180.992l361.984 362.048c49.984 49.92 131.072 49.92 180.992 0 49.984-49.984 49.984-131.072 0-181.056l-2.24-2.24c30.080-40.256 45.504-88.064 44.864-136.128l47.936 47.872c99.968 99.968 99.968 262.144 0 362.048-99.968 99.968-262.144 99.968-362.048 0l-362.048-362.048c-99.968-99.904-99.968-262.016 0-361.984 100.032-100.032 262.080-100.032 362.048 0z" />
<glyph unicode="&#xe634;" d="M804.992 594.688l-146.304 146.304c-200.256-173.76-381.824-368.192-541.248-580.672l-53.44-160.32 160.32 53.44c212.48 159.424 406.912 340.992 580.672 541.248zM888.576 884.992c-13.312 13.376-34.496 14.656-49.536 3.264-31.488-24.192-62.656-48.96-93.44-73.92l132.736-132.736c25.024 30.784 49.728 61.952 73.92 93.44 11.456 15.040 10.112 36.224-3.264 49.536l-60.416 60.416z" />
<glyph unicode="&#xe635;" d="M800 704c0 106.048-53.952 192-160 192-80 0-130.112-49.024-150.016-118.592 91.776-41.856 150.016-139.392 150.016-265.408 0-45.248-20.992-109.632-48.192-169.6 76.352-24 160.576-63.232 214.784-142.272 49.344 3.904 98.368 8.768 146.688 16.192 19.648 3.008 36.672 14.976 46.272 32.384s10.56 38.272 2.624 56.448c-42.56 97.728-144 129.088-254.848 157.44-9.664 2.496-17.664 9.344-21.568 18.56s-3.328 19.712 1.664 28.352c44.224 77.056 72.576 158.976 72.576 194.496zM70.656 24.32c102.208-15.808 206.784-24.32 313.344-24.32s211.136 8.512 313.344 24.32c19.648 3.008 36.672 14.976 46.272 32.384s10.56 38.272 2.624 56.448c-42.56 97.728-144 129.088-254.848 157.44-9.664 2.496-17.664 9.344-21.568 18.56s-3.328 19.712 1.664 28.352c44.16 77.056 72.512 158.976 72.512 194.496 0 106.048-53.952 192-160 192s-160-85.952-160-192c0-50.432 28.032-120.832 71.744-194.176 5.12-8.64 5.952-19.264 2.048-28.544-3.84-9.344-11.904-16.32-21.632-18.816-110.656-28.416-211.904-59.712-254.4-157.312-7.936-18.176-6.976-38.976 2.56-56.448 9.6-17.408 26.752-29.376 46.336-32.384z" />
<glyph unicode="&#xe636;" d="M62.464 88.32c102.144-15.808 206.72-24.32 313.28-24.32s211.136 8.512 313.344 24.32c19.648 3.008 36.672 14.976 46.272 32.384s10.56 38.272 2.624 56.448c-42.56 97.728-144 129.088-254.848 157.44-9.664 2.496-17.664 9.344-21.568 18.56-3.968 9.152-3.392 19.648 1.6 28.352 44.224 77.056 72.576 158.976 72.576 194.496 0 106.048-53.952 192-160 192s-160-85.952-160-192c0-50.432 28.032-120.832 71.744-194.176 5.12-8.64 5.952-19.264 2.048-28.544-3.84-9.344-11.904-16.32-21.632-18.816-110.656-28.416-211.904-59.712-254.4-157.312-7.936-18.176-6.976-38.976 2.56-56.448 9.6-17.408 26.752-29.376 46.4-32.384zM759.744 704h-112c-8.832 0-16-7.168-16-16v-96c0-8.832 7.168-16 16-16h112v-112c0-8.832 7.168-16 16-16h96c8.832 0 16 7.168 16 16v112h112c8.832 0 16 7.168 16 16v96c0 8.832-7.168 16-16 16h-112v112c0 8.832-7.168 16-16 16h-96c-8.832 0-16-7.168-16-16v-112z" />
<glyph unicode="&#xe637;" d="M404.16 366.464c-110.656-28.416-211.904-59.712-254.4-157.312-7.936-18.176-6.976-38.976 2.56-56.448 9.536-17.344 26.688-29.376 46.336-32.384 102.208-15.808 206.784-24.32 313.344-24.32s211.136 8.512 313.344 24.32c19.648 3.008 36.672 14.976 46.272 32.384s10.56 38.272 2.624 56.448c-42.56 97.728-144 129.088-254.848 157.44-9.792 2.496-17.792 9.28-21.632 18.56-3.904 9.152-3.328 19.648 1.664 28.352 44.224 77.056 72.576 158.976 72.576 194.496 0 106.048-53.952 192-160 192s-160-85.952-160-192c0-50.432 28.032-120.832 71.744-194.176 5.12-8.64 5.952-19.264 2.048-28.544-3.776-9.344-11.84-16.32-21.632-18.816z" />
<glyph unicode="&#xe638;" d="M896 896c0 35.392-28.608 64-64 64h-640c-35.392 0-64-28.608-64-64v-896c0-35.392 28.608-64 64-64h640c35.392 0 64 28.608 64 64v896zM512 0c-35.392 0-64 28.608-64 64s28.608 64 64 64 64-28.608 64-64-28.608-64-64-64zM768 192h-512v640h512v-640z" />
<glyph unicode="&#xe639;" d="M928.896 188.736c7.296 27.072-3.776 55.808-27.392 70.784l-184.192 117.312c-7.296 4.608-16.128 6.144-24.576 4.096-8.384-1.92-15.616-7.232-20.032-14.656-35.776-59.264-118.784-108.864-235.008 7.36-116.224 116.288-66.624 199.36-7.36 235.136 7.36 4.352 12.672 11.584 14.592 20.032 1.984 8.384 0.512 17.216-4.096 24.512l-117.248 184.192c-15.104 23.68-43.776 34.752-70.848 27.392-160.384-43.712-279.808-297.92 49.216-626.944 328.96-328.96 583.232-209.536 626.944-49.216z" />
<glyph unicode="&#xe63a;" d="M0 448c0-282.752 229.248-512 512-512s512 229.248 512 512-229.248 512-512 512-512-229.248-512-512zM192 473.856c0 11.392 8.384 20.992 19.648 22.656 77.248 11.072 155.072 16.512 232.896 19.008 2.432 77.76 7.872 155.456 18.944 232.64 1.6 11.264 11.264 19.648 22.656 19.648h51.776c11.392 0 20.992-8.384 22.656-19.648v-0.128c11.008-77.184 16.448-154.88 18.944-232.576 77.824-2.496 155.52-7.936 232.768-19.008 11.264-1.6 19.648-11.264 19.648-22.656v-51.776c0-11.392-8.384-20.992-19.648-22.656h-0.128c-77.184-11.008-154.88-16.448-232.64-18.944-2.432-77.824-7.872-155.584-18.944-232.896-1.728-11.136-11.328-19.52-22.72-19.52h-51.712c-11.392 0-20.992 8.384-22.656 19.648-11.072 77.248-16.512 155.072-19.008 232.96-77.824 2.368-155.52 7.808-232.768 18.88-11.328 1.664-19.712 11.264-19.712 22.656v51.712z" />
<glyph unicode="&#xe63b;" d="M932.48 515.968c-107.712 15.36-216 24.64-324.352 28.16-3.584 108.352-12.8 216.704-28.16 324.352-2.304 15.808-15.808 27.52-31.744 27.52h-72.448c-15.936 0-29.44-11.712-31.68-27.52-15.36-107.712-24.64-216-28.16-324.352-108.352-3.584-216.704-12.8-324.352-28.16-15.872-2.304-27.584-15.808-27.584-31.744v-72.512c0-15.936 11.712-29.44 27.52-31.68 107.712-15.36 216-24.64 324.352-28.16 3.584-108.352 12.8-216.704 28.16-324.352 2.304-15.808 15.808-27.52 31.744-27.52h72.512c15.936 0 29.44 11.712 31.68 27.52 15.36 107.712 24.64 216 28.16 324.352 108.352 3.584 216.704 12.8 324.352 28.16 15.808 2.304 27.52 15.808 27.52 31.744v72.448c0 15.936-11.712 29.44-27.52 31.744z" />
<glyph unicode="&#xe63c;" d="M512 960c-282.752 0-512-229.248-512-512s229.248-512 512-512 512 229.248 512 512-229.248 512-512 512zM576 160c0-17.664-14.336-32-32-32h-64c-17.664 0-32 14.336-32 32v64c0 17.664 14.336 32 32 32h64c17.664 0 32-14.336 32-32v-64zM727.488 582.912c0-113.728-81.28-165.312-181.504-182.336l-4.416-20.224c-2.688-12.224-13.568-20.928-26.048-20.928h-28.8c-13.12 0-24.32 9.536-26.368 22.528l-14.528 91.776 4.544 4.544c114.624 4.416 166.976 41.472 166.976 100.928v1.92c0 50.624-38.848 85.76-103.872 85.76-48.064 0-89.024-17.984-126.656-51.392-11.904-10.496-30.016-9.664-40.896 1.856l-28.352 30.336c-10.944 11.712-10.496 30.016 1.024 41.152 49.408 47.872 112.064 79.168 197.632 79.168 126.4 0 211.264-70.4 211.264-183.168v-1.92z" />
<glyph unicode="&#xe63d;" d="M846.272 663.936v3.008c0 180.416-135.808 293.056-337.984 293.056-136.896 0-237.184-50.048-316.288-126.72-18.368-17.856-19.136-47.168-1.536-65.856l45.44-48.448c17.344-18.496 46.336-19.84 65.344-3.008 60.224 53.376 125.76 82.176 202.624 82.176 104 0 166.208-56.192 166.208-137.152v-3.008c0-95.104-83.776-154.368-267.2-161.536l-7.232-7.168 23.68-165.44c3.008-20.992 20.992-36.608 42.24-36.608h43.84c20.8 0 38.656 14.976 42.048 35.52l8.448 49.536c160.384 27.2 290.368 109.696 290.368 291.648zM479.424 133.952c-53.44 0-96.832-43.392-96.832-96.832v-4.288c0.064-53.44 43.392-96.832 96.832-96.832s96.832 43.392 96.832 96.832v4.288c0 53.44-43.392 96.832-96.832 96.832z" />
<glyph unicode="&#xe63e;" d="M541.44 433.984c10.688-49.984 361.152-119.488 387.008-99.84 26.048 19.648 53.888 375.68 8.832 399.488-13.44 7.040-52.416-30.912-103.296-77.632-68.416 105.664-186.752 176-321.984 176-212.032 0-384-171.968-384-384s171.968-384 384-384c90.88 0 174.336 31.552 240.128 84.288 10.752 8.64 17.344 21.504 18.048 35.264 0.704 13.824-4.48 27.264-14.336 36.992-17.792 17.472-45.376 19.968-65.984 5.888-127.296-87.232-326.080-48.768-371.904 123.584-57.408 215.936 220.928 348.288 340.032 170.56-66.176-41.216-120.128-69.568-116.544-86.592z" />
<glyph unicode="&#xe63f;" d="M529.344 604.608c-5.312 90.624-16.704 163.136-34.688 171.648-54.080 25.216-366.656-252.48-366.656-290.624s312.576-315.776 366.656-290.624c15.040 7.104 25.6 59.904 31.744 130.368 222.016 1.856 229.184-71.104 181.632-193.344l2.368-11.392 11.456-2.496c39.168 14.976 119.616 54.848 156.672 139.776 56.384 129.088-15.104 305.728-349.184 346.688z" />
<glyph unicode="&#xe640;" d="M777.856 464.768c0 50.112-410.752 414.976-481.92 381.888-66.624-31.424-66.624-732.288 0-763.776 71.168-33.152 481.92 331.776 481.92 381.888z" />
<glyph unicode="&#xe641;" d="M941.248 109.248l-226.56 250.24c33.344 53.76 53.312 116.608 53.312 184.512 0 194.432-157.568 352-352 352s-352-157.568-352-352 157.568-352 352-352c67.904 0 130.752 19.968 184.512 53.312l250.24-226.56c25.024-25.024 65.472-25.024 90.496 0s25.024 65.472 0 90.496zM192 544c0 123.52 100.48 224 224 224s224-100.48 224-224-100.48-224-224-224-224 100.48-224 224z" />
<glyph unicode="&#xe642;" d="M956.224 408.576c-22.528-19.136-42.88-35.52-61.696-49.92-2.048-65.856-6.592-125.12-14.016-156.032-5.504-22.784-20.864-40.448-39.232-44.928-86.848-21.248-210.688-33.408-339.648-33.408-123.84 0-240.192 11.648-319.552 31.936-17.984 4.544-33.152 22.080-38.592 44.416-20.096 83.2-20.48 371.712-0.64 454.144 5.44 22.528 20.672 39.936 38.976 44.48 37.312 9.344 83.008 16.448 132.672 21.76 49.344 47.104 124.672 92.352 241.408 118.912 1.024 7.040 2.56 12.544 3.776 19.2-15.36 0.448-30.912 0.96-46.528 0.96-132.032 0-264.448-12.224-362.304-36.736-64.64-16.128-115.712-69.632-132.288-138.752-24.576-101.696-24.448-410.432 0.64-514.112 16.704-68.736 67.328-122.112 131.456-138.432 94.848-24.256 222.656-35.904 351.104-35.904 134.848 0 270.656 12.8 370.048 37.12 65.088 15.872 116.48 69.696 133.248 139.328 13.824 57.856 20.032 181.056 18.56 296.064-19.072-17.984-41.024-37.76-67.392-60.096zM690.944 898.368c-16.128-7.616-26.368-72.704-31.104-154.112-300.16-36.736-364.352-195.456-313.728-311.424 33.344-76.16 105.536-112 140.736-125.504l3.456-0.64 6.784 2.816 2.112 10.24c-42.176 108.48-36.352 173.76 156.032 173.76h7.168c5.504-63.36 14.912-110.72 28.48-117.12l7.552-1.408c64.832 0 321.792 229.696 321.792 262.464s-256.768 262.4-321.664 262.4l-7.616-1.472z" />
<glyph unicode="&#xe643;" d="M214.4 52.224c51.136-13.12 150.912-22.272 233.344-28.032 16.64-1.28 33.024 4.608 45.184 16s19.072 27.328 19.072 44.032v4.352c0 33.6-25.92 61.376-59.456 63.744-74.816 5.376-165.248 13.248-206.656 23.872-17.92 4.672-33.088 22.208-38.528 44.544-20.096 83.136-20.48 371.648-0.64 454.144 5.44 22.464 20.736 39.872 39.040 44.48 42.048 10.496 132.416 18.496 206.912 24 33.472 2.496 59.328 30.272 59.328 63.744v8.768c0 15.488-6.528 30.4-17.856 41.024s-26.624 16-42.112 14.848c-83.072-5.888-185.408-15.232-237.376-28.224-64.64-16.128-115.712-69.632-132.288-138.752-24.576-101.632-24.448-410.368 0.64-514.112 16.64-68.8 67.264-122.176 131.392-138.432zM630.656 709.76c-16.32-7.616-26.624-74.24-31.36-156.992l-215.936-30.912c-36.352-5.248-63.36-36.352-63.36-73.088s27.008-67.904 63.36-73.024l215.936-30.848c4.672-82.88 14.976-149.376 31.296-157.12 48.64-22.656 329.408 226.752 329.408 260.992s-280.768 283.584-329.344 260.992z" />
<glyph unicode="&#xe644;" d="M896.064 832h-640c-35.392 0-64-28.608-64-64s28.608-64 64-64h640c35.392 0 64 28.608 64 64s-28.608 64-64 64zM896.064 576h-384c-35.392 0-64-28.608-64-64s28.608-64 64-64h384c35.392 0 64 28.608 64 64s-28.608 64-64 64zM896.064 320h-256c-35.392 0-64-28.608-64-64s28.608-64 64-64h256c35.392 0 64 28.608 64 64s-28.608 64-64 64zM256.064 576c-35.392 0-64-28.608-64-64v-193.344c-66.432-2.88-121.344-10.432-127.104-22.656-16-34.304 163.136-232 187.2-232 24.128 0 210.944 197.696 194.944 231.936-5.76 12.224-60.608 19.84-127.040 22.656v193.408c0 35.392-28.608 64-64 64z" />
<glyph unicode="&#xe645;" d="M235.584 11.968l16.768-1.856c54.4 25.408 180.608 84.48 259.712 123.776 79.040-39.232 205.312-98.304 259.712-123.776l16.768 1.856 6.848 16.064c-5.76 61.312-19.328 201.92-31.424 293.12 63.36 67.712 154.56 178.624 192.96 225.92l3.072 17.088-12.288 11.712c-56.768 13.12-189.312 43.2-278.080 58.432-41.664 85.184-112.768 210.56-143.168 263.424l-14.464 8.512-14.464-8.512c-30.4-52.864-101.504-178.24-143.168-263.424-88.768-15.232-221.312-45.312-278.080-58.432l-12.288-11.776 3.2-17.088c38.4-47.296 129.536-158.272 192.96-225.92-12.096-91.2-25.664-231.808-31.424-293.12l6.848-16z" />
<glyph unicode="&#xe646;" d="M896 608h-768c0.192-174.976 15.744-437.952 27.776-612.416 2.304-33.664 30.144-59.584 63.872-59.584h584.768c33.6 0 61.568 25.984 63.872 59.584 11.968 174.592 27.52 437.44 27.712 612.416zM928.256 704.128c-1.536 71.104-59.584 127.872-130.752 127.872h-104.128l-12.416 74.56c-5.184 30.784-31.872 53.44-63.168 53.44h-211.584c-31.296 0-57.984-22.656-63.168-53.44l-12.416-74.56h-104.128c-71.104 0-129.216-56.832-130.752-127.872 0-0.064 0-0.064 0-0.128 0 0 35.072 0 832.512 0 0 0.064 0 0.064 0 0.128zM448 864h128v-32h-128v32z" />
<glyph unicode="&#xe647;" d="M893.76 248.832c33.216 71.168-331.712 481.92-381.824 481.92-50.048 0-415.040-410.752-381.952-481.92 31.424-66.624 732.352-66.624 763.776 0z" />
<glyph unicode="&#xe648;" d="M907.776 150.4c13.12 51.136 22.272 150.912 28.032 233.344 1.28 16.64-4.608 33.024-16 45.184s-27.328 19.072-44.032 19.072h-4.352c-33.6 0-61.376-25.92-63.744-59.456-5.376-74.816-13.248-165.248-23.872-206.656-4.608-17.984-22.144-33.152-44.48-38.592-83.136-20.096-371.648-20.48-454.144-0.64-22.528 5.44-39.872 20.672-44.48 38.976-10.496 42.048-18.496 132.416-24 206.912-2.56 33.6-30.336 59.456-63.808 59.456h-8.768c-15.488 0-30.4-6.528-41.024-17.856s-16-26.624-14.848-42.112c5.888-83.072 15.232-185.344 28.224-237.376 16.128-64.64 69.632-115.712 138.752-132.288 101.632-24.576 410.368-24.448 514.112 0.64 68.8 16.64 122.176 67.264 138.432 131.392zM438.144 319.36c5.248-36.352 36.352-63.36 73.088-63.36s67.904 27.008 73.024 63.36l30.848 215.936c82.88 4.672 149.376 14.976 157.12 31.296 22.656 48.64-226.752 329.408-260.992 329.408s-283.584-280.768-260.992-329.344c7.616-16.32 74.24-26.624 156.992-31.296l30.912-216z" />
<glyph unicode="&#xe649;" d="M564.8 871.296c-13.056 15.68-32.448 24.704-52.736 24.704-20.352 0.064-39.744-8.96-52.8-24.64-113.792-136.512-351.232-421.312-351.232-421.312-16.96-20.416-20.608-48.96-9.28-73.024 24.768-52.992 101.952-49.152 130.56-14.848l180.288 192.576 24.192-483.84c2.048-39.68 34.688-70.912 74.56-70.912h7.232c39.872 0 72.576 31.232 74.56 70.912l24.256 483.84 180.288-192.64c28.608-34.24 105.792-38.144 130.56 14.848 11.328 24.064 7.68 52.608-9.344 73.088l-351.104 421.248z" />
<glyph unicode="&#xe64a;" d="M82.752 18.752c25.024-25.024 65.472-25.024 90.496 0l338.752 306.752 338.752-306.752c25.024-25.024 65.472-25.024 90.496 0s25.024 65.472 0 90.496l-306.752 338.752 306.752 338.752c25.024 25.024 25.024 65.472 0 90.496s-65.472 25.024-90.496 0l-338.752-306.752-338.752 306.752c-25.024 25.024-65.472 25.024-90.496 0s-25.024-65.472 0-90.496l306.752-338.752-306.752-338.752c-25.024-25.024-25.024-65.472 0-90.496z" />
</font>
</defs>
</svg>
