<?xml version="1.0" encoding="utf-8"?>
<!-- Generator: Adobe Illustrator 16.0.0, SVG Export Plug-In . SVG Version: 6.00 Build 0)  -->
<!DOCTYPE svg PUBLIC "-//W3C//DTD SVG 1.1//EN" "http://www.w3.org/Graphics/SVG/1.1/DTD/svg11.dtd">
<svg version="1.1" id="Layer_1" xmlns="http://www.w3.org/2000/svg" xmlns:xlink="http://www.w3.org/1999/xlink" x="0px" y="0px"
	 width="16px" height="16px" viewBox="0 0 16 16" style="enable-background:new 0 0 16 16;" xml:space="preserve">
<style type="text/css">
<![CDATA[
	.st0{fill:#231F20;}
	.st1{fill:none;}
]]>
</style>
<path class="st0" d="M12.571,5.022V4.571C12.571,2.047,10.524,0,8,0S3.429,2.047,3.429,4.571v0.451c0,3.331-1.267,4.749-2.54,6.352
	c-0.23,0.289-0.305,0.672-0.203,1.026c0.103,0.355,0.369,0.639,0.719,0.763c1.31,0.462,2.802,0.754,4.346,0.905
	C5.921,15.161,6.859,16,8,16s2.079-0.839,2.25-1.932c1.544-0.151,3.036-0.443,4.346-0.905c0.35-0.124,0.616-0.407,0.719-0.763
	c0.102-0.354,0.026-0.737-0.203-1.026C13.838,9.771,12.571,8.354,12.571,5.022z"/>
</svg>
