<?xml version="1.0" encoding="utf-8"?>
<!-- Generator: Adobe Illustrator 16.0.0, SVG Export Plug-In . SVG Version: 6.00 Build 0)  -->
<!DOCTYPE svg PUBLIC "-//W3C//DTD SVG 1.1//EN" "http://www.w3.org/Graphics/SVG/1.1/DTD/svg11.dtd">
<svg version="1.1" xmlns="http://www.w3.org/2000/svg" xmlns:xlink="http://www.w3.org/1999/xlink" x="0px" y="0px" width="16px"
	 height="16px" viewBox="0 0 16 16" style="enable-background:new 0 0 16 16;" xml:space="preserve">
<style type="text/css">
<![CDATA[
	.st0{fill:#231F20;}
	.st1{fill:none;}
	.st2{display:none;}
]]>
</style>
<g id="Layer_1">
	<path class="st0" d="M14.57,6.938c-1.059-0.151-2.121-0.264-3.186-0.342c0.697-0.807,1.37-1.637,2.012-2.491
		c0.15-0.2,0.13-0.479-0.047-0.654L12.549,2.65c-0.176-0.177-0.454-0.196-0.654-0.047c-0.854,0.642-1.684,1.314-2.491,2.012
		C9.325,3.551,9.213,2.488,9.062,1.43C9.026,1.183,8.815,1,8.566,1H7.434c-0.249,0-0.46,0.183-0.495,0.43
		C6.787,2.488,6.675,3.551,6.597,4.615C5.789,3.918,4.961,3.246,4.105,2.604c-0.2-0.15-0.479-0.13-0.654,0.046L2.65,3.451
		C2.475,3.627,2.454,3.905,2.604,4.105C3.246,4.96,3.918,5.79,4.615,6.597C3.551,6.675,2.488,6.787,1.43,6.938
		C1.183,6.974,1,7.185,1,7.434v1.133c0,0.249,0.183,0.46,0.43,0.495c1.059,0.151,2.121,0.264,3.186,0.342
		c-0.697,0.808-1.37,1.637-2.012,2.492c-0.15,0.2-0.13,0.479,0.046,0.654l0.802,0.801c0.176,0.176,0.453,0.196,0.653,0.046
		c0.854-0.642,1.685-1.314,2.492-2.012c0.078,1.064,0.19,2.127,0.342,3.186C6.974,14.817,7.185,15,7.434,15h1.133
		c0.249,0,0.46-0.183,0.495-0.43c0.151-1.059,0.264-2.121,0.342-3.186c0.808,0.698,1.638,1.371,2.492,2.013
		c0.2,0.149,0.479,0.13,0.654-0.047l0.801-0.801c0.177-0.176,0.196-0.454,0.047-0.654c-0.642-0.855-1.314-1.685-2.013-2.492
		c1.064-0.078,2.127-0.19,3.186-0.342C14.817,9.026,15,8.815,15,8.566V7.434C15,7.185,14.817,6.974,14.57,6.938z"/>
</g>
<g id="nyt_x5F_exporter_x5F_info" class="st2">
</g>
</svg>
