<?xml version="1.0" encoding="utf-8"?>
<!-- Generator: Adobe Illustrator 16.0.0, SVG Export Plug-In . SVG Version: 6.00 Build 0)  -->
<!DOCTYPE svg PUBLIC "-//W3C//DTD SVG 1.1//EN" "http://www.w3.org/Graphics/SVG/1.1/DTD/svg11.dtd">
<svg version="1.1" id="Layer_1" xmlns="http://www.w3.org/2000/svg" xmlns:xlink="http://www.w3.org/1999/xlink" x="0px" y="0px"
	 width="16px" height="16px" viewBox="0 0 16 16" style="enable-background:new 0 0 16 16;" xml:space="preserve">
<style type="text/css">
<![CDATA[
	.st0{fill:#231F20;}
	.st1{fill:none;}
]]>
</style>
<path class="st0" d="M13.892,6.778L6.332,6.4l3.01-2.817c0.535-0.447,0.596-1.653-0.232-2.04c-0.376-0.177-0.822-0.12-1.142,0.146
	L1.386,7.175C1.141,7.379,1,7.682,1,7.999C0.999,8.317,1.14,8.62,1.385,8.824c2.133,1.777,6.583,5.487,6.583,5.487
	c0.319,0.266,0.766,0.322,1.142,0.146c0.828-0.387,0.768-1.593,0.232-2.04L6.332,9.6l7.56-0.378C14.512,9.19,15,8.68,15,8.057V7.943
	C15,7.32,14.512,6.81,13.892,6.778z"/>
</svg>
