<?xml version="1.0" encoding="utf-8"?>
<!-- Generator: Adobe Illustrator 16.0.0, SVG Export Plug-In . SVG Version: 6.00 Build 0)  -->
<!DOCTYPE svg PUBLIC "-//W3C//DTD SVG 1.1//EN" "http://www.w3.org/Graphics/SVG/1.1/DTD/svg11.dtd">
<svg version="1.1" id="Layer_1" xmlns="http://www.w3.org/2000/svg" xmlns:xlink="http://www.w3.org/1999/xlink" x="0px" y="0px"
	 width="16px" height="16px" viewBox="0 0 16 16" style="enable-background:new 0 0 16 16;" xml:space="preserve">
<style type="text/css">
<![CDATA[
	.st0{fill:#231F20;}
	.st1{fill:none;}
]]>
</style>
<path class="st0" d="M13.657,2.343c-3.124-3.124-8.189-3.124-11.313,0c-3.125,3.125-3.124,8.19,0,11.314s8.189,3.124,11.313,0
	C16.781,10.532,16.781,5.467,13.657,2.343z M3.757,3.758c2.093-2.094,5.34-2.304,7.681-0.657c-3.008,2.536-5.802,5.33-8.337,8.338
	C1.455,9.098,1.664,5.851,3.757,3.758z M12.243,12.242c-2.093,2.094-5.34,2.304-7.681,0.657c3.007-2.536,5.801-5.33,8.337-8.338
	C14.545,6.902,14.336,10.149,12.243,12.242z"/>
</svg>
