<?xml version="1.0" encoding="utf-8"?>
<!-- Generator: Adobe Illustrator 16.0.0, SVG Export Plug-In . SVG Version: 6.00 Build 0)  -->
<!DOCTYPE svg PUBLIC "-//W3C//DTD SVG 1.1//EN" "http://www.w3.org/Graphics/SVG/1.1/DTD/svg11.dtd">
<svg version="1.1" xmlns="http://www.w3.org/2000/svg" xmlns:xlink="http://www.w3.org/1999/xlink" x="0px" y="0px" width="16px"
	 height="16px" viewBox="0 0 16 16" style="enable-background:new 0 0 16 16;" xml:space="preserve">
<style type="text/css">
<![CDATA[
	.st0{fill:#231F20;}
	.st1{fill:none;}
	.st2{display:none;}
]]>
</style>
<g id="Layer_1">
	<g>
		<g>
			<path class="st0" d="M4,6.5C4,6.224,3.776,6,3.5,6h-3C0.224,6,0,6.224,0,6.5v3C0,9.776,0.224,10,0.5,10h3C3.776,10,4,9.776,4,9.5
				V6.5z"/>
		</g>
		<g>
			<path class="st0" d="M10,6.5C10,6.224,9.776,6,9.5,6h-3C6.224,6,6,6.224,6,6.5v3C6,9.776,6.224,10,6.5,10h3
				C9.776,10,10,9.776,10,9.5V6.5z"/>
		</g>
		<g>
			<path class="st0" d="M16,6.5C16,6.224,15.776,6,15.5,6h-3C12.224,6,12,6.224,12,6.5v3c0,0.276,0.224,0.5,0.5,0.5h3
				c0.276,0,0.5-0.224,0.5-0.5V6.5z"/>
		</g>
	</g>
	<g>
		<g>
			<path class="st0" d="M4,0.5C4,0.224,3.776,0,3.5,0h-3C0.224,0,0,0.224,0,0.5v3C0,3.776,0.224,4,0.5,4h3C3.776,4,4,3.776,4,3.5
				V0.5z"/>
		</g>
		<g>
			<path class="st0" d="M10,0.5C10,0.224,9.776,0,9.5,0h-3C6.224,0,6,0.224,6,0.5v3C6,3.776,6.224,4,6.5,4h3
				C9.776,4,10,3.776,10,3.5V0.5z"/>
		</g>
		<g>
			<path class="st0" d="M16,0.5C16,0.224,15.776,0,15.5,0h-3C12.224,0,12,0.224,12,0.5v3C12,3.776,12.224,4,12.5,4h3
				C15.776,4,16,3.776,16,3.5V0.5z"/>
		</g>
	</g>
	<g>
		<g>
			<path class="st0" d="M4,12.5C4,12.224,3.776,12,3.5,12h-3C0.224,12,0,12.224,0,12.5v3C0,15.776,0.224,16,0.5,16h3
				C3.776,16,4,15.776,4,15.5V12.5z"/>
		</g>
		<g>
			<path class="st0" d="M10,12.5c0-0.276-0.224-0.5-0.5-0.5h-3C6.224,12,6,12.224,6,12.5v3C6,15.776,6.224,16,6.5,16h3
				c0.276,0,0.5-0.224,0.5-0.5V12.5z"/>
		</g>
		<g>
			<path class="st0" d="M16,12.5c0-0.276-0.224-0.5-0.5-0.5h-3c-0.276,0-0.5,0.224-0.5,0.5v3c0,0.276,0.224,0.5,0.5,0.5h3
				c0.276,0,0.5-0.224,0.5-0.5V12.5z"/>
		</g>
	</g>
</g>
<g id="nyt_x5F_exporter_x5F_info" class="st2">
</g>
</svg>
