<?xml version="1.0" encoding="utf-8"?>
<!-- Generator: Adobe Illustrator 16.0.0, SVG Export Plug-In . SVG Version: 6.00 Build 0)  -->
<!DOCTYPE svg PUBLIC "-//W3C//DTD SVG 1.1//EN" "http://www.w3.org/Graphics/SVG/1.1/DTD/svg11.dtd">
<svg version="1.1" id="Layer_1" xmlns="http://www.w3.org/2000/svg" xmlns:xlink="http://www.w3.org/1999/xlink" x="0px" y="0px"
	 width="16px" height="16px" viewBox="0 0 16 16" style="enable-background:new 0 0 16 16;" xml:space="preserve">
<style type="text/css">
<![CDATA[
	.st0{fill:#231F20;}
	.st1{fill:none;}
]]>
</style>
<g>
	<path class="st0" d="M15,1H1C0.447,1,0,1.447,0,2v12c0,0.553,0.447,1,1,1h14c0.553,0,1-0.447,1-1V2C16,1.447,15.553,1,15,1z M3,3
		c0.553,0,1,0.447,1,1S3.553,5,3,5S2,4.553,2,4S2.447,3,3,3z M14,13H2V6h12V13z"/>
</g>
</svg>
