<?xml version="1.0" encoding="utf-8"?>
<!-- Generator: Adobe Illustrator 16.0.0, SVG Export Plug-In . SVG Version: 6.00 Build 0)  -->
<!DOCTYPE svg PUBLIC "-//W3C//DTD SVG 1.1//EN" "http://www.w3.org/Graphics/SVG/1.1/DTD/svg11.dtd">
<svg version="1.1" id="Layer_1" xmlns="http://www.w3.org/2000/svg" xmlns:xlink="http://www.w3.org/1999/xlink" x="0px" y="0px"
	 width="16px" height="16px" viewBox="0 0 16 16" style="enable-background:new 0 0 16 16;" xml:space="preserve">
<style type="text/css">
<![CDATA[
	.st0{fill:#231F20;}
	.st1{fill:none;}
]]>
</style>
<g>
	<path class="st0" d="M2,15h12c0.553,0,1-0.447,1-1V4c0-0.553-0.447-1-1-1h-2V2c0-0.553-0.447-1-1-1s-1,0.447-1,1v2v0.837
		L9.946,4.952L9.823,4.984C9.355,4.901,9,4.492,9,4V3H7V2c0-0.553-0.447-1-1-1S5,1.447,5,2v2v0.837L4.946,4.952L4.823,4.984
		C4.355,4.901,4,4.492,4,4V3H2C1.447,3,1,3.447,1,4v10C1,14.553,1.447,15,2,15z M3,6h10v7H3V6z"/>
	<rect x="7" y="7" class="st0" width="2" height="2"/>
	<rect x="10" y="7" class="st0" width="2" height="2"/>
	<rect x="7" y="10" class="st0" width="2" height="2"/>
	<rect x="4" y="10" class="st0" width="2" height="2"/>
	<rect x="10" y="10" class="st0" width="2" height="2"/>
</g>
</svg>
