<?xml version="1.0" encoding="utf-8"?>
<!-- Generator: Adobe Illustrator 16.0.0, SVG Export Plug-In . SVG Version: 6.00 Build 0)  -->
<!DOCTYPE svg PUBLIC "-//W3C//DTD SVG 1.1//EN" "http://www.w3.org/Graphics/SVG/1.1/DTD/svg11.dtd">
<svg version="1.1" id="Layer_1" xmlns="http://www.w3.org/2000/svg" xmlns:xlink="http://www.w3.org/1999/xlink" x="0px" y="0px"
	 width="16px" height="16px" viewBox="0 0 16 16" style="enable-background:new 0 0 16 16;" xml:space="preserve">
<style type="text/css">
<![CDATA[
	.st0{fill:#231F20;}
	.st1{fill:none;}
]]>
</style>
<g>
	<path class="st0" d="M2.374,13.142c4.306,1.191,6.929,1.1,11.229-0.005c1.785-0.457,1.821-7.789,0.023-8.273
		c-0.953-0.257-1.818-0.447-2.646-0.589c0.083-0.801-0.099-1.822-0.883-2.005c-1.549-0.359-2.623-0.36-4.189,0
		C5.122,2.448,4.941,3.474,5.019,4.278c-0.825,0.143-1.688,0.33-2.64,0.584C0.587,5.339,0.606,12.654,2.374,13.142z M7.999,5.5
		c1.93,0,3.5,1.57,3.5,3.5s-1.57,3.5-3.5,3.5s-3.5-1.57-3.5-3.5S6.069,5.5,7.999,5.5z"/>
	<circle class="st0" cx="7.999" cy="9" r="2.25"/>
</g>
</svg>
