<?xml version="1.0" encoding="utf-8"?>
<!-- Generator: Adobe Illustrator 16.0.0, SVG Export Plug-In . SVG Version: 6.00 Build 0)  -->
<!DOCTYPE svg PUBLIC "-//W3C//DTD SVG 1.1//EN" "http://www.w3.org/Graphics/SVG/1.1/DTD/svg11.dtd">
<svg version="1.1" id="Layer_1" xmlns="http://www.w3.org/2000/svg" xmlns:xlink="http://www.w3.org/1999/xlink" x="0px" y="0px"
	 width="16px" height="16px" viewBox="0 0 16 16" style="enable-background:new 0 0 16 16;" xml:space="preserve">
<style type="text/css">
<![CDATA[
	.st0{fill:#231F20;}
	.st1{fill:none;}
]]>
</style>
<path class="st0" d="M2.892,12.271C3.273,12.374,3.638,12.458,4,12.539v2.421c0,0.406,0.266,0.764,0.653,0.881
	c0.389,0.118,0.808-0.032,1.033-0.37l1.661-2.491c1.826,0.061,3.61-0.188,5.722-0.733c1.251-0.323,2.24-1.416,2.562-2.83
	c0.471-2.076,0.503-3.777,0.026-5.856c-0.321-1.399-1.302-2.483-2.539-2.814c-3.726-0.993-6.456-0.995-10.223,0
	C1.653,1.074,0.672,2.16,0.352,3.564c-0.472,2.066-0.47,3.789,0.013,5.895C0.685,10.854,1.658,11.938,2.892,12.271z"/>
</svg>
