<?xml version="1.0" encoding="utf-8"?>
<!-- Generator: Adobe Illustrator 16.0.0, SVG Export Plug-In . SVG Version: 6.00 Build 0)  -->
<!DOCTYPE svg PUBLIC "-//W3C//DTD SVG 1.1//EN" "http://www.w3.org/Graphics/SVG/1.1/DTD/svg11.dtd">
<svg version="1.1" xmlns="http://www.w3.org/2000/svg" xmlns:xlink="http://www.w3.org/1999/xlink" x="0px" y="0px" width="16px"
	 height="16px" viewBox="0 0 16 16" style="enable-background:new 0 0 16 16;" xml:space="preserve">
<style type="text/css">
<![CDATA[
	.st0{fill:#231F20;}
	.st1{fill:none;}
	.st2{display:none;}
]]>
</style>
<g id="Layer_1">
	<g>
		<path class="st0" d="M11.033,0.677c-0.143-0.05-0.3-0.032-0.428,0.047c-0.129,0.08-0.215,0.213-0.233,0.363L9.723,6.275
			l5.188-0.648c0.15-0.019,0.284-0.104,0.363-0.233c0.079-0.128,0.097-0.286,0.047-0.428C14.621,2.962,13.037,1.377,11.033,0.677z"
			/>
		<path class="st0" d="M9.124,7.992L7.849,8.151l0.159-1.275l0.664-5.311c0.018-0.14-0.025-0.281-0.117-0.388
			S8.33,1.006,8.189,1.002C8.126,1.001,8.063,1,8,1C4.134,1,1,4.134,1,8s3.134,7,7,7s7-3.134,7-7c0-0.063-0.001-0.126-0.003-0.189
			c-0.004-0.141-0.067-0.274-0.174-0.366c-0.107-0.092-0.248-0.134-0.389-0.116L9.124,7.992z"/>
	</g>
</g>
<g id="nyt_x5F_exporter_x5F_info" class="st2">
</g>
</svg>
