<?xml version="1.0" encoding="utf-8"?>
<!-- Generator: Adobe Illustrator 16.0.0, SVG Export Plug-In . SVG Version: 6.00 Build 0)  -->
<!DOCTYPE svg PUBLIC "-//W3C//DTD SVG 1.1//EN" "http://www.w3.org/Graphics/SVG/1.1/DTD/svg11.dtd">
<svg version="1.1" id="Layer_1" xmlns="http://www.w3.org/2000/svg" xmlns:xlink="http://www.w3.org/1999/xlink" x="0px" y="0px"
	 width="16px" height="16px" viewBox="0 0 16 16" style="enable-background:new 0 0 16 16;" xml:space="preserve">
<style type="text/css">
<![CDATA[
	.st0{fill:#231F20;}
	.st1{fill:none;}
]]>
</style>
<g>
	<path class="st0" d="M16,14.5c0-0.276-0.224-0.5-0.5-0.5H1.959V0.5c0-0.276-0.224-0.5-0.5-0.5H0.5C0.224,0,0,0.224,0,0.5V14v1.5
		C0,15.776,0.224,16,0.5,16h1.459H15.5c0.276,0,0.5-0.224,0.5-0.5V14.5z"/>
	<path class="st0" d="M3.5,8C3.224,8,3,8.224,3,8.5V13h2V8.5C5,8.224,4.776,8,4.5,8H3.5z"/>
	<path class="st0" d="M6.5,4C6.224,4,6,4.224,6,4.5V13h2V4.5C8,4.224,7.776,4,7.5,4H6.5z"/>
	<path class="st0" d="M9.5,6C9.224,6,9,6.224,9,6.5V13h2V6.5C11,6.224,10.776,6,10.5,6H9.5z"/>
	<path class="st0" d="M12.5,2C12.224,2,12,2.224,12,2.5V13h2V2.5C14,2.224,13.776,2,13.5,2H12.5z"/>
</g>
</svg>
