<?xml version="1.0" encoding="utf-8"?>
<!-- Generator: Adobe Illustrator 16.0.0, SVG Export Plug-In . SVG Version: 6.00 Build 0)  -->
<!DOCTYPE svg PUBLIC "-//W3C//DTD SVG 1.1//EN" "http://www.w3.org/Graphics/SVG/1.1/DTD/svg11.dtd">
<svg version="1.1" id="Layer_1" xmlns="http://www.w3.org/2000/svg" xmlns:xlink="http://www.w3.org/1999/xlink" x="0px" y="0px"
	 width="16px" height="16px" viewBox="0 0 16 16" style="enable-background:new 0 0 16 16;" xml:space="preserve">
<style type="text/css">
<![CDATA[
	.st0{fill:#231F20;}
	.st1{fill:none;}
]]>
</style>
<g>
	<path class="st0" d="M11.033,0.677c-0.143-0.05-0.3-0.032-0.428,0.047c-0.129,0.08-0.215,0.213-0.233,0.363L9.723,6.275
		l5.188-0.648c0.15-0.019,0.284-0.104,0.363-0.232c0.08-0.129,0.097-0.286,0.047-0.429C14.621,2.962,13.037,1.378,11.033,0.677z"/>
	<path class="st0" d="M9.124,7.992L7.849,8.151l0.159-1.275l0.664-5.311c0.018-0.141-0.025-0.281-0.117-0.388
		C8.463,1.07,8.33,1.007,8.189,1.003C8.126,1.001,8.063,1,8,1C4.134,1,1,4.134,1,8s3.134,7,7,7s7-3.134,7-7
		c0-0.063-0.001-0.126-0.003-0.189c-0.004-0.141-0.067-0.273-0.174-0.365c-0.107-0.092-0.248-0.135-0.389-0.117L9.124,7.992z"/>
</g>
</svg>
