<?xml version="1.0" encoding="utf-8"?>
<!-- Generator: Adobe Illustrator 16.0.0, SVG Export Plug-In . SVG Version: 6.00 Build 0)  -->
<!DOCTYPE svg PUBLIC "-//W3C//DTD SVG 1.1//EN" "http://www.w3.org/Graphics/SVG/1.1/DTD/svg11.dtd">
<svg version="1.1" id="Layer_1" xmlns="http://www.w3.org/2000/svg" xmlns:xlink="http://www.w3.org/1999/xlink" x="0px" y="0px"
	 width="16px" height="16px" viewBox="0 0 16 16" style="enable-background:new 0 0 16 16;" xml:space="preserve">
<style type="text/css">
<![CDATA[
	.st0{fill:#231F20;}
	.st1{fill:none;}
]]>
</style>
<g>
	<g>
		<path class="st0" d="M4,0.5C4,0.224,3.776,0,3.5,0h-3C0.224,0,0,0.224,0,0.5v3C0,3.776,0.224,4,0.5,4h3C3.776,4,4,3.776,4,3.5V0.5
			z"/>
	</g>
	<g>
		<path class="st0" d="M10,0.5C10,0.224,9.776,0,9.5,0h-3C6.224,0,6,0.224,6,0.5v3C6,3.776,6.224,4,6.5,4h3C9.776,4,10,3.776,10,3.5
			V0.5z"/>
	</g>
	<g>
		<path class="st0" d="M16,0.5C16,0.224,15.776,0,15.5,0h-3C12.224,0,12,0.224,12,0.5v3C12,3.776,12.224,4,12.5,4h3
			C15.776,4,16,3.776,16,3.5V0.5z"/>
	</g>
	<path class="st0" d="M7,9.5C7,9.776,6.776,10,6.5,10h-6C0.224,10,0,9.776,0,9.5v-3C0,6.224,0.224,6,0.5,6h6C6.776,6,7,6.224,7,6.5
		V9.5z"/>
	<path class="st0" d="M16,9.5c0,0.276-0.224,0.5-0.5,0.5h-6C9.224,10,9,9.776,9,9.5v-3C9,6.224,9.224,6,9.5,6h6
		C15.776,6,16,6.224,16,6.5V9.5z"/>
	<path class="st0" d="M7,15.5C7,15.776,6.776,16,6.5,16h-6C0.224,16,0,15.776,0,15.5v-3C0,12.224,0.224,12,0.5,12h6
		C6.776,12,7,12.224,7,12.5V15.5z"/>
	<path class="st0" d="M16,15.5c0,0.276-0.224,0.5-0.5,0.5h-6C9.224,16,9,15.776,9,15.5v-3C9,12.224,9.224,12,9.5,12h6
		c0.276,0,0.5,0.224,0.5,0.5V15.5z"/>
</g>
</svg>
