<?xml version="1.0" encoding="utf-8"?>
<!-- Generator: Adobe Illustrator 16.0.0, SVG Export Plug-In . SVG Version: 6.00 Build 0)  -->
<!DOCTYPE svg PUBLIC "-//W3C//DTD SVG 1.1//EN" "http://www.w3.org/Graphics/SVG/1.1/DTD/svg11.dtd">
<svg version="1.1" xmlns="http://www.w3.org/2000/svg" xmlns:xlink="http://www.w3.org/1999/xlink" x="0px" y="0px" width="16px"
	 height="16px" viewBox="0 0 16 16" style="enable-background:new 0 0 16 16;" xml:space="preserve">
<style type="text/css">
<![CDATA[
	.st0{fill:#231F20;}
	.st1{fill:none;}
	.st2{display:none;}
]]>
</style>
<g id="Layer_1">
	<g>
		<path class="st0" d="M1.576,11.206C1.207,11.45,1,11.718,1,12v2c0,1.104,3.135,2,7,2s7-0.896,7-2v-2
			c0-0.282-0.207-0.55-0.576-0.794C12.287,12.176,8.921,12.25,8,12.25S3.713,12.176,1.576,11.206z"/>
		<path class="st0" d="M1.576,6.206C1.207,6.45,1,6.718,1,7v2c0,1.104,3.135,2,7,2s7-0.896,7-2V7c0-0.282-0.207-0.55-0.576-0.794
			C12.287,7.176,8.921,7.25,8,7.25S3.713,7.176,1.576,6.206z"/>
		<path class="st0" d="M8,0C4.135,0,1,0.896,1,2v2c0,1.104,3.135,2,7,2s7-0.896,7-2V2C15,0.896,11.865,0,8,0z M8,1.5
			c2.21,0,4,0.336,4,0.75S10.21,3,8,3S4,2.664,4,2.25S5.79,1.5,8,1.5z"/>
	</g>
</g>
<g id="nyt_x5F_exporter_x5F_info" class="st2">
</g>
</svg>
