<?xml version="1.0" encoding="utf-8"?>
<!-- Generator: Adobe Illustrator 16.0.0, SVG Export Plug-In . SVG Version: 6.00 Build 0)  -->
<!DOCTYPE svg PUBLIC "-//W3C//DTD SVG 1.1//EN" "http://www.w3.org/Graphics/SVG/1.1/DTD/svg11.dtd">
<svg version="1.1" xmlns="http://www.w3.org/2000/svg" xmlns:xlink="http://www.w3.org/1999/xlink" x="0px" y="0px" width="16px"
	 height="16px" viewBox="0 0 16 16" style="enable-background:new 0 0 16 16;" xml:space="preserve">
<style type="text/css">
<![CDATA[
	.st0{fill:#231F20;}
	.st1{fill:none;}
	.st2{display:none;}
]]>
</style>
<g id="Layer_1">
	<g>
		<path class="st0" d="M1.979,1c0.553,0,1,0.447,1,1v7c0,0.553-0.447,1-1,1s-1-0.447-1-1V2C0.979,1.447,1.427,1,1.979,1z"/>
		<path class="st0" d="M10.765,13.928c-0.018,0.269-0.015,0.536-0.186,0.744C10.409,14.88,10.154,15,9.886,15H9.833
			c-0.449,0-0.842-0.299-0.962-0.731c-0.464-1.664-2.317-3.625-3.802-3.996l-0.332-0.083c-0.445-0.111-0.758-0.512-0.758-0.971V3
			c1.236,0,2.273-0.17,2.807-0.415C8.058,2,8.251,2,10.979,2c2.209,0,4,1.791,4,4c0,2.153,0.5,4-2,4h-3
			C9.979,10,10.896,11.875,10.765,13.928z"/>
	</g>
</g>
<g id="nyt_x5F_exporter_x5F_info" class="st2">
</g>
</svg>
