<?xml version="1.0" encoding="utf-8"?>
<!-- Generator: Adobe Illustrator 16.0.0, SVG Export Plug-In . SVG Version: 6.00 Build 0)  -->
<!DOCTYPE svg PUBLIC "-//W3C//DTD SVG 1.1//EN" "http://www.w3.org/Graphics/SVG/1.1/DTD/svg11.dtd">
<svg version="1.1" id="Layer_1" xmlns="http://www.w3.org/2000/svg" xmlns:xlink="http://www.w3.org/1999/xlink" x="0px" y="0px"
	 width="16px" height="16px" viewBox="0 0 16 16" style="enable-background:new 0 0 16 16;" xml:space="preserve">
<style type="text/css">
<![CDATA[
	.st0{fill:#231F20;}
	.st1{fill:none;}
]]>
</style>
<g>
	<path class="st0" d="M16,0.5C16,0.224,15.776,0,15.5,0H12H6.5C6.224,0,6,0.224,6,0.5v2h2h1.5c1.104,0,2,0.896,2,2V12h4
		c0.276,0,0.5-0.224,0.5-0.5V0.5z"/>
	<path class="st0" d="M10,4.5C10,4.224,9.776,4,9.5,4H6H0.5C0.224,4,0,4.224,0,4.5v6h3.5c1.104,0,2,0.896,2,2V16h4
		c0.276,0,0.5-0.224,0.5-0.5V4.5z"/>
	<path class="st0" d="M4,12.5C4,12.224,3.776,12,3.5,12H0l4,4V12.5z"/>
</g>
</svg>
