<?xml version="1.0" encoding="utf-8"?>
<!-- Generator: Adobe Illustrator 16.0.0, SVG Export Plug-In . SVG Version: 6.00 Build 0)  -->
<!DOCTYPE svg PUBLIC "-//W3C//DTD SVG 1.1//EN" "http://www.w3.org/Graphics/SVG/1.1/DTD/svg11.dtd">
<svg version="1.1" xmlns="http://www.w3.org/2000/svg" xmlns:xlink="http://www.w3.org/1999/xlink" x="0px" y="0px" width="16px"
	 height="16px" viewBox="0 0 16 16" style="enable-background:new 0 0 16 16;" xml:space="preserve">
<style type="text/css">
<![CDATA[
	.st0{fill:#231F20;}
	.st1{font-family:'MyriadPro-Regular';}
	.st2{fill:none;}
	.st3{display:inline;}
	.st4{font-size:12;}
	.st5{display:none;}
]]>
</style>
<g id="Layer_1">
	<g>
		<path class="st0" d="M1.379,8.938c0.092,1.298,0.238,2.896,0.441,3.709c0.252,1.01,1.088,1.808,2.168,2.067
			c1.588,0.384,6.412,0.382,8.033-0.01c1.074-0.261,1.908-1.052,2.162-2.054c0.205-0.799,0.348-2.358,0.438-3.646
			c0.02-0.26-0.072-0.516-0.25-0.706S13.945,8,13.684,8h-0.068c-0.525,0-0.959,0.405-0.996,0.929
			c-0.084,1.169-0.207,2.582-0.373,3.229c-0.072,0.281-0.346,0.518-0.695,0.603c-1.299,0.314-5.807,0.32-7.096,0.01
			c-0.352-0.085-0.623-0.323-0.695-0.609c-0.164-0.657-0.289-2.069-0.375-3.233C3.346,8.404,2.912,8,2.389,8H2.252
			C2.01,8,1.777,8.102,1.611,8.279S1.361,8.695,1.379,8.938z"/>
		<path class="st0" d="M9.129,1.99C9.049,1.422,8.562,1,7.988,1S6.928,1.422,6.846,1.99L6.363,5.364
			C5.07,5.438,4.029,5.599,3.91,5.854C3.555,6.613,7.451,11,7.986,11s4.434-4.387,4.08-5.146c-0.121-0.255-1.16-0.416-2.455-0.489
			L9.129,1.99z"/>
	</g>
</g>
<g id="nyt_x5F_exporter_x5F_info" class="st5">
	<text transform="matrix(1 0 0 1 0 -64)" class="st3"><tspan x="0" y="0" class="st1 st4">&lt;nyt_prefs&gt;</tspan><tspan x="0" y="14.4" class="st1 st4">  &lt;nyt_prefix/&gt;</tspan><tspan x="0" y="28.8" class="st1 st4">  &lt;nyt_suffix/&gt;</tspan><tspan x="0" y="43.2" class="st1 st4">  &lt;nyt_base_path&gt;~/Desktop&lt;/nyt_base_path&gt;</tspan><tspan x="0" y="57.6" class="st1 st4">  &lt;nyt_scaling&gt;100%&lt;/nyt_scaling&gt;</tspan><tspan x="0" y="72" class="st1 st4">  &lt;nyt_transparency&gt;true&lt;/nyt_transparency&gt;</tspan><tspan x="0" y="86.4" class="st1 st4">  &lt;nyt_format&gt;PNG 24&lt;/nyt_format&gt;</tspan><tspan x="0" y="100.8" class="st1 st4">  &lt;nyt_export_code&gt;artboards&lt;/nyt_export_code&gt;</tspan><tspan x="0" y="115.2" class="st1 st4">&lt;/nyt_prefs&gt;</tspan></text>
</g>
</svg>
