<?xml version="1.0" encoding="utf-8"?>
<!-- Generator: Adobe Illustrator 16.0.0, SVG Export Plug-In . SVG Version: 6.00 Build 0)  -->
<!DOCTYPE svg PUBLIC "-//W3C//DTD SVG 1.1//EN" "http://www.w3.org/Graphics/SVG/1.1/DTD/svg11.dtd">
<svg version="1.1" xmlns="http://www.w3.org/2000/svg" xmlns:xlink="http://www.w3.org/1999/xlink" x="0px" y="0px" width="16px"
	 height="16px" viewBox="0 0 16 16" style="enable-background:new 0 0 16 16;" xml:space="preserve">
<style type="text/css">
<![CDATA[
	.st0{fill:#231F20;}
	.st1{font-family:'MyriadPro-Regular';}
	.st2{fill:none;}
	.st3{display:inline;}
	.st4{font-size:12;}
	.st5{display:none;}
]]>
</style>
<g id="Layer_1">
	<path class="st0" d="M12.417,6.658L9.6,9.668l-0.378-7.56C9.19,1.488,8.68,1,8.057,1H7.943C7.32,1,6.81,1.488,6.778,2.108
		L6.4,9.668l-2.817-3.01C3.136,6.123,1.93,6.062,1.543,6.891c-0.177,0.376-0.12,0.822,0.146,1.142l5.486,6.582
		C7.379,14.859,7.682,15,7.999,15c0.318,0.001,0.621-0.14,0.825-0.385c1.777-2.133,5.487-6.583,5.487-6.583
		c0.266-0.319,0.322-0.766,0.146-1.142C14.07,6.062,12.864,6.123,12.417,6.658z"/>
</g>
<g id="nyt_x5F_exporter_x5F_info" class="st5">
	<text transform="matrix(1 0 0 1 -224 0)" class="st3"><tspan x="0" y="0" class="st1 st4">&lt;nyt_prefs&gt;</tspan><tspan x="0" y="14.4" class="st1 st4">  &lt;nyt_prefix/&gt;</tspan><tspan x="0" y="28.8" class="st1 st4">  &lt;nyt_suffix/&gt;</tspan><tspan x="0" y="43.2" class="st1 st4">  &lt;nyt_base_path&gt;~/Desktop&lt;/nyt_base_path&gt;</tspan><tspan x="0" y="57.6" class="st1 st4">  &lt;nyt_scaling&gt;100%&lt;/nyt_scaling&gt;</tspan><tspan x="0" y="72" class="st1 st4">  &lt;nyt_transparency&gt;true&lt;/nyt_transparency&gt;</tspan><tspan x="0" y="86.4" class="st1 st4">  &lt;nyt_format&gt;PNG 24&lt;/nyt_format&gt;</tspan><tspan x="0" y="100.8" class="st1 st4">  &lt;nyt_export_code&gt;artboards&lt;/nyt_export_code&gt;</tspan><tspan x="0" y="115.2" class="st1 st4">&lt;/nyt_prefs&gt;</tspan></text>
</g>
</svg>
