<?xml version="1.0" encoding="utf-8"?>
<!-- Generator: Adobe Illustrator 16.0.0, SVG Export Plug-In . SVG Version: 6.00 Build 0)  -->
<!DOCTYPE svg PUBLIC "-//W3C//DTD SVG 1.1//EN" "http://www.w3.org/Graphics/SVG/1.1/DTD/svg11.dtd">
<svg version="1.1" id="Layer_1" xmlns="http://www.w3.org/2000/svg" xmlns:xlink="http://www.w3.org/1999/xlink" x="0px" y="0px"
	 width="16px" height="16px" viewBox="0 0 16 16" style="enable-background:new 0 0 16 16;" xml:space="preserve">
<style type="text/css">
<![CDATA[
	.st0{fill:#231F20;}
	.st1{fill:none;}
]]>
</style>
<g>
	<path class="st0" d="M16,0.5C16,0.224,15.776,0,15.5,0h-7C8.224,0,8,0.224,8,0.5V2h3.5C12.327,2,13,2.673,13,3.5V10h2.5
		c0.276,0,0.5-0.224,0.5-0.5V0.5z"/>
	<path class="st0" d="M12,3.5C12,3.224,11.776,3,11.5,3h-7C4.224,3,4,3.224,4,3.5V5h3.5C8.327,5,9,5.673,9,6.5V13h2.5
		c0.276,0,0.5-0.224,0.5-0.5V3.5z"/>
	<g>
		<path class="st0" d="M0,13l3,3v-2.5C3,13.224,2.776,13,2.5,13H0z"/>
		<path class="st0" d="M8,6.5C8,6.224,7.776,6,7.5,6h-7C0.224,6,0,6.224,0,6.5V12h2.5C3.329,12,4,12.672,4,13.5V16h3.5
			C7.776,16,8,15.776,8,15.5v-6V6.5z"/>
	</g>
</g>
</svg>
