<?xml version="1.0" encoding="utf-8"?>
<!-- Generator: Adobe Illustrator 16.0.0, SVG Export Plug-In . SVG Version: 6.00 Build 0)  -->
<!DOCTYPE svg PUBLIC "-//W3C//DTD SVG 1.1//EN" "http://www.w3.org/Graphics/SVG/1.1/DTD/svg11.dtd">
<svg version="1.1" id="Layer_1" xmlns="http://www.w3.org/2000/svg" xmlns:xlink="http://www.w3.org/1999/xlink" x="0px" y="0px"
	 width="16px" height="16px" viewBox="0 0 16 16" style="enable-background:new 0 0 16 16;" xml:space="preserve">
<style type="text/css">
<![CDATA[
	.st0{fill:#231F20;}
	.st1{fill:none;}
]]>
</style>
<g>
	<g>
		<path class="st0" d="M6.942,5.776L3.518,1.992l2.778,0.092C6.764,2.126,7.368,1.579,7.158,1C7.062,0.736,6.823,0.551,6.543,0.525
			L0.79,0.003c-0.214-0.02-0.426,0.058-0.577,0.209c-0.152,0.151-0.23,0.363-0.21,0.577c0.17,1.865,0.522,5.754,0.522,5.754
			C0.551,6.823,0.736,7.062,1,7.158c0.579,0.21,1.126-0.395,1.084-0.862L1.992,3.518l3.784,3.425
			c0.311,0.28,0.787,0.269,1.084-0.028L6.914,6.86C7.211,6.563,7.223,6.087,6.942,5.776z"/>
		<path class="st0" d="M15.475,9.457c-0.025-0.28-0.211-0.52-0.475-0.615c-0.579-0.21-1.126,0.395-1.084,0.862l0.092,2.778
			l-3.784-3.425C9.913,8.777,9.437,8.789,9.14,9.086L9.086,9.14c-0.297,0.297-0.309,0.773-0.028,1.084l3.425,3.784l-2.778-0.092
			C9.236,13.874,8.632,14.421,8.842,15c0.096,0.264,0.335,0.449,0.614,0.475l5.754,0.522c0.213,0.02,0.426-0.058,0.577-0.209
			c0.152-0.152,0.229-0.363,0.21-0.577C15.827,13.346,15.475,9.457,15.475,9.457z"/>
	</g>
	<g>
		<path class="st0" d="M5.776,9.058l-3.784,3.425l0.092-2.778C2.126,9.236,1.579,8.632,1,8.842C0.736,8.938,0.551,9.177,0.525,9.457
			L0.003,15.21c-0.021,0.213,0.058,0.426,0.209,0.577c0.152,0.152,0.363,0.229,0.577,0.21c1.865-0.17,5.754-0.522,5.754-0.522
			c0.28-0.025,0.52-0.211,0.615-0.475c0.21-0.579-0.395-1.126-0.862-1.084l-2.778,0.092l3.425-3.784
			c0.28-0.311,0.269-0.787-0.028-1.084L6.86,9.086C6.563,8.789,6.087,8.777,5.776,9.058z"/>
		<path class="st0" d="M9.456,0.525C9.177,0.551,8.938,0.736,8.842,1c-0.21,0.579,0.395,1.126,0.862,1.084l2.778-0.092L9.058,5.776
			C8.777,6.087,8.789,6.563,9.086,6.86L9.14,6.914c0.297,0.297,0.773,0.309,1.084,0.028l3.784-3.425l-0.092,2.778
			C13.874,6.764,14.421,7.368,15,7.158c0.264-0.096,0.449-0.335,0.475-0.615l0.522-5.753c0.02-0.213-0.058-0.426-0.209-0.577
			c-0.152-0.152-0.363-0.229-0.577-0.21C13.346,0.173,9.456,0.525,9.456,0.525z"/>
	</g>
</g>
</svg>
