<?xml version="1.0" encoding="utf-8"?>
<!-- Generator: Adobe Illustrator 16.0.0, SVG Export Plug-In . SVG Version: 6.00 Build 0)  -->
<!DOCTYPE svg PUBLIC "-//W3C//DTD SVG 1.1//EN" "http://www.w3.org/Graphics/SVG/1.1/DTD/svg11.dtd">
<svg version="1.1" id="Layer_1" xmlns="http://www.w3.org/2000/svg" xmlns:xlink="http://www.w3.org/1999/xlink" x="0px" y="0px"
	 width="16px" height="16px" viewBox="0 0 16 16" style="enable-background:new 0 0 16 16;" xml:space="preserve">
<style type="text/css">
<![CDATA[
	.st0{fill:#231F20;}
	.st1{fill:none;}
]]>
</style>
<g>
	<path class="st0" d="M9.929,0.17C9.834,0.062,9.697,0,9.554,0H6.445C6.302,0,6.165,0.062,6.07,0.17
		C5.975,0.278,5.932,0.422,5.95,0.564l1.237,9.448c0.032,0.249,0.244,0.436,0.495,0.436h0.653c0.251,0,0.464-0.187,0.496-0.437
		l1.218-9.448C10.067,0.421,10.023,0.277,9.929,0.17z"/>
	<path class="st0" d="M6.49,14.387v0.094c0,0.839,0.681,1.52,1.521,1.52c0.839,0,1.52-0.681,1.52-1.52v-0.094
		c0-0.839-0.681-1.52-1.52-1.52C7.171,12.867,6.49,13.548,6.49,14.387z"/>
</g>
</svg>
