<?xml version="1.0" encoding="utf-8"?>
<!-- Generator: Adobe Illustrator 16.0.0, SVG Export Plug-In . SVG Version: 6.00 Build 0)  -->
<!DOCTYPE svg PUBLIC "-//W3C//DTD SVG 1.1//EN" "http://www.w3.org/Graphics/SVG/1.1/DTD/svg11.dtd">
<svg version="1.1" xmlns="http://www.w3.org/2000/svg" xmlns:xlink="http://www.w3.org/1999/xlink" x="0px" y="0px" width="16px"
	 height="16px" viewBox="0 0 16 16" style="enable-background:new 0 0 16 16;" xml:space="preserve">
<style type="text/css">
<![CDATA[
	.st0{fill:#231F20;}
	.st1{font-family:'MyriadPro-Regular';}
	.st2{fill:none;}
	.st3{display:inline;}
	.st4{font-size:12;}
	.st5{display:none;}
]]>
</style>
<g id="Layer_1">
	<g>
		<g>
			<path class="st0" d="M6.692,5.526L3.518,1.992c1.605-0.392,3.003-0.518,2.641-1.518C6.062,0.211,5.823,0.025,5.543,0L0.79,0.003
				c-0.214-0.02-0.426,0.058-0.577,0.209c-0.152,0.151-0.23,0.363-0.21,0.577C0.173,2.654,0,5.543,0,5.543
				c0.025,0.28,0.211,0.52,0.475,0.615c1,0.363,1.126-1.036,1.518-2.641l3.534,3.175c0.311,0.28,0.787,0.269,1.084-0.028L6.664,6.61
				C6.961,6.313,6.973,5.837,6.692,5.526z"/>
			<path class="st0" d="M16,10.457c-0.025-0.28-0.211-0.52-0.475-0.615c-1-0.363-1.126,1.036-1.518,2.641l-3.534-3.175
				c-0.311-0.28-0.787-0.269-1.084,0.028L9.336,9.39c-0.297,0.297-0.309,0.773-0.028,1.084l3.175,3.534
				c-1.605,0.392-3.003,0.518-2.641,1.518c0.096,0.264,0.335,0.449,0.614,0.475l4.754-0.003c0.213,0.02,0.426-0.058,0.577-0.209
				c0.152-0.152,0.229-0.363,0.21-0.577C15.827,13.346,16,10.457,16,10.457z"/>
		</g>
		<g>
			<path class="st0" d="M5.526,9.308l-3.534,3.175c-0.392-1.605-0.518-3.003-1.518-2.641C0.211,9.938,0.025,10.177,0,10.457
				l0.003,4.753c-0.021,0.213,0.058,0.426,0.209,0.577c0.152,0.152,0.363,0.229,0.577,0.21C2.654,15.827,5.543,16,5.543,16
				c0.28-0.025,0.52-0.211,0.615-0.475c0.363-1-1.036-1.126-2.641-1.518l3.175-3.534c0.28-0.311,0.269-0.787-0.028-1.084L6.61,9.336
				C6.313,9.039,5.837,9.027,5.526,9.308z"/>
			<path class="st0" d="M10.456,0c-0.279,0.025-0.519,0.211-0.614,0.475c-0.363,1,1.036,1.126,2.641,1.518L9.308,5.526
				C9.027,5.837,9.039,6.313,9.336,6.61L9.39,6.664c0.297,0.297,0.773,0.309,1.084,0.028l3.534-3.175
				c0.392,1.605,0.518,3.003,1.518,2.641C15.789,6.062,15.975,5.823,16,5.543L15.997,0.79c0.02-0.213-0.058-0.426-0.209-0.577
				c-0.152-0.152-0.363-0.229-0.577-0.21C13.346,0.173,10.456,0,10.456,0z"/>
		</g>
	</g>
</g>
<g id="nyt_x5F_exporter_x5F_info" class="st5">
	<text transform="matrix(1 0 0 1 0 -32)" class="st3"><tspan x="0" y="0" class="st1 st4">&lt;nyt_prefs&gt;</tspan><tspan x="0" y="14.4" class="st1 st4">  &lt;nyt_prefix/&gt;</tspan><tspan x="0" y="28.8" class="st1 st4">  &lt;nyt_suffix/&gt;</tspan><tspan x="0" y="43.2" class="st1 st4">  &lt;nyt_base_path&gt;~/Desktop&lt;/nyt_base_path&gt;</tspan><tspan x="0" y="57.6" class="st1 st4">  &lt;nyt_scaling&gt;100%&lt;/nyt_scaling&gt;</tspan><tspan x="0" y="72" class="st1 st4">  &lt;nyt_transparency&gt;true&lt;/nyt_transparency&gt;</tspan><tspan x="0" y="86.4" class="st1 st4">  &lt;nyt_format&gt;PNG 24&lt;/nyt_format&gt;</tspan><tspan x="0" y="100.8" class="st1 st4">  &lt;nyt_export_code&gt;artboards&lt;/nyt_export_code&gt;</tspan><tspan x="0" y="115.2" class="st1 st4">&lt;/nyt_prefs&gt;</tspan></text>
</g>
</svg>
