<?xml version="1.0" encoding="utf-8"?>
<!-- Generator: Adobe Illustrator 16.0.0, SVG Export Plug-In . SVG Version: 6.00 Build 0)  -->
<!DOCTYPE svg PUBLIC "-//W3C//DTD SVG 1.1//EN" "http://www.w3.org/Graphics/SVG/1.1/DTD/svg11.dtd">
<svg version="1.1" id="Layer_1" xmlns="http://www.w3.org/2000/svg" xmlns:xlink="http://www.w3.org/1999/xlink" x="0px" y="0px"
	 width="16px" height="16px" viewBox="0 0 16 16" style="enable-background:new 0 0 16 16;" xml:space="preserve">
<style type="text/css">
<![CDATA[
	.st0{fill:#231F20;}
	.st1{fill:none;}
]]>
</style>
<path class="st0" d="M16,8c0-4.418-3.582-8-8-8S0,3.582,0,8s3.582,8,8,8S16,12.418,16,8z M9,12.5C9,12.776,8.776,13,8.5,13h-1
	C7.224,13,7,12.776,7,12.5v-1C7,11.224,7.224,11,7.5,11h1C8.776,11,9,11.224,9,11.5V12.5z M8.521,9.257
	C8.5,9.413,8.368,9.529,8.211,9.529H7.803c-0.157,0-0.29-0.116-0.31-0.271L6.72,3.354l0.075-0.247C6.854,3.039,6.939,3,7.03,3h1.941
	l0.234,0.106l0.075,0.246L8.521,9.257z"/>
</svg>
