<?xml version="1.0" encoding="utf-8"?>
<!-- Generator: Adobe Illustrator 16.0.0, SVG Export Plug-In . SVG Version: 6.00 Build 0)  -->
<!DOCTYPE svg PUBLIC "-//W3C//DTD SVG 1.1//EN" "http://www.w3.org/Graphics/SVG/1.1/DTD/svg11.dtd">
<svg version="1.1" id="_x2D_Labels" xmlns="http://www.w3.org/2000/svg" xmlns:xlink="http://www.w3.org/1999/xlink" x="0px"
	 y="0px" width="16px" height="16px" viewBox="0 0 16 16" style="enable-background:new 0 0 16 16;" xml:space="preserve">
<style type="text/css">
<![CDATA[
	.st0{fill-rule:evenodd;clip-rule:evenodd;}
]]>
</style>
<g>
	<path d="M15.117,0H0.883C0.396,0,0,0.396,0,0.883v14.233C0,15.604,0.396,16,0.883,16h7.663V9.804H6.461V7.389h2.085V5.608
		c0-2.066,1.263-3.192,3.105-3.192c0.884,0,1.643,0.066,1.863,0.095v2.16l-1.278,0c-1.003,0-1.196,0.477-1.196,1.176v1.542h2.391
		l-0.312,2.415H11.04V16h4.077C15.604,16,16,15.604,16,15.117V0.883C16,0.396,15.604,0,15.117,0z"/>
</g>
</svg>
