<?xml version="1.0" encoding="utf-8"?>
<!-- Generator: Adobe Illustrator 16.0.0, SVG Export Plug-In . SVG Version: 6.00 Build 0)  -->
<!DOCTYPE svg PUBLIC "-//W3C//DTD SVG 1.1//EN" "http://www.w3.org/Graphics/SVG/1.1/DTD/svg11.dtd">
<svg version="1.1" id="Layer_1" xmlns="http://www.w3.org/2000/svg" xmlns:xlink="http://www.w3.org/1999/xlink" x="0px" y="0px"
	 width="16px" height="16px" viewBox="0 0 16 16" style="enable-background:new 0 0 16 16;" xml:space="preserve">
<style type="text/css">
<![CDATA[
	.st0{fill:#231F20;}
	.st1{fill:none;}
]]>
</style>
<g>
	<path class="st0" d="M3,16V2c0.553,0,1-0.447,1-1S3.553,0,3,0H1C0.447,0,0,0.447,0,1s0.447,1,1,1v14H3z"/>
	<path class="st0" d="M16,4.605c0-0.316-0.15-0.614-0.404-0.803c-0.255-0.189-0.584-0.246-0.887-0.154C11.139,4.734,7.569,0.438,4,3
		c0,2.989,0,5.979,0,8.969c3.487-2.502,6.975,1.54,10.462,0.716C15.365,12.471,16,11.666,16,10.738C16,8.694,16,6.649,16,4.605z"/>
</g>
</svg>
