<?xml version="1.0" encoding="utf-8"?>
<!-- Generator: Adobe Illustrator 16.0.0, SVG Export Plug-In . SVG Version: 6.00 Build 0)  -->
<!DOCTYPE svg PUBLIC "-//W3C//DTD SVG 1.1//EN" "http://www.w3.org/Graphics/SVG/1.1/DTD/svg11.dtd">
<svg version="1.1" id="Layer_1" xmlns="http://www.w3.org/2000/svg" xmlns:xlink="http://www.w3.org/1999/xlink" x="0px" y="0px"
	 width="16px" height="16px" viewBox="0 0 16 16" style="enable-background:new 0 0 16 16;" xml:space="preserve">
<style type="text/css">
<![CDATA[
	.st0{fill:#231F20;}
	.st1{fill:none;}
]]>
</style>
<g>
	<path class="st0" d="M4.69,15c0.377,0,3.796-3.589,3.546-4.124c-0.078-0.166-1.235-0.275-2.083-0.332L5.799,2
		C5.771,1.468,5.333,1.05,4.8,1.05H4.702C4.169,1.05,3.73,1.468,3.703,2l-0.354,8.544C2.5,10.6,1.343,10.71,1.265,10.876
		C1.015,11.411,4.314,15,4.69,15z"/>
	<path class="st0" d="M11.31,1c-0.377,0-3.796,3.589-3.546,4.124C7.842,5.29,8.999,5.399,9.847,5.456L10.201,14
		c0.027,0.532,0.466,0.95,0.999,0.95h0.098c0.533,0,0.972-0.418,0.999-0.95l0.354-8.544C13.5,5.4,14.657,5.29,14.735,5.124
		C14.985,4.589,11.686,1,11.31,1z"/>
</g>
</svg>
