<?xml version="1.0" encoding="utf-8"?>
<!-- Generator: Adobe Illustrator 16.0.0, SVG Export Plug-In . SVG Version: 6.00 Build 0)  -->
<!DOCTYPE svg PUBLIC "-//W3C//DTD SVG 1.1//EN" "http://www.w3.org/Graphics/SVG/1.1/DTD/svg11.dtd">
<svg version="1.1" id="Layer_1" xmlns="http://www.w3.org/2000/svg" xmlns:xlink="http://www.w3.org/1999/xlink" x="0px" y="0px"
	 width="16px" height="16px" viewBox="0 0 16 16" style="enable-background:new 0 0 16 16;" xml:space="preserve">
<style type="text/css">
<![CDATA[
	.st0{fill:#231F20;}
	.st1{fill:none;}
]]>
</style>
<path class="st0" d="M8.032,1.688C7.713,1.423,7.267,1.366,6.891,1.543C6.062,1.93,6.123,3.136,6.658,3.583L9.668,6.4l-7.56,0.378
	C1.488,6.81,1,7.32,1,7.943v0.113C1,8.68,1.488,9.19,2.108,9.222L9.668,9.6l-3.01,2.817c-0.535,0.447-0.596,1.653,0.232,2.04
	c0.376,0.177,0.822,0.12,1.142-0.146l6.582-5.486C14.859,8.621,15,8.318,15,8.001c0.001-0.318-0.14-0.621-0.385-0.825
	C12.482,5.398,8.032,1.688,8.032,1.688z"/>
</svg>
