<?xml version="1.0" encoding="utf-8"?>
<!-- Generator: Adobe Illustrator 16.0.0, SVG Export Plug-In . SVG Version: 6.00 Build 0)  -->
<!DOCTYPE svg PUBLIC "-//W3C//DTD SVG 1.1//EN" "http://www.w3.org/Graphics/SVG/1.1/DTD/svg11.dtd">
<svg version="1.1" id="Layer_1" xmlns="http://www.w3.org/2000/svg" xmlns:xlink="http://www.w3.org/1999/xlink" x="0px" y="0px"
	 width="16px" height="16px" viewBox="0 0 16 16" style="enable-background:new 0 0 16 16;" xml:space="preserve">
<style type="text/css">
<![CDATA[
	.st0{fill:#231F20;}
	.st1{fill:none;}
]]>
</style>
<path class="st0" d="M9.5,15.5V9.323c0-0.21,0.066-0.415,0.189-0.585l5.165-7.152c0.221-0.305,0.251-0.707,0.08-1.041
	C14.764,0.21,14.42,0,14.044,0H1.956C1.58,0,1.236,0.21,1.065,0.545c-0.171,0.334-0.141,0.736,0.08,1.041l5.165,7.152
	C6.434,8.908,6.5,9.113,6.5,9.323V15.5C6.5,15.776,6.724,16,7,16h1h1C9.276,16,9.5,15.776,9.5,15.5z"/>
</svg>
