<?xml version="1.0" encoding="utf-8"?>
<!-- Generator: Adobe Illustrator 16.0.0, SVG Export Plug-In . SVG Version: 6.00 Build 0)  -->
<!DOCTYPE svg PUBLIC "-//W3C//DTD SVG 1.1//EN" "http://www.w3.org/Graphics/SVG/1.1/DTD/svg11.dtd">
<svg version="1.1" id="_x2D_Labels" xmlns="http://www.w3.org/2000/svg" xmlns:xlink="http://www.w3.org/1999/xlink" x="0px"
	 y="0px" width="16px" height="16px" viewBox="0 0 16 16" style="enable-background:new 0 0 16 16;" xml:space="preserve">
<style type="text/css">
<![CDATA[
	.st0{fill-rule:evenodd;clip-rule:evenodd;}
]]>
</style>
<g id="Google_Plus_1">
	<path d="M0.946,3.989c0,1.358,0.484,2.338,1.439,2.915c0.781,0.472,1.689,0.542,2.161,0.542c0.114,0,0.206-0.13,0.271-0.134
		C4.817,7.312,4.668,8,5.39,9H5.357c-1.251,0-5.333,0.373-5.333,3.514c0,3.197,3.748,3.486,4.5,3.486c0.061,0,0.094,0,0.094,0
		C4.627,16,4.681,16,4.772,16c0.482,0,1.73-0.058,2.889-0.585c1.504-0.684,2.266-1.871,2.266-3.532c0-1.604-1.161-2.56-2.01-3.257
		c-0.518-0.425-0.965-0.793-0.965-1.15c0-0.363,0.326-0.637,0.74-0.983c0.668-0.56,1.299-1.357,1.299-2.864
		c0-1.325-0.184-2.214-1.313-2.778c0.118-0.056,0.559-0.098,0.765-0.125C9.055,0.648,9.976,0.558,9.976,0.09V0H5.462
		C5.417,0,0.946,0.156,0.946,3.989z M8.155,12.183c0.084,1.277-1.084,2.222-2.838,2.341c-1.78,0.122-3.247-0.629-3.333-1.905
		c-0.042-0.613,0.247-1.216,0.812-1.694c0.572-0.485,1.357-0.785,2.212-0.844c0.101-0.006,0.2-0.01,0.301-0.01
		C6.957,10.071,8.074,10.979,8.155,12.183z M6.989,3.114c0.438,1.443-0.224,2.951-1.278,3.229C5.59,6.375,5.465,6.391,5.339,6.391
		c-0.966,0-1.923-0.914-2.277-2.175C2.864,3.508,2.88,2.89,3.106,2.295C3.33,1.709,3.73,1.315,4.235,1.182
		C4.356,1.15,4.482,1.133,4.608,1.133C5.774,1.133,6.524,1.585,6.989,3.114z M13.976,6V4h-2v2h-2v2h2v2h2V8h2V6H13.976z"/>
</g>
</svg>
