<?xml version="1.0" encoding="utf-8"?>
<!-- Generator: Adobe Illustrator 16.0.0, SVG Export Plug-In . SVG Version: 6.00 Build 0)  -->
<!DOCTYPE svg PUBLIC "-//W3C//DTD SVG 1.1//EN" "http://www.w3.org/Graphics/SVG/1.1/DTD/svg11.dtd">
<svg version="1.1" id="Layer_1" xmlns="http://www.w3.org/2000/svg" xmlns:xlink="http://www.w3.org/1999/xlink" x="0px" y="0px"
	 width="16px" height="16px" viewBox="0 0 16 16" style="enable-background:new 0 0 16 16;" xml:space="preserve">
<style type="text/css">
<![CDATA[
	.st0{fill:#231F20;}
	.st1{fill:none;}
]]>
</style>
<g>
	<path class="st0" d="M0.828,10.34c0.76,0.118,1.537,0.181,2.318,0.222c0.549-0.565,1.225-0.92,1.885-1.163
		c-0.27-0.654-0.406-1.247-0.406-1.773c0-1.521,0.67-2.712,1.73-3.314C6.256,3.218,5.637,2.375,4.5,2.375
		c-1.242,0-1.875,1.007-1.875,2.25c0,0.591,0.328,1.416,0.842,2.275C3.525,7.002,3.535,7.126,3.49,7.235S3.352,7.427,3.236,7.456
		c-1.297,0.333-2.482,0.699-2.98,1.843C0.162,9.513,0.174,9.756,0.285,9.961C0.398,10.164,0.6,10.305,0.828,10.34z"/>
	<path class="st0" d="M12.506,7.236c-0.047-0.107-0.039-0.23,0.02-0.332c0.518-0.903,0.85-1.863,0.85-2.279
		c0-1.243-0.631-2.25-1.875-2.25c-1.135,0-1.754,0.843-1.854,1.936c1.061,0.603,1.729,1.793,1.729,3.314
		c0,0.505-0.186,1.146-0.436,1.762c0.67,0.244,1.357,0.601,1.914,1.175c0.781-0.041,1.559-0.104,2.318-0.222
		c0.23-0.035,0.43-0.176,0.543-0.379c0.111-0.204,0.123-0.448,0.029-0.662c-0.498-1.145-1.688-1.512-2.986-1.845
		C12.645,7.425,12.551,7.346,12.506,7.236z"/>
	<path class="st0" d="M6.736,10.456c-1.297,0.333-2.482,0.699-2.98,1.843c-0.094,0.214-0.082,0.457,0.029,0.662
		c0.113,0.203,0.314,0.344,0.543,0.379C5.525,13.525,6.752,13.625,8,13.625c1.25,0,2.475-0.1,3.672-0.285
		c0.23-0.035,0.43-0.176,0.543-0.379c0.111-0.204,0.123-0.448,0.029-0.662c-0.498-1.145-1.688-1.512-2.986-1.845
		c-0.113-0.029-0.207-0.108-0.252-0.218c-0.047-0.107-0.039-0.23,0.02-0.332c0.518-0.903,0.85-1.863,0.85-2.279
		c0-1.243-0.631-2.25-1.875-2.25c-1.242,0-1.875,1.007-1.875,2.25c0,0.591,0.328,1.416,0.842,2.275
		c0.059,0.102,0.068,0.226,0.023,0.335S6.852,10.427,6.736,10.456z"/>
</g>
</svg>
