<?xml version="1.0" encoding="utf-8"?>
<!-- Generator: Adobe Illustrator 16.0.0, SVG Export Plug-In . SVG Version: 6.00 Build 0)  -->
<!DOCTYPE svg PUBLIC "-//W3C//DTD SVG 1.1//EN" "http://www.w3.org/Graphics/SVG/1.1/DTD/svg11.dtd">
<svg version="1.1" id="Layer_1" xmlns="http://www.w3.org/2000/svg" xmlns:xlink="http://www.w3.org/1999/xlink" x="0px" y="0px"
	 width="16px" height="16px" viewBox="0 0 16 16" style="enable-background:new 0 0 16 16;" xml:space="preserve">
<style type="text/css">
<![CDATA[
	.st0{fill:#231F20;}
	.st1{fill:none;}
]]>
</style>
<path class="st0" d="M14,2H2C1.447,2,1,2.447,1,3v10c0,0.553,0.447,1,1,1h12c0.553,0,1-0.447,1-1V3C15,2.447,14.553,2,14,2z M5.5,4
	C6.328,4,7,4.672,7,5.5S6.328,7,5.5,7S4,6.328,4,5.5S4.672,4,5.5,4z M3,12l2-2l0.293-0.293c0.391-0.391,1.023-0.391,1.414,0L7,10
	l0.346,0.346l0.194,0.016l0.046-0.188L7.333,9.667l0.96-0.96c0.391-0.391,1.023-0.391,1.414,0L13,12H3z"/>
</svg>
