<?xml version="1.0" encoding="utf-8"?>
<!-- Generator: Adobe Illustrator 16.0.0, SVG Export Plug-In . SVG Version: 6.00 Build 0)  -->
<!DOCTYPE svg PUBLIC "-//W3C//DTD SVG 1.1//EN" "http://www.w3.org/Graphics/SVG/1.1/DTD/svg11.dtd">
<svg version="1.1" xmlns="http://www.w3.org/2000/svg" xmlns:xlink="http://www.w3.org/1999/xlink" x="0px" y="0px" width="16px"
	 height="16px" viewBox="0 0 16 16" style="enable-background:new 0 0 16 16;" xml:space="preserve">
<style type="text/css">
<![CDATA[
	.st0{fill:#231F20;}
	.st1{fill:none;}
	.st2{display:none;}
]]>
</style>
<g id="Layer_1">
	<g>
		<path class="st0" d="M6.399,0.799C6.399,0.358,6.758,0,7.201,0h1.598c0.443,0,0.802,0.358,0.802,0.799v1.601
			c0,0.443-0.358,0.802-0.802,0.802H7.201c-0.443,0-0.802-0.358-0.802-0.802V0.799z"/>
		<path class="st0" d="M5.201,6.802C5.201,6.358,5.56,6,6,6h3.198C9.642,6,10,6.358,10,6.802v0.799v6.799
			c0.44,0,0.799,0.358,0.799,0.802C10.799,15.642,10.44,16,10,16H6c-0.44,0-0.799-0.358-0.799-0.799
			c0-0.443,0.358-0.802,0.799-0.802V7.601C5.56,7.601,5.201,7.242,5.201,6.802z"/>
	</g>
</g>
<g id="nyt_x5F_exporter_x5F_info" class="st2">
</g>
</svg>
