<?xml version="1.0" encoding="utf-8"?>
<!-- Generator: Adobe Illustrator 16.0.0, SVG Export Plug-In . SVG Version: 6.00 Build 0)  -->
<!DOCTYPE svg PUBLIC "-//W3C//DTD SVG 1.1//EN" "http://www.w3.org/Graphics/SVG/1.1/DTD/svg11.dtd">
<svg version="1.1" id="Layer_1" xmlns="http://www.w3.org/2000/svg" xmlns:xlink="http://www.w3.org/1999/xlink" x="0px" y="0px"
	 width="16px" height="16px" viewBox="0 0 16 16" style="enable-background:new 0 0 16 16;" xml:space="preserve">
<style type="text/css">
<![CDATA[
	.st0{fill:#231F20;}
	.st1{fill:none;}
]]>
</style>
<path class="st0" d="M8,16c4.418,0,8-3.582,8-8s-3.582-8-8-8S0,3.582,0,8S3.582,16,8,16z M7,3.5C7,3.224,7.224,3,7.5,3h1
	C8.776,3,9,3.224,9,3.5v1C9,4.776,8.776,5,8.5,5h-1C7.224,5,7,4.776,7,4.5V3.5z M6.5,7.5C6.5,7.224,6.724,7,7,7h1.5
	C8.776,7,9,7.224,9,7.5V8v4c0.276,0,0.5,0.224,0.5,0.5S9.276,13,9,13H7c-0.276,0-0.5-0.224-0.5-0.5S6.724,12,7,12V8
	C6.724,8,6.5,7.776,6.5,7.5z"/>
</svg>
