<?xml version="1.0" encoding="utf-8"?>
<!-- Generator: Adobe Illustrator 16.0.0, SVG Export Plug-In . SVG Version: 6.00 Build 0)  -->
<!DOCTYPE svg PUBLIC "-//W3C//DTD SVG 1.1//EN" "http://www.w3.org/Graphics/SVG/1.1/DTD/svg11.dtd">
<svg version="1.1" id="Layer_1" xmlns="http://www.w3.org/2000/svg" xmlns:xlink="http://www.w3.org/1999/xlink" x="0px" y="0px"
	 width="16px" height="16px" viewBox="0 0 16 16" style="enable-background:new 0 0 16 16;" xml:space="preserve">
<style type="text/css">
<![CDATA[
	.st0{fill:#231F20;}
	.st1{fill:none;}
]]>
</style>
<g>
	<circle class="st0" cx="2" cy="8" r="1"/>
	<circle class="st0" cx="2" cy="4" r="1"/>
	<circle class="st0" cx="2" cy="12" r="1"/>
	<path class="st0" d="M14,3H6C5.447,3,5,3.447,5,4s0.447,1,1,1h8c0.553,0,1-0.447,1-1S14.553,3,14,3z"/>
	<path class="st0" d="M14,7H6C5.447,7,5,7.447,5,8s0.447,1,1,1h8c0.553,0,1-0.447,1-1S14.553,7,14,7z"/>
	<path class="st0" d="M14,11H6c-0.553,0-1,0.447-1,1s0.447,1,1,1h8c0.553,0,1-0.447,1-1S14.553,11,14,11z"/>
</g>
</svg>
