<?xml version="1.0" encoding="utf-8"?>
<!-- Generator: Adobe Illustrator 16.0.0, SVG Export Plug-In . SVG Version: 6.00 Build 0)  -->
<!DOCTYPE svg PUBLIC "-//W3C//DTD SVG 1.1//EN" "http://www.w3.org/Graphics/SVG/1.1/DTD/svg11.dtd">
<svg version="1.1" id="Layer_1" xmlns="http://www.w3.org/2000/svg" xmlns:xlink="http://www.w3.org/1999/xlink" x="0px" y="0px"
	 width="16px" height="16px" viewBox="0 0 16 16" style="enable-background:new 0 0 16 16;" xml:space="preserve">
<style type="text/css">
<![CDATA[
	.st0{fill:#231F20;}
	.st1{fill:none;}
]]>
</style>
<g>
	<path class="st0" d="M1.979,15c0.553,0,1-0.447,1-1V7c0-0.553-0.447-1-1-1s-1,0.447-1,1v7C0.979,14.553,1.427,15,1.979,15z"/>
	<path class="st0" d="M10.765,2.072c-0.018-0.269-0.015-0.536-0.186-0.744C10.409,1.12,10.154,1,9.886,1H9.833
		C9.384,1,8.991,1.299,8.871,1.731C8.407,3.396,6.554,5.356,5.069,5.728L4.737,5.811C4.292,5.922,3.979,6.322,3.979,6.781V13
		c1.236,0,2.273,0.17,2.807,0.415C8.058,14,8.251,14,10.979,14c2.209,0,4-1.791,4-4c0-2.153,0.5-4-2-4h-3
		C9.979,6,10.896,4.125,10.765,2.072z"/>
</g>
</svg>
