<?xml version="1.0" encoding="utf-8"?>
<!-- Generator: Adobe Illustrator 16.0.0, SVG Export Plug-In . SVG Version: 6.00 Build 0)  -->
<!DOCTYPE svg PUBLIC "-//W3C//DTD SVG 1.1//EN" "http://www.w3.org/Graphics/SVG/1.1/DTD/svg11.dtd">
<svg version="1.1" id="Layer_1" xmlns="http://www.w3.org/2000/svg" xmlns:xlink="http://www.w3.org/1999/xlink" x="0px" y="0px"
	 width="16px" height="16px" viewBox="0 0 16 16" style="enable-background:new 0 0 16 16;" xml:space="preserve">
<style type="text/css">
<![CDATA[
	.st0{fill:#231F20;}
	.st1{fill:none;}
]]>
</style>
<path class="st0" d="M0.19,5.715c-0.09,0.303-0.032,0.63,0.157,0.883C0.536,6.851,0.833,7,1.149,7c0.442,0,0.832-0.29,0.958-0.715
	C2.846,3.809,5.135,2,7.852,2c3.313,0,6,2.687,6,6s-2.687,6-6,6c-2.717,0-5.007-1.809-5.744-4.286C1.981,9.291,1.592,9,1.149,9
	C0.833,9,0.536,9.149,0.347,9.402c-0.188,0.253-0.246,0.58-0.156,0.883C1.174,13.59,4.229,16,7.852,16c4.418,0,8-3.582,8-8
	s-3.582-8-8-8C4.229,0,1.174,2.41,0.19,5.715z"/>
</svg>
