<?xml version="1.0" encoding="utf-8"?>
<!-- Generator: Adobe Illustrator 16.0.0, SVG Export Plug-In . SVG Version: 6.00 Build 0)  -->
<!DOCTYPE svg PUBLIC "-//W3C//DTD SVG 1.1//EN" "http://www.w3.org/Graphics/SVG/1.1/DTD/svg11.dtd">
<svg version="1.1" id="Layer_1" xmlns="http://www.w3.org/2000/svg" xmlns:xlink="http://www.w3.org/1999/xlink" x="0px" y="0px"
	 width="16px" height="16px" viewBox="0 0 16 16" style="enable-background:new 0 0 16 16;" xml:space="preserve">
<style type="text/css">
<![CDATA[
	.st0{fill:#231F20;}
	.st1{fill:none;}
]]>
</style>
<path class="st0" d="M0.339,5.715c-0.09,0.303-0.032,0.63,0.157,0.883C0.685,6.851,0.981,7,1.298,7C1.74,7,2.13,6.71,2.256,6.285
	C2.994,3.809,5.283,2,8,2c3.313,0,6,2.687,6,6s-2.687,6-6,6c-2.717,0-5.007-1.809-5.744-4.286C2.13,9.291,1.74,9,1.298,9
	C0.981,9,0.685,9.149,0.495,9.402c-0.188,0.253-0.246,0.58-0.156,0.883C1.322,13.59,4.377,16,8,16c4.418,0,8-3.582,8-8s-3.582-8-8-8
	C4.377,0,1.322,2.41,0.339,5.715z"/>
</svg>
