<?xml version="1.0" encoding="utf-8"?>
<!-- Generator: Adobe Illustrator 16.0.0, SVG Export Plug-In . SVG Version: 6.00 Build 0)  -->
<!DOCTYPE svg PUBLIC "-//W3C//DTD SVG 1.1//EN" "http://www.w3.org/Graphics/SVG/1.1/DTD/svg11.dtd">
<svg version="1.1" id="Layer_1" xmlns="http://www.w3.org/2000/svg" xmlns:xlink="http://www.w3.org/1999/xlink" x="0px" y="0px"
	 width="16px" height="16px" viewBox="0 0 16 16" style="enable-background:new 0 0 16 16;" xml:space="preserve">
<style type="text/css">
<![CDATA[
	.st0{fill:#231F20;}
	.st1{fill:none;}
]]>
</style>
<path class="st0" d="M8,0C3.582,0,0,3.582,0,8s3.582,8,8,8s8-3.582,8-8S12.418,0,8,0z M12.997,8.404
	c0,0.178-0.131,0.328-0.307,0.354h-0.002c-3.111,0.444-6.27,0.444-9.381,0C3.131,8.732,3,8.582,3,8.404V7.596
	c0-0.178,0.131-0.328,0.307-0.354c3.111-0.445,6.271-0.445,9.384,0c0.176,0.025,0.307,0.176,0.307,0.354V8.404z"/>
</svg>
