<?xml version="1.0" encoding="utf-8"?>
<!-- Generator: Adobe Illustrator 16.0.0, SVG Export Plug-In . SVG Version: 6.00 Build 0)  -->
<!DOCTYPE svg PUBLIC "-//W3C//DTD SVG 1.1//EN" "http://www.w3.org/Graphics/SVG/1.1/DTD/svg11.dtd">
<svg version="1.1" xmlns="http://www.w3.org/2000/svg" xmlns:xlink="http://www.w3.org/1999/xlink" x="0px" y="0px" width="16px"
	 height="16px" viewBox="0 0 16 16" style="enable-background:new 0 0 16 16;" xml:space="preserve">
<style type="text/css">
<![CDATA[
	.st0{fill:#231F20;}
	.st1{font-family:'MyriadPro-Regular';}
	.st2{fill:none;}
	.st3{display:inline;}
	.st4{font-size:12;}
	.st5{display:none;}
]]>
</style>
<g id="Layer_1">
	<path class="st0" d="M4.768,10.524L3.14,9h9.721l-1.628,1.524c-0.307,0.255-0.339,0.944,0.133,1.167
		c0.217,0.1,0.471,0.067,0.654-0.085l3.76-3.134C15.919,8.355,16,8.183,16,8.001c0.001-0.183-0.08-0.356-0.221-0.473
		c-1.219-1.017-3.76-3.135-3.76-3.135c-0.184-0.152-0.438-0.185-0.654-0.085c-0.472,0.223-0.439,0.912-0.133,1.167L12.86,7H3.14
		l1.628-1.524c0.307-0.255,0.339-0.944-0.133-1.167c-0.217-0.1-0.471-0.067-0.654,0.085l-3.76,3.134C0.081,7.645,0,7.817,0,7.999
		c-0.001,0.183,0.08,0.356,0.221,0.473c1.219,1.017,3.76,3.135,3.76,3.135c0.184,0.152,0.438,0.185,0.654,0.085
		C5.106,11.469,5.074,10.779,4.768,10.524z"/>
</g>
<g id="nyt_x5F_exporter_x5F_info" class="st5">
	<text transform="matrix(1 0 0 1 -96 -32)" class="st3"><tspan x="0" y="0" class="st1 st4">&lt;nyt_prefs&gt;</tspan><tspan x="0" y="14.4" class="st1 st4">  &lt;nyt_prefix/&gt;</tspan><tspan x="0" y="28.8" class="st1 st4">  &lt;nyt_suffix/&gt;</tspan><tspan x="0" y="43.2" class="st1 st4">  &lt;nyt_base_path&gt;~/Desktop&lt;/nyt_base_path&gt;</tspan><tspan x="0" y="57.6" class="st1 st4">  &lt;nyt_scaling&gt;100%&lt;/nyt_scaling&gt;</tspan><tspan x="0" y="72" class="st1 st4">  &lt;nyt_transparency&gt;true&lt;/nyt_transparency&gt;</tspan><tspan x="0" y="86.4" class="st1 st4">  &lt;nyt_format&gt;PNG 24&lt;/nyt_format&gt;</tspan><tspan x="0" y="100.8" class="st1 st4">  &lt;nyt_export_code&gt;artboards&lt;/nyt_export_code&gt;</tspan><tspan x="0" y="115.2" class="st1 st4">&lt;/nyt_prefs&gt;</tspan></text>
</g>
</svg>
