<?xml version="1.0" encoding="utf-8"?>
<!-- Generator: Adobe Illustrator 16.0.0, SVG Export Plug-In . SVG Version: 6.00 Build 0)  -->
<!DOCTYPE svg PUBLIC "-//W3C//DTD SVG 1.1//EN" "http://www.w3.org/Graphics/SVG/1.1/DTD/svg11.dtd">
<svg version="1.1" id="Layer_1" xmlns="http://www.w3.org/2000/svg" xmlns:xlink="http://www.w3.org/1999/xlink" x="0px" y="0px"
	 width="16px" height="16px" viewBox="0 0 16 16" style="enable-background:new 0 0 16 16;" xml:space="preserve">
<style type="text/css">
<![CDATA[
	.st0{fill:#231F20;}
	.st1{fill:none;}
]]>
</style>
<path class="st0" d="M10.524,11.232L9,12.86V3.14l1.524,1.628c0.255,0.307,0.944,0.339,1.167-0.133
	c0.1-0.217,0.067-0.471-0.085-0.654l-3.134-3.76C8.355,0.081,8.183,0,8.001,0C7.818-0.001,7.645,0.08,7.528,0.221
	C6.512,1.439,4.394,3.98,4.394,3.98C4.241,4.164,4.209,4.418,4.309,4.635c0.223,0.472,0.912,0.439,1.167,0.133L7,3.14v9.721
	l-1.524-1.628c-0.255-0.307-0.944-0.339-1.167,0.133c-0.1,0.217-0.067,0.471,0.085,0.654l3.134,3.76C7.645,15.919,7.817,16,7.999,16
	c0.183,0.001,0.356-0.08,0.473-0.221c1.017-1.219,3.135-3.76,3.135-3.76c0.152-0.184,0.185-0.438,0.085-0.654
	C11.469,10.894,10.779,10.926,10.524,11.232z"/>
</svg>
