<?xml version="1.0" encoding="utf-8"?>
<!-- Generator: Adobe Illustrator 16.0.0, SVG Export Plug-In . SVG Version: 6.00 Build 0)  -->
<!DOCTYPE svg PUBLIC "-//W3C//DTD SVG 1.1//EN" "http://www.w3.org/Graphics/SVG/1.1/DTD/svg11.dtd">
<svg version="1.1" xmlns="http://www.w3.org/2000/svg" xmlns:xlink="http://www.w3.org/1999/xlink" x="0px" y="0px" width="16px"
	 height="16px" viewBox="0 0 16 16" style="enable-background:new 0 0 16 16;" xml:space="preserve">
<style type="text/css">
<![CDATA[
	.st0{fill:#231F20;}
	.st1{font-family:'MyriadPro-Regular';}
	.st2{fill:none;}
	.st3{display:inline;}
	.st4{font-size:12;}
	.st5{display:none;}
]]>
</style>
<g id="Layer_1">
	<g>
		<path class="st0" d="M14.913,9.5c-0.323,0-0.63-0.065-0.913-0.176V14H2V2h4.676C6.565,1.717,6.5,1.41,6.5,1.087V1
			c0-0.355,0.077-0.693,0.212-1H1C0.447,0,0,0.447,0,1v14c0,0.553,0.447,1,1,1h14c0.553,0,1-0.447,1-1V9.288
			C15.693,9.423,15.355,9.5,15,9.5H14.913z"/>
		<path class="st0" d="M15,0h-1H9C8.447,0,8,0.447,8,1v0.087c0,0.517,0.395,0.949,0.909,0.996l2.357,0.214l-4.83,6.147
			C6.188,8.762,6.215,9.215,6.5,9.5c0.154,0.154,0.358,0.233,0.563,0.233c0.173,0,0.347-0.056,0.492-0.17l6.147-4.83l0.214,2.357
			C13.964,7.605,14.396,8,14.913,8H15c0.553,0,1-0.447,1-1V2V1C16,0.447,15.553,0,15,0z"/>
	</g>
</g>
<g id="nyt_x5F_exporter_x5F_info" class="st5">
	<text transform="matrix(1 0 0 1 -160 -32)" class="st3"><tspan x="0" y="0" class="st1 st4">&lt;nyt_prefs&gt;</tspan><tspan x="0" y="14.4" class="st1 st4">  &lt;nyt_prefix/&gt;</tspan><tspan x="0" y="28.8" class="st1 st4">  &lt;nyt_suffix/&gt;</tspan><tspan x="0" y="43.2" class="st1 st4">  &lt;nyt_base_path&gt;~/Desktop&lt;/nyt_base_path&gt;</tspan><tspan x="0" y="57.6" class="st1 st4">  &lt;nyt_scaling&gt;100%&lt;/nyt_scaling&gt;</tspan><tspan x="0" y="72" class="st1 st4">  &lt;nyt_transparency&gt;true&lt;/nyt_transparency&gt;</tspan><tspan x="0" y="86.4" class="st1 st4">  &lt;nyt_format&gt;PNG 24&lt;/nyt_format&gt;</tspan><tspan x="0" y="100.8" class="st1 st4">  &lt;nyt_export_code&gt;artboards&lt;/nyt_export_code&gt;</tspan><tspan x="0" y="115.2" class="st1 st4">&lt;/nyt_prefs&gt;</tspan></text>
</g>
</svg>
