<?xml version="1.0" encoding="utf-8"?>
<!-- Generator: Adobe Illustrator 16.0.0, SVG Export Plug-In . SVG Version: 6.00 Build 0)  -->
<!DOCTYPE svg PUBLIC "-//W3C//DTD SVG 1.1//EN" "http://www.w3.org/Graphics/SVG/1.1/DTD/svg11.dtd">
<svg version="1.1" id="Layer_1" xmlns="http://www.w3.org/2000/svg" xmlns:xlink="http://www.w3.org/1999/xlink" x="0px" y="0px"
	 width="16px" height="16px" viewBox="0 0 16 16" style="enable-background:new 0 0 16 16;" xml:space="preserve">
<style type="text/css">
<![CDATA[
	.st0{fill:#231F20;}
	.st1{fill:none;}
]]>
</style>
<g>
	<path class="st0" d="M9.5,3V0H2C1.447,0,1,0.447,1,1v14c0,0.553,0.447,1,1,1h6h6c0.553,0,1-0.447,1-1V5.5h-3
		C10.621,5.5,9.5,4.379,9.5,3z M13,10l-3,3l-3-3l3-3L13,10z M3,10c0-1.656,1.343-3,3-3c0.723,0,1.376,0.266,1.895,0.691L6.293,9.293
		L5.586,10l0.707,0.707l1.602,1.602C7.376,12.734,6.723,13,6,13C4.343,13,3,11.656,3,10z"/>
	<path class="st0" d="M12,4h3l-4-4v3C11,3.553,11.447,4,12,4z"/>
</g>
</svg>
