<?xml version="1.0" encoding="utf-8"?>
<!-- Generator: Adobe Illustrator 16.0.0, SVG Export Plug-In . SVG Version: 6.00 Build 0)  -->
<!DOCTYPE svg PUBLIC "-//W3C//DTD SVG 1.1//EN" "http://www.w3.org/Graphics/SVG/1.1/DTD/svg11.dtd">
<svg version="1.1" id="Layer_1" xmlns="http://www.w3.org/2000/svg" xmlns:xlink="http://www.w3.org/1999/xlink" x="0px" y="0px"
	 width="16px" height="16px" viewBox="0 0 16 16" style="enable-background:new 0 0 16 16;" xml:space="preserve">
<style type="text/css">
<![CDATA[
	.st0{fill:#231F20;}
	.st1{fill:none;}
]]>
</style>
<path class="st0" d="M8,13.656c1.137-1.137,2.28-2.281,3.182-3.182c0.903-0.902,1.026-2.51,0-3.535
	c-0.977-0.977-2.559-0.977-3.535,0L5.172,9.414c-0.392,0.391-0.392,1.023,0,1.414c0.391,0.391,1.023,0.391,1.414,0l2.475-2.475
	c0.195-0.195,0.512-0.195,0.707,0s0.195,0.512,0,0.707l-3.182,3.182c-0.781,0.781-2.048,0.781-2.828,0
	c-0.781-0.781-0.781-2.047,0-2.828l5.656-5.657c0.781-0.78,2.048-0.78,2.828,0c0.781,0.781,0.781,2.048,0,2.829l-0.035,0.035
	c0.47,0.629,0.711,1.376,0.701,2.127L13.657,8c1.562-1.562,1.562-4.096,0-5.657c-1.562-1.562-4.096-1.562-5.657,0L2.343,8
	c-1.562,1.561-1.562,4.094,0,5.656C3.906,15.219,6.438,15.219,8,13.656z"/>
</svg>
