<?xml version="1.0" encoding="utf-8"?>
<!-- Generator: Adobe Illustrator 16.0.0, SVG Export Plug-In . SVG Version: 6.00 Build 0)  -->
<!DOCTYPE svg PUBLIC "-//W3C//DTD SVG 1.1//EN" "http://www.w3.org/Graphics/SVG/1.1/DTD/svg11.dtd">
<svg version="1.1" id="Layer_1" xmlns="http://www.w3.org/2000/svg" xmlns:xlink="http://www.w3.org/1999/xlink" x="0px" y="0px"
	 width="16px" height="16px" viewBox="0 0 16 16" style="enable-background:new 0 0 16 16;" xml:space="preserve">
<style type="text/css">
<![CDATA[
	.st0{fill:#231F20;}
	.st1{fill:none;}
]]>
</style>
<path class="st0" d="M6.315,9.274c-1.729,0.444-3.311,0.933-3.975,2.458c-0.124,0.284-0.109,0.609,0.04,0.882
	c0.149,0.271,0.417,0.459,0.724,0.506C4.701,13.367,6.335,13.5,8,13.5s3.299-0.133,4.896-0.38c0.307-0.047,0.573-0.234,0.723-0.506
	s0.165-0.598,0.041-0.882c-0.665-1.527-2.25-2.017-3.982-2.46C9.525,9.233,9.4,9.127,9.34,8.982
	C9.279,8.839,9.288,8.675,9.366,8.539C10.057,7.335,10.5,6.055,10.5,5.5c0-1.657-0.843-3-2.5-3s-2.5,1.343-2.5,3
	c0,0.788,0.438,1.888,1.121,3.034c0.08,0.135,0.093,0.301,0.032,0.446C6.594,9.126,6.468,9.235,6.315,9.274z"/>
</svg>
