<?xml version="1.0" encoding="utf-8"?>
<!-- Generator: Adobe Illustrator 16.0.0, SVG Export Plug-In . SVG Version: 6.00 Build 0)  -->
<!DOCTYPE svg PUBLIC "-//W3C//DTD SVG 1.1//EN" "http://www.w3.org/Graphics/SVG/1.1/DTD/svg11.dtd">
<svg version="1.1" id="Layer_1" xmlns="http://www.w3.org/2000/svg" xmlns:xlink="http://www.w3.org/1999/xlink" x="0px" y="0px"
	 width="16px" height="16px" viewBox="0 0 16 16" style="enable-background:new 0 0 16 16;" xml:space="preserve">
<style type="text/css">
<![CDATA[
	.st0{fill:#231F20;}
	.st1{fill:none;}
]]>
</style>
<g>
	<path class="st0" d="M12.5,4c0-1.657-0.843-3-2.5-3C8.75,1,7.967,1.766,7.656,2.853C9.09,3.507,10,5.031,10,7
		c0,0.707-0.328,1.713-0.753,2.65c1.193,0.375,2.509,0.988,3.356,2.223c0.771-0.061,1.537-0.137,2.292-0.253
		c0.307-0.047,0.573-0.234,0.723-0.506s0.165-0.598,0.041-0.882c-0.665-1.527-2.25-2.017-3.982-2.46
		c-0.151-0.039-0.276-0.146-0.337-0.29c-0.061-0.144-0.052-0.308,0.026-0.443C12.057,5.835,12.5,4.555,12.5,4z"/>
	<path class="st0" d="M1.104,14.62C2.701,14.867,4.335,15,6,15s3.299-0.133,4.896-0.38c0.307-0.047,0.573-0.234,0.723-0.506
		s0.165-0.598,0.041-0.882c-0.665-1.527-2.25-2.017-3.982-2.46c-0.151-0.039-0.276-0.146-0.337-0.29
		c-0.061-0.144-0.052-0.308,0.026-0.443C8.057,8.835,8.5,7.555,8.5,7c0-1.657-0.843-3-2.5-3S3.5,5.343,3.5,7
		c0,0.788,0.438,1.888,1.121,3.034c0.08,0.135,0.093,0.301,0.032,0.446c-0.06,0.146-0.186,0.255-0.338,0.294
		c-1.729,0.444-3.311,0.933-3.975,2.458c-0.124,0.284-0.109,0.609,0.04,0.882C0.53,14.386,0.798,14.573,1.104,14.62z"/>
</g>
</svg>
