<?xml version="1.0" encoding="utf-8"?>
<!-- Generator: Adobe Illustrator 16.0.0, SVG Export Plug-In . SVG Version: 6.00 Build 0)  -->
<!DOCTYPE svg PUBLIC "-//W3C//DTD SVG 1.1//EN" "http://www.w3.org/Graphics/SVG/1.1/DTD/svg11.dtd">
<svg version="1.1" id="Layer_1" xmlns="http://www.w3.org/2000/svg" xmlns:xlink="http://www.w3.org/1999/xlink" x="0px" y="0px"
	 width="16px" height="16px" viewBox="0 0 16 16" style="enable-background:new 0 0 16 16;" xml:space="preserve">
<style type="text/css">
<![CDATA[
	.st0{fill:#231F20;}
	.st1{fill:none;}
]]>
</style>
<g>
	<path class="st0" d="M0.976,13.62C2.572,13.867,4.206,14,5.871,14s3.299-0.133,4.896-0.38c0.307-0.047,0.573-0.234,0.723-0.506
		s0.165-0.598,0.041-0.882c-0.665-1.527-2.25-2.017-3.982-2.46c-0.151-0.039-0.276-0.146-0.337-0.29
		C7.15,9.339,7.159,9.175,7.237,9.039C7.928,7.835,8.371,6.555,8.371,6c0-1.657-0.843-3-2.5-3s-2.5,1.343-2.5,3
		c0,0.788,0.438,1.888,1.121,3.034c0.08,0.135,0.093,0.301,0.032,0.446c-0.06,0.146-0.186,0.255-0.338,0.294
		c-1.729,0.444-3.311,0.933-3.975,2.458c-0.124,0.284-0.109,0.609,0.04,0.882C0.401,13.386,0.669,13.573,0.976,13.62z"/>
	<path class="st0" d="M11.871,4h-1.75c-0.138,0-0.25,0.112-0.25,0.25v1.5c0,0.138,0.112,0.25,0.25,0.25h1.75v1.75
		c0,0.138,0.112,0.25,0.25,0.25h1.5c0.138,0,0.25-0.112,0.25-0.25V6h1.75c0.138,0,0.25-0.112,0.25-0.25v-1.5
		c0-0.138-0.112-0.25-0.25-0.25h-1.75V2.25c0-0.138-0.112-0.25-0.25-0.25h-1.5c-0.138,0-0.25,0.112-0.25,0.25V4z"/>
</g>
</svg>
