<?xml version="1.0" encoding="utf-8"?>
<!-- Generator: Adobe Illustrator 16.0.0, SVG Export Plug-In . SVG Version: 6.00 Build 0)  -->
<!DOCTYPE svg PUBLIC "-//W3C//DTD SVG 1.1//EN" "http://www.w3.org/Graphics/SVG/1.1/DTD/svg11.dtd">
<svg version="1.1" xmlns="http://www.w3.org/2000/svg" xmlns:xlink="http://www.w3.org/1999/xlink" x="0px" y="0px" width="16px"
	 height="16px" viewBox="0 0 16 16" style="enable-background:new 0 0 16 16;" xml:space="preserve">
<style type="text/css">
<![CDATA[
	.st0{fill:#231F20;}
	.st1{fill:none;}
]]>
</style>
<g id="_x2D_Labels">
</g>
<g id="database">
</g>
<g id="eye">
</g>
<g id="image">
</g>
<g id="browser">
</g>
<g id="bookmark">
</g>
<g id="lock">
</g>
<g id="location">
</g>
<g id="calendar">
</g>
<g id="envelope">
</g>
<g id="link">
</g>
<g id="paperclip">
</g>
<g id="pencil">
</g>
<g id="search">
</g>
<g id="gear">
</g>
<g id="funnel">
</g>
<g id="trash">
</g>
<g id="camera">
</g>
<g id="phone-smart">
	<path class="st0" d="M14,1c0-0.553-0.447-1-1-1H3C2.447,0,2,0.447,2,1v14c0,0.553,0.447,1,1,1h10c0.553,0,1-0.447,1-1V1z M8,15
		c-0.553,0-1-0.447-1-1s0.447-1,1-1s1,0.447,1,1S8.553,15,8,15z M12,12H4V2h8V12z"/>
</g>
<g id="phone">
</g>
</svg>
