<?xml version="1.0" encoding="utf-8"?>
<!-- Generator: Adobe Illustrator 16.0.0, SVG Export Plug-In . SVG Version: 6.00 Build 0)  -->
<!DOCTYPE svg PUBLIC "-//W3C//DTD SVG 1.1//EN" "http://www.w3.org/Graphics/SVG/1.1/DTD/svg11.dtd">
<svg version="1.1" xmlns="http://www.w3.org/2000/svg" xmlns:xlink="http://www.w3.org/1999/xlink" x="0px" y="0px" width="16px"
	 height="16px" viewBox="0 0 16 16" style="enable-background:new 0 0 16 16;" xml:space="preserve">
<style type="text/css">
<![CDATA[
	.st0{fill:#231F20;}
	.st1{fill:none;}
]]>
</style>
<g id="_x2D_Labels">
</g>
<g id="database">
</g>
<g id="eye">
</g>
<g id="image">
</g>
<g id="browser">
</g>
<g id="bookmark">
</g>
<g id="lock">
</g>
<g id="location">
</g>
<g id="calendar">
</g>
<g id="envelope">
</g>
<g id="link">
</g>
<g id="paperclip">
</g>
<g id="pencil">
</g>
<g id="search">
</g>
<g id="gear">
</g>
<g id="funnel">
</g>
<g id="trash">
</g>
<g id="camera">
</g>
<g id="phone-smart">
</g>
<g id="phone">
	<g>
		<path class="st0" d="M13,0.5C13,0.224,12.776,0,12.5,0h-9C3.224,0,3,0.224,3,0.5V3h10V0.5z"/>
		<path class="st0" d="M15,4.5H1c-0.553,0-1,0.447-1,1v8C0,13.776,0.224,14,0.5,14h1v-2v-0.001c0-0.553,0.447-1,1-1h11
			c0.553,0,1,0.447,1,1V12v2h1c0.276,0,0.5-0.224,0.5-0.5v-8C16,4.947,15.553,4.5,15,4.5z M11,7.5C11,7.776,10.776,8,10.5,8h-1
			C9.224,8,9,7.776,9,7.5v-1C9,6.224,9.224,6,9.5,6h1C10.776,6,11,6.224,11,6.5V7.5z M14,7.5C14,7.776,13.776,8,13.5,8h-1
			C12.224,8,12,7.776,12,7.5v-1C12,6.224,12.224,6,12.5,6h1C13.776,6,14,6.224,14,6.5V7.5z"/>
		<path class="st0" d="M13,12.499H3V15.5C3,15.776,3.224,16,3.5,16h9c0.276,0,0.5-0.224,0.5-0.5V12.499z"/>
	</g>
</g>
</svg>
