<?xml version="1.0" encoding="utf-8"?>
<!-- Generator: Adobe Illustrator 16.0.0, SVG Export Plug-In . SVG Version: 6.00 Build 0)  -->
<!DOCTYPE svg PUBLIC "-//W3C//DTD SVG 1.1//EN" "http://www.w3.org/Graphics/SVG/1.1/DTD/svg11.dtd">
<svg version="1.1" id="Layer_1" xmlns="http://www.w3.org/2000/svg" xmlns:xlink="http://www.w3.org/1999/xlink" x="0px" y="0px"
	 width="16px" height="16px" viewBox="0 0 16 16" style="enable-background:new 0 0 16 16;" xml:space="preserve">
<style type="text/css">
<![CDATA[
	.st0{fill:#231F20;}
	.st1{fill:none;}
]]>
</style>
<path class="st0" d="M8,0C3.582,0,0,3.582,0,8s3.582,8,8,8s8-3.582,8-8S12.418,0,8,0z M9,12.5C9,12.776,8.776,13,8.5,13h-1
	C7.224,13,7,12.776,7,12.5v-1C7,11.224,7.224,11,7.5,11h1C8.776,11,9,11.224,9,11.5V12.5z M11.367,5.892
	c0,1.777-1.27,2.583-2.836,2.849L8.462,9.057C8.42,9.248,8.25,9.384,8.055,9.384h-0.45c-0.205,0-0.38-0.149-0.412-0.352L6.966,7.598
	l0.071-0.071c1.791-0.069,2.609-0.648,2.609-1.577V5.92c0-0.791-0.607-1.34-1.623-1.34c-0.751,0-1.391,0.281-1.979,0.803
	C5.858,5.547,5.575,5.534,5.405,5.354L4.962,4.88C4.791,4.697,4.798,4.411,4.978,4.237C5.75,3.489,6.729,3,8.066,3
	c1.975,0,3.301,1.1,3.301,2.862V5.892z"/>
</svg>
