<?xml version="1.0" encoding="utf-8"?>
<!-- Generator: Adobe Illustrator 16.0.0, SVG Export Plug-In . SVG Version: 6.00 Build 0)  -->
<!DOCTYPE svg PUBLIC "-//W3C//DTD SVG 1.1//EN" "http://www.w3.org/Graphics/SVG/1.1/DTD/svg11.dtd">
<svg version="1.1" id="Layer_1" xmlns="http://www.w3.org/2000/svg" xmlns:xlink="http://www.w3.org/1999/xlink" x="0px" y="0px"
	 width="16px" height="16px" viewBox="0 0 16 16" style="enable-background:new 0 0 16 16;" xml:space="preserve">
<style type="text/css">
<![CDATA[
	.st0{fill:#231F20;}
	.st1{fill:none;}
]]>
</style>
<g>
	<path class="st0" d="M13.223,4.626V4.579C13.223,1.76,11.101,0,7.942,0C5.803,0,4.236,0.782,3,1.98
		C2.713,2.259,2.701,2.717,2.976,3.009l0.71,0.757c0.271,0.289,0.724,0.31,1.021,0.047c0.941-0.834,1.965-1.284,3.166-1.284
		c1.625,0,2.597,0.878,2.597,2.143v0.047c0,1.486-1.309,2.412-4.175,2.524L6.182,7.355l0.37,2.585
		c0.047,0.328,0.328,0.572,0.66,0.572h0.685c0.325,0,0.604-0.234,0.657-0.555l0.132-0.774C11.192,8.758,13.223,7.469,13.223,4.626z"
		/>
	<path class="st0" d="M7.491,12.907c-0.835,0-1.513,0.678-1.513,1.513v0.067C5.979,15.322,6.656,16,7.491,16
		s1.513-0.678,1.513-1.513V14.42C9.004,13.585,8.326,12.907,7.491,12.907z"/>
</g>
</svg>
