<?xml version="1.0" encoding="utf-8"?>
<!-- Generator: Adobe Illustrator 16.0.0, SVG Export Plug-In . SVG Version: 6.00 Build 0)  -->
<!DOCTYPE svg PUBLIC "-//W3C//DTD SVG 1.1//EN" "http://www.w3.org/Graphics/SVG/1.1/DTD/svg11.dtd">
<svg version="1.1" id="Layer_1" xmlns="http://www.w3.org/2000/svg" xmlns:xlink="http://www.w3.org/1999/xlink" x="0px" y="0px"
	 width="16px" height="16px" viewBox="0 0 16 16" style="enable-background:new 0 0 16 16;" xml:space="preserve">
<style type="text/css">
<![CDATA[
	.st0{fill:#231F20;}
	.st1{fill:none;}
]]>
</style>
<path class="st0" d="M8.46,8.219C8.627,9,14.103,10.086,14.507,9.779c0.407-0.307,0.842-5.87,0.138-6.242
	c-0.21-0.11-0.819,0.483-1.614,1.213C11.962,3.099,10.113,2,8,2C4.687,2,2,4.687,2,8s2.687,6,6,6c1.42,0,2.724-0.493,3.752-1.317
	c0.168-0.135,0.271-0.336,0.282-0.551c0.011-0.216-0.07-0.426-0.224-0.578c-0.278-0.273-0.709-0.312-1.031-0.092
	c-1.989,1.363-5.095,0.762-5.811-1.931C4.071,6.157,8.42,4.089,10.281,6.866C9.247,7.51,8.404,7.953,8.46,8.219z"/>
</svg>
