<?xml version="1.0" encoding="utf-8"?>
<!-- Generator: Adobe Illustrator 16.0.0, SVG Export Plug-In . SVG Version: 6.00 Build 0)  -->
<!DOCTYPE svg PUBLIC "-//W3C//DTD SVG 1.1//EN" "http://www.w3.org/Graphics/SVG/1.1/DTD/svg11.dtd">
<svg version="1.1" id="Layer_1" xmlns="http://www.w3.org/2000/svg" xmlns:xlink="http://www.w3.org/1999/xlink" x="0px" y="0px"
	 width="16px" height="16px" viewBox="0 0 16 16" style="enable-background:new 0 0 16 16;" xml:space="preserve">
<style type="text/css">
<![CDATA[
	.st0{fill:#231F20;}
	.st1{fill:none;}
]]>
</style>
<g>
	<path class="st1" d="M10,6.5C10,4.57,8.43,3,6.5,3S3,4.57,3,6.5S4.57,10,6.5,10S10,8.43,10,6.5z"/>
	<path class="st0" d="M14.707,13.293l-3.54-3.91C11.688,8.543,12,7.561,12,6.5C12,3.462,9.538,1,6.5,1S1,3.462,1,6.5
		S3.462,12,6.5,12c1.061,0,2.043-0.312,2.883-0.833l3.91,3.54c0.391,0.391,1.023,0.391,1.414,0S15.098,13.684,14.707,13.293z M3,6.5
		C3,4.57,4.57,3,6.5,3S10,4.57,10,6.5S8.43,10,6.5,10S3,8.43,3,6.5z"/>
</g>
</svg>
