<?xml version="1.0" encoding="utf-8"?>
<!-- Generator: Adobe Illustrator 16.0.0, SVG Export Plug-In . SVG Version: 6.00 Build 0)  -->
<!DOCTYPE svg PUBLIC "-//W3C//DTD SVG 1.1//EN" "http://www.w3.org/Graphics/SVG/1.1/DTD/svg11.dtd">
<svg version="1.1" id="Layer_1" xmlns="http://www.w3.org/2000/svg" xmlns:xlink="http://www.w3.org/1999/xlink" x="0px" y="0px"
	 width="16px" height="16px" viewBox="0 0 16 16" style="enable-background:new 0 0 16 16;" xml:space="preserve">
<style type="text/css">
<![CDATA[
	.st0{fill:#231F20;}
	.st1{fill:none;}
]]>
</style>
<g>
	<path class="st0" d="M14.941,8.616c-0.352,0.299-0.67,0.555-0.964,0.78c-0.032,1.029-0.103,1.955-0.219,2.438
		c-0.086,0.356-0.326,0.632-0.613,0.702c-1.357,0.332-3.292,0.522-5.307,0.522c-1.935,0-3.753-0.182-4.993-0.499
		c-0.281-0.071-0.518-0.345-0.603-0.694c-0.314-1.3-0.32-5.808-0.01-7.096c0.085-0.352,0.323-0.624,0.609-0.695
		c0.583-0.146,1.297-0.257,2.073-0.34c0.771-0.736,1.948-1.443,3.772-1.858c0.016-0.11,0.04-0.196,0.059-0.3
		C8.505,1.569,8.262,1.561,8.018,1.561c-2.063,0-4.132,0.191-5.661,0.574c-1.01,0.252-1.808,1.088-2.067,2.168
		c-0.384,1.589-0.382,6.413,0.01,8.033c0.261,1.074,1.052,1.908,2.054,2.163c1.482,0.379,3.479,0.561,5.486,0.561
		c2.107,0,4.229-0.2,5.782-0.58c1.017-0.248,1.82-1.089,2.082-2.177c0.216-0.904,0.313-2.829,0.29-4.626
		C15.696,7.958,15.353,8.267,14.941,8.616z"/>
	<path class="st0" d="M10.796,0.963c-0.252,0.119-0.412,1.136-0.486,2.408C5.62,3.945,4.617,6.425,5.408,8.237
		c0.521,1.19,1.649,1.75,2.199,1.961l0.054,0.01l0.106-0.044l0.033-0.16c-0.659-1.695-0.568-2.715,2.438-2.715h0.112
		c0.086,0.99,0.233,1.73,0.445,1.83l0.118,0.022c1.013,0,5.028-3.589,5.028-4.101S11.929,0.94,10.915,0.94L10.796,0.963z"/>
</g>
</svg>
