<?xml version="1.0" encoding="utf-8"?>
<!-- Generator: Adobe Illustrator 16.0.0, SVG Export Plug-In . SVG Version: 6.00 Build 0)  -->
<!DOCTYPE svg PUBLIC "-//W3C//DTD SVG 1.1//EN" "http://www.w3.org/Graphics/SVG/1.1/DTD/svg11.dtd">
<svg version="1.1" id="Layer_1" xmlns="http://www.w3.org/2000/svg" xmlns:xlink="http://www.w3.org/1999/xlink" x="0px" y="0px"
	 width="16px" height="16px" viewBox="0 0 16 16" style="enable-background:new 0 0 16 16;" xml:space="preserve">
<style type="text/css">
<![CDATA[
	.st0{fill:#231F20;}
	.st1{fill:none;}
]]>
</style>
<g>
	<path class="st0" d="M3.35,14.184c0.799,0.205,2.358,0.348,3.646,0.438c0.26,0.02,0.516-0.072,0.706-0.25S8,13.945,8,13.684v-0.068
		c0-0.525-0.405-0.959-0.929-0.996c-1.169-0.084-2.582-0.207-3.229-0.373C3.562,12.174,3.325,11.9,3.24,11.551
		c-0.314-1.299-0.32-5.807-0.01-7.096C3.315,4.104,3.554,3.832,3.84,3.76c0.657-0.164,2.069-0.289,3.233-0.375
		C7.596,3.346,8,2.912,8,2.389V2.252C8,2.01,7.898,1.777,7.721,1.611s-0.416-0.25-0.658-0.232C5.765,1.471,4.166,1.617,3.354,1.82
		c-1.01,0.252-1.808,1.088-2.067,2.168c-0.384,1.588-0.382,6.412,0.01,8.033C1.557,13.096,2.348,13.93,3.35,14.184z"/>
	<path class="st0" d="M9.854,3.91C9.599,4.029,9.438,5.07,9.364,6.363L5.99,6.846C5.422,6.928,5,7.414,5,7.988
		s0.422,1.061,0.99,1.141l3.374,0.482c0.073,1.295,0.234,2.334,0.489,2.455C10.613,12.42,15,8.523,15,7.988S10.613,3.557,9.854,3.91
		z"/>
</g>
</svg>
