<?xml version="1.0" encoding="utf-8"?>
<!-- Generator: Adobe Illustrator 16.0.0, SVG Export Plug-In . SVG Version: 6.00 Build 0)  -->
<!DOCTYPE svg PUBLIC "-//W3C//DTD SVG 1.1//EN" "http://www.w3.org/Graphics/SVG/1.1/DTD/svg11.dtd">
<svg version="1.1" id="Layer_1" xmlns="http://www.w3.org/2000/svg" xmlns:xlink="http://www.w3.org/1999/xlink" x="0px" y="0px"
	 width="16px" height="16px" viewBox="0 0 16 16" style="enable-background:new 0 0 16 16;" xml:space="preserve">
<style type="text/css">
<![CDATA[
	.st0{fill:#231F20;}
	.st1{fill:none;}
]]>
</style>
<g>
	<path class="st0" d="M14.001,2h-10c-0.553,0-1,0.447-1,1s0.447,1,1,1h10c0.553,0,1-0.447,1-1S14.554,2,14.001,2z"/>
	<path class="st0" d="M14.001,6h-6c-0.553,0-1,0.447-1,1s0.447,1,1,1h6c0.553,0,1-0.447,1-1S14.554,6,14.001,6z"/>
	<path class="st0" d="M14.001,10h-4c-0.553,0-1,0.447-1,1s0.447,1,1,1h4c0.553,0,1-0.447,1-1S14.554,10,14.001,10z"/>
	<path class="st0" d="M4.001,6c-0.553,0-1,0.447-1,1v3.021c-1.038,0.045-1.896,0.163-1.986,0.354C0.765,10.911,3.564,14,3.94,14
		c0.377,0,3.296-3.089,3.046-3.624c-0.09-0.191-0.947-0.31-1.985-0.354V7C5.001,6.447,4.554,6,4.001,6z"/>
</g>
</svg>
