<?xml version="1.0" encoding="utf-8"?>
<!-- Generator: Adobe Illustrator 16.0.0, SVG Export Plug-In . SVG Version: 6.00 Build 0)  -->
<!DOCTYPE svg PUBLIC "-//W3C//DTD SVG 1.1//EN" "http://www.w3.org/Graphics/SVG/1.1/DTD/svg11.dtd">
<svg version="1.1" id="Layer_1" xmlns="http://www.w3.org/2000/svg" xmlns:xlink="http://www.w3.org/1999/xlink" x="0px" y="0px"
	 width="16px" height="16px" viewBox="0 0 16 16" style="enable-background:new 0 0 16 16;" xml:space="preserve">
<style type="text/css">
<![CDATA[
	.st0{fill:#231F20;}
	.st1{fill:none;}
]]>
</style>
<path class="st0" d="M3.681,14.813l0.262,0.029c0.85-0.397,2.822-1.32,4.058-1.934c1.235,0.613,3.208,1.536,4.058,1.934l0.262-0.029
	l0.107-0.251c-0.09-0.958-0.302-3.155-0.491-4.58c0.99-1.058,2.415-2.791,3.015-3.53L15,6.185l-0.192-0.183
	c-0.887-0.205-2.958-0.675-4.345-0.913c-0.651-1.331-1.762-3.29-2.237-4.116L8,0.84L7.774,0.973
	C7.299,1.799,6.188,3.758,5.537,5.089C4.15,5.327,2.079,5.797,1.192,6.002L1,6.186l0.05,0.267c0.6,0.739,2.024,2.473,3.015,3.53
	c-0.189,1.425-0.401,3.622-0.491,4.58L3.681,14.813z"/>
</svg>
