<?xml version="1.0" encoding="utf-8"?>
<!-- Generator: Adobe Illustrator 16.0.0, SVG Export Plug-In . SVG Version: 6.00 Build 0)  -->
<!DOCTYPE svg PUBLIC "-//W3C//DTD SVG 1.1//EN" "http://www.w3.org/Graphics/SVG/1.1/DTD/svg11.dtd">
<svg version="1.1" xmlns="http://www.w3.org/2000/svg" xmlns:xlink="http://www.w3.org/1999/xlink" x="0px" y="0px" width="16px"
	 height="16px" viewBox="0 0 16 16" style="enable-background:new 0 0 16 16;" xml:space="preserve">
<style type="text/css">
<![CDATA[
	.st0{fill:#231F20;}
	.st1{fill:none;}
	.st2{display:none;}
]]>
</style>
<g id="Layer_1">
	<g>
		<path class="st0" d="M14,5.5H2c0.003,2.734,0.246,6.843,0.434,9.569C2.47,15.595,2.905,16,3.432,16h9.137
			c0.525,0,0.962-0.406,0.998-0.931C13.754,12.341,13.997,8.234,14,5.5z"/>
		<path class="st0" d="M14.504,3.999C14.48,2.887,13.573,2,12.462,2h-1.628L10.64,0.835C10.559,0.353,10.142,0,9.653,0H6.347
			C5.858,0,5.441,0.353,5.36,0.835L5.166,2H3.538C2.428,2,1.52,2.888,1.496,3.999c0,0,0,0.001,0,0.001c0,0,0.548,0,13.008,0
			C14.504,4,14.504,3.999,14.504,3.999z M7,1.5h2V2H7V1.5z"/>
	</g>
</g>
<g id="nyt_x5F_exporter_x5F_info" class="st2">
</g>
</svg>
