<?xml version="1.0" encoding="utf-8"?>
<!-- Generator: Adobe Illustrator 16.0.0, SVG Export Plug-In . SVG Version: 6.00 Build 0)  -->
<!DOCTYPE svg PUBLIC "-//W3C//DTD SVG 1.1//EN" "http://www.w3.org/Graphics/SVG/1.1/DTD/svg11.dtd">
<svg version="1.1" id="_x2D_Labels" xmlns="http://www.w3.org/2000/svg" xmlns:xlink="http://www.w3.org/1999/xlink" x="0px"
	 y="0px" width="16px" height="16px" viewBox="0 0 16 16" style="enable-background:new 0 0 16 16;" xml:space="preserve">
<style type="text/css">
<![CDATA[
	.st0{fill-rule:evenodd;clip-rule:evenodd;}
]]>
</style>
<path d="M16,3.038c-0.589,0.261-1.221,0.438-1.885,0.517c0.678-0.406,1.198-1.05,1.443-1.816c-0.634,0.377-1.337,0.649-2.084,0.797
	c-0.599-0.638-1.452-1.036-2.396-1.036c-1.813,0-3.283,1.47-3.283,3.282c0,0.257,0.029,0.508,0.085,0.748
	C5.152,5.393,2.733,4.085,1.114,2.1C0.831,2.584,0.669,3.148,0.669,3.75c0,1.139,0.58,2.144,1.46,2.732
	C1.592,6.465,1.085,6.317,0.643,6.071c0,0.014,0,0.027,0,0.041c0,1.591,1.131,2.918,2.633,3.219C3,9.406,2.71,9.446,2.411,9.446
	c-0.211,0-0.417-0.021-0.618-0.059c0.417,1.304,1.63,2.253,3.066,2.279c-1.124,0.881-2.539,1.405-4.077,1.405
	c-0.265,0-0.526-0.016-0.783-0.046c1.453,0.932,3.178,1.475,5.032,1.475c6.038,0,9.34-5.001,9.34-9.339
	c0-0.143-0.003-0.284-0.01-0.425C15.003,4.274,15.56,3.696,16,3.038z"/>
</svg>
