<?xml version="1.0" encoding="utf-8"?>
<!-- Generator: Adobe Illustrator 16.0.0, SVG Export Plug-In . SVG Version: 6.00 Build 0)  -->
<!DOCTYPE svg PUBLIC "-//W3C//DTD SVG 1.1//EN" "http://www.w3.org/Graphics/SVG/1.1/DTD/svg11.dtd">
<svg version="1.1" id="Layer_1" xmlns="http://www.w3.org/2000/svg" xmlns:xlink="http://www.w3.org/1999/xlink" x="0px" y="0px"
	 width="16px" height="16px" viewBox="0 0 16 16" style="enable-background:new 0 0 16 16;" xml:space="preserve">
<style type="text/css">
<![CDATA[
	.st0{fill:#231F20;}
	.st1{fill:none;}
]]>
</style>
<g>
	<path class="st0" d="M14.184,12.65c0.205-0.799,0.348-2.358,0.438-3.646c0.02-0.26-0.072-0.516-0.25-0.706S13.945,8,13.684,8
		h-0.068c-0.525,0-0.959,0.405-0.996,0.929c-0.084,1.169-0.207,2.582-0.373,3.229c-0.072,0.281-0.346,0.518-0.695,0.603
		c-1.299,0.314-5.807,0.32-7.096,0.01c-0.352-0.085-0.623-0.323-0.695-0.609c-0.164-0.657-0.289-2.069-0.375-3.233
		C3.346,8.404,2.912,8,2.389,8H2.252C2.01,8,1.777,8.102,1.611,8.279s-0.25,0.416-0.232,0.658c0.092,1.298,0.238,2.896,0.441,3.709
		c0.252,1.01,1.088,1.808,2.168,2.067c1.588,0.384,6.412,0.382,8.033-0.01C13.096,14.443,13.93,13.652,14.184,12.65z"/>
	<path class="st0" d="M6.846,10.01C6.928,10.578,7.414,11,7.988,11s1.061-0.422,1.141-0.99l0.482-3.374
		c1.295-0.073,2.334-0.234,2.455-0.489C12.42,5.387,8.523,1,7.988,1S3.557,5.387,3.91,6.146c0.119,0.255,1.16,0.416,2.453,0.489
		L6.846,10.01z"/>
</g>
</svg>
