<?xml version="1.0" encoding="utf-8"?>
<!-- Generator: Adobe Illustrator 16.0.0, SVG Export Plug-In . SVG Version: 6.00 Build 0)  -->
<!DOCTYPE svg PUBLIC "-//W3C//DTD SVG 1.1//EN" "http://www.w3.org/Graphics/SVG/1.1/DTD/svg11.dtd">
<svg version="1.1" id="Layer_1" xmlns="http://www.w3.org/2000/svg" xmlns:xlink="http://www.w3.org/1999/xlink" x="0px" y="0px"
	 width="16px" height="16px" viewBox="0 0 16 16" style="enable-background:new 0 0 16 16;" xml:space="preserve">
<style type="text/css">
<![CDATA[
	.st0{fill:#231F20;}
	.st1{fill:none;}
]]>
</style>
<path class="st0" d="M8.825,1.386C8.621,1.141,8.318,1,8.001,1C7.683,0.999,7.38,1.14,7.176,1.385
	C5.398,3.518,1.688,7.968,1.688,7.968C1.423,8.287,1.366,8.733,1.543,9.109c0.387,0.828,1.593,0.768,2.04,0.232L6.4,6.332
	l0.378,7.56C6.81,14.512,7.32,15,7.943,15h0.113c0.623,0,1.134-0.488,1.165-1.108L9.6,6.332l2.817,3.01
	c0.447,0.535,1.653,0.596,2.04-0.232c0.177-0.376,0.12-0.822-0.146-1.142L8.825,1.386z"/>
</svg>
