<?xml version="1.0" encoding="utf-8"?>
<!-- Generator: Adobe Illustrator 16.0.0, SVG Export Plug-In . SVG Version: 6.00 Build 0)  -->
<!DOCTYPE svg PUBLIC "-//W3C//DTD SVG 1.1//EN" "http://www.w3.org/Graphics/SVG/1.1/DTD/svg11.dtd">
<svg version="1.1" xmlns="http://www.w3.org/2000/svg" xmlns:xlink="http://www.w3.org/1999/xlink" x="0px" y="0px" width="16px"
	 height="16px" viewBox="0 0 16 16" style="enable-background:new 0 0 16 16;" xml:space="preserve">
<style type="text/css">
<![CDATA[
	.st0{fill:#231F20;}
	.st1{fill:none;}
	.st2{display:none;}
]]>
</style>
<g id="Layer_1">
	<path class="st0" d="M2.343,2.343c-3.124,3.124-3.124,8.189,0,11.313s8.189,3.124,11.313,0s3.124-8.189,0-11.313
		S5.467-0.781,2.343,2.343z M4.75,4.179c0.125-0.126,0.324-0.14,0.467-0.033C6.193,4.877,7.113,5.676,8,6.508
		c0.887-0.831,1.806-1.63,2.781-2.361c0.142-0.106,0.341-0.092,0.467,0.033l0.572,0.572c0.125,0.125,0.14,0.325,0.033,0.467
		l-0.001,0.001C11.12,6.195,10.322,7.113,9.491,8c0.832,0.887,1.63,1.806,2.362,2.781c0.106,0.142,0.092,0.341-0.033,0.467
		l-0.572,0.572c-0.125,0.125-0.325,0.14-0.467,0.033l-0.001-0.001C9.805,11.12,8.887,10.322,8,9.49
		c-0.887,0.833-1.806,1.632-2.782,2.364c-0.143,0.107-0.342,0.093-0.467-0.033L4.179,11.25c-0.126-0.125-0.14-0.324-0.033-0.467
		C4.877,9.807,5.676,8.887,6.509,8C5.676,7.113,4.877,6.193,4.146,5.218C4.039,5.075,4.053,4.876,4.179,4.75L4.75,4.179z"/>
</g>
<g id="nyt_x5F_exporter_x5F_info" class="st2">
</g>
</svg>
