<?xml version="1.0" encoding="utf-8"?>
<!-- Generator: Adobe Illustrator 16.0.0, SVG Export Plug-In . SVG Version: 6.00 Build 0)  -->
<!DOCTYPE svg PUBLIC "-//W3C//DTD SVG 1.1//EN" "http://www.w3.org/Graphics/SVG/1.1/DTD/svg11.dtd">
<svg version="1.1" id="Layer_1" xmlns="http://www.w3.org/2000/svg" xmlns:xlink="http://www.w3.org/1999/xlink" x="0px" y="0px"
	 width="16px" height="16px" viewBox="0 0 16 16" style="enable-background:new 0 0 16 16;" xml:space="preserve">
<style type="text/css">
<![CDATA[
	.st0{fill:#231F20;}
	.st1{fill:none;}
]]>
</style>
<path class="st0" d="M1.293,14.707c0.391,0.391,1.023,0.391,1.414,0L8,9.914l5.293,4.793c0.391,0.391,1.023,0.391,1.414,0
	s0.391-1.023,0-1.414L9.914,8l4.793-5.293c0.391-0.391,0.391-1.023,0-1.414s-1.023-0.391-1.414,0L8,6.086L2.707,1.293
	c-0.391-0.391-1.023-0.391-1.414,0s-0.391,1.023,0,1.414L6.086,8l-4.793,5.293C0.902,13.684,0.902,14.316,1.293,14.707z"/>
</svg>
