<?xml version="1.0" encoding="utf-8"?>
<!-- Generator: Adobe Illustrator 16.0.0, SVG Export Plug-In . SVG Version: 6.00 Build 0)  -->
<!DOCTYPE svg PUBLIC "-//W3C//DTD SVG 1.1//EN" "http://www.w3.org/Graphics/SVG/1.1/DTD/svg11.dtd">
<svg version="1.1" xmlns="http://www.w3.org/2000/svg" xmlns:xlink="http://www.w3.org/1999/xlink" x="0px" y="0px" width="16px"
	 height="16px" viewBox="0 0 16 16" style="enable-background:new 0 0 16 16;" xml:space="preserve">
<style type="text/css">
<![CDATA[
	.st0{fill:#231F20;}
	.st1{fill:none;}
	.st2{display:none;}
]]>
</style>
<g id="Layer_1">
	<path class="st0" d="M13.396,11.896c-1.02-1.36-2.114-2.659-3.272-3.896c1.158-1.237,2.252-2.536,3.272-3.896
		c0.15-0.199,0.13-0.478-0.046-0.654L12.549,2.65c-0.176-0.176-0.455-0.196-0.654-0.046C10.536,3.624,9.237,4.718,8,5.876
		C6.763,4.718,5.464,3.624,4.104,2.604c-0.199-0.15-0.478-0.13-0.654,0.046L2.65,3.451C2.474,3.627,2.454,3.905,2.604,4.104
		C3.624,5.464,4.718,6.763,5.876,8c-1.158,1.237-2.252,2.536-3.272,3.896c-0.15,0.199-0.13,0.478,0.046,0.654l0.801,0.801
		c0.176,0.176,0.455,0.196,0.654,0.046c1.36-1.02,2.659-2.114,3.896-3.272c1.237,1.158,2.536,2.252,3.896,3.272
		c0.199,0.15,0.478,0.13,0.654-0.046l0.801-0.801C13.526,12.373,13.546,12.095,13.396,11.896z"/>
</g>
<g id="nyt_x5F_exporter_x5F_info" class="st2">
</g>
</svg>
