<?xml version="1.0" encoding="utf-8"?>
<!-- Generator: Adobe Illustrator 16.0.0, SVG Export Plug-In . SVG Version: 6.00 Build 0)  -->
<!DOCTYPE svg PUBLIC "-//W3C//DTD SVG 1.1//EN" "http://www.w3.org/Graphics/SVG/1.1/DTD/svg11.dtd">
<svg version="1.1" id="Layer_1" xmlns="http://www.w3.org/2000/svg" xmlns:xlink="http://www.w3.org/1999/xlink" x="0px" y="0px"
	 width="16px" height="16px" viewBox="0 0 16 16" enable-background="new 0 0 16 16" xml:space="preserve">
<path fill="#231F20" d="M11.786,6.85L9.371,9.43L9.048,2.95C9.021,2.418,8.582,2,8.049,2H7.951C7.418,2,6.979,2.418,6.952,2.95
	L6.629,9.43L4.214,6.85C3.831,6.391,2.797,6.34,2.465,7.049C2.313,7.372,2.362,7.754,2.591,8.028l4.701,5.641
	C7.467,13.879,7.727,14,7.999,14c0.273,0.001,0.533-0.12,0.708-0.33c1.523-1.828,4.702-5.642,4.702-5.642
	c0.229-0.274,0.277-0.656,0.126-0.979C13.203,6.34,12.169,6.391,11.786,6.85z"/>
</svg>
