<?xml version="1.0" encoding="utf-8"?>
<!-- Generator: Adobe Illustrator 16.0.0, SVG Export Plug-In . SVG Version: 6.00 Build 0)  -->
<!DOCTYPE svg PUBLIC "-//W3C//DTD SVG 1.1//EN" "http://www.w3.org/Graphics/SVG/1.1/DTD/svg11.dtd">
<svg version="1.1" id="Layer_1" xmlns="http://www.w3.org/2000/svg" xmlns:xlink="http://www.w3.org/1999/xlink" x="0px" y="0px"
	 width="16px" height="16px" viewBox="0 0 16 16" enable-background="new 0 0 16 16" xml:space="preserve">
<g>
	<path fill="#231F20" d="M14.195,12.65c0.205-0.799,0.348-2.358,0.438-3.646c0.019-0.26-0.071-0.516-0.25-0.706
		C14.206,8.108,13.957,8,13.695,8h-0.067c-0.524,0-0.959,0.405-0.997,0.93c-0.083,1.168-0.207,2.581-0.373,3.229
		c-0.07,0.281-0.345,0.518-0.693,0.603c-1.301,0.314-5.809,0.32-7.097,0.011c-0.352-0.086-0.624-0.323-0.695-0.609
		c-0.165-0.657-0.29-2.069-0.376-3.232C3.358,8.404,2.924,8,2.4,8H2.265C2.021,8,1.789,8.102,1.624,8.279
		C1.458,8.457,1.373,8.695,1.391,8.938c0.093,1.299,0.238,2.896,0.441,3.709C2.084,13.656,2.92,14.454,4,14.714
		c1.589,0.384,6.413,0.382,8.033-0.01C13.107,14.443,13.941,13.652,14.195,12.65z"/>
	<path fill="#231F20" d="M6.858,10.01C6.939,10.578,7.426,11,8,11s1.061-0.422,1.143-0.99l0.481-3.374
		c1.294-0.073,2.334-0.234,2.454-0.489C12.434,5.387,8.536,1,8.001,1S3.568,5.387,3.922,6.146c0.12,0.255,1.16,0.416,2.454,0.489
		L6.858,10.01z"/>
</g>
</svg>
