<?xml version="1.0" encoding="utf-8"?>
<!-- Generator: Adobe Illustrator 16.0.0, SVG Export Plug-In . SVG Version: 6.00 Build 0)  -->
<!DOCTYPE svg PUBLIC "-//W3C//DTD SVG 1.1//EN" "http://www.w3.org/Graphics/SVG/1.1/DTD/svg11.dtd">
<svg version="1.1" id="Layer_1" xmlns="http://www.w3.org/2000/svg" xmlns:xlink="http://www.w3.org/1999/xlink" x="0px" y="0px"
	 width="16px" height="16px" viewBox="0 0 16 16" enable-background="new 0 0 16 16" xml:space="preserve">
<path fill="#231F20" d="M9.5,15.5V9.323c0-0.21,0.066-0.415,0.189-0.585l5.164-7.152c0.222-0.305,0.252-0.707,0.08-1.041
	C14.764,0.21,14.42,0,14.044,0H1.956C1.58,0,1.236,0.21,1.065,0.545c-0.171,0.334-0.141,0.736,0.08,1.041L6.31,8.738
	C6.434,8.908,6.5,9.113,6.5,9.323V15.5C6.5,15.775,6.724,16,7,16h1h1C9.275,16,9.5,15.775,9.5,15.5z"/>
</svg>
