<?xml version="1.0" encoding="utf-8"?>
<!-- Generator: Adobe Illustrator 16.0.0, SVG Export Plug-In . SVG Version: 6.00 Build 0)  -->
<!DOCTYPE svg PUBLIC "-//W3C//DTD SVG 1.1//EN" "http://www.w3.org/Graphics/SVG/1.1/DTD/svg11.dtd">
<svg version="1.1" id="Layer_1" xmlns="http://www.w3.org/2000/svg" xmlns:xlink="http://www.w3.org/1999/xlink" x="0px" y="0px"
	 width="16px" height="16px" viewBox="0 0 16 16" enable-background="new 0 0 16 16" xml:space="preserve">
<path fill="#231F20" d="M8.708,2.331C8.533,2.121,8.273,2,8.001,2C7.728,1.999,7.468,2.12,7.293,2.33
	C5.77,4.158,2.591,7.972,2.591,7.972C2.362,8.246,2.313,8.628,2.465,8.951C2.797,9.66,3.831,9.609,4.214,9.15l2.415-2.58
	l0.323,6.479C6.979,13.582,7.418,14,7.951,14h0.098c0.533,0,0.972-0.418,0.999-0.95L9.371,6.57l2.415,2.58
	c0.383,0.459,1.417,0.51,1.749-0.199c0.151-0.323,0.103-0.705-0.126-0.979L8.708,2.331z"/>
</svg>
