<?xml version="1.0" encoding="utf-8"?>
<!-- Generator: Adobe Illustrator 16.0.0, SVG Export Plug-In . SVG Version: 6.00 Build 0)  -->
<!DOCTYPE svg PUBLIC "-//W3C//DTD SVG 1.1//EN" "http://www.w3.org/Graphics/SVG/1.1/DTD/svg11.dtd">
<svg version="1.1" id="Layer_1" xmlns="http://www.w3.org/2000/svg" xmlns:xlink="http://www.w3.org/1999/xlink" x="0px" y="0px"
	 width="16px" height="16px" viewBox="0 0 16 16" enable-background="new 0 0 16 16" xml:space="preserve">
<path fill="#231F20" d="M3.997,14.303l0.242,0.027C5.027,13.962,6.855,13.106,8,12.538c1.145,0.568,2.973,1.424,3.761,1.792
	l0.242-0.027l0.1-0.232c-0.083-0.888-0.279-2.924-0.455-4.245c0.918-0.979,2.238-2.586,2.794-3.271l0.046-0.248l-0.179-0.169
	c-0.821-0.19-2.741-0.625-4.026-0.847C9.679,4.057,8.649,2.241,8.209,1.476L8,1.353L7.791,1.476c-0.44,0.766-1.47,2.581-2.073,3.814
	C4.433,5.512,2.513,5.946,1.691,6.137l-0.179,0.17l0.046,0.247c0.556,0.686,1.876,2.292,2.794,3.271
	c-0.176,1.321-0.372,3.357-0.455,4.245L3.997,14.303z"/>
</svg>
