<?xml version="1.0" encoding="utf-8"?>
<!-- Generator: Adobe Illustrator 16.0.0, SVG Export Plug-In . SVG Version: 6.00 Build 0)  -->
<!DOCTYPE svg PUBLIC "-//W3C//DTD SVG 1.1//EN" "http://www.w3.org/Graphics/SVG/1.1/DTD/svg11.dtd">
<svg version="1.1" id="Layer_1" xmlns="http://www.w3.org/2000/svg" xmlns:xlink="http://www.w3.org/1999/xlink" x="0px" y="0px"
	 width="16px" height="16px" viewBox="0 0 16 16" enable-background="new 0 0 16 16" xml:space="preserve">
<path fill="#231F20" d="M11.029,9.616C11.641,8.73,12,7.657,12,6.5C12,3.462,9.538,1,6.5,1S1,3.462,1,6.5S3.462,12,6.5,12
	c1.157,0,2.23-0.359,3.116-0.971l3.677,3.678c0.391,0.391,1.023,0.391,1.414,0s0.391-1.023,0-1.414L11.029,9.616z M6.5,10
	C4.57,10,3,8.43,3,6.5S4.57,3,6.5,3S10,4.57,10,6.5S8.43,10,6.5,10z"/>
</svg>
