<?xml version="1.0" encoding="utf-8"?>
<!-- Generator: Adobe Illustrator 16.0.0, SVG Export Plug-In . SVG Version: 6.00 Build 0)  -->
<!DOCTYPE svg PUBLIC "-//W3C//DTD SVG 1.1//EN" "http://www.w3.org/Graphics/SVG/1.1/DTD/svg11.dtd">
<svg version="1.1" id="Layer_1" xmlns="http://www.w3.org/2000/svg" xmlns:xlink="http://www.w3.org/1999/xlink" x="0px" y="0px"
	 width="16px" height="16px" viewBox="0 0 16 16" enable-background="new 0 0 16 16" xml:space="preserve">
<path fill="#231F20" d="M12,5.395V5c0-2.209-1.791-4-4-4S4,2.791,4,5v0.395C4,8.31,2.892,9.55,1.777,10.952
	C1.576,11.205,1.511,11.54,1.6,11.852c0.09,0.311,0.323,0.559,0.629,0.666c1.146,0.404,2.452,0.66,3.803,0.793
	C6.181,14.266,7.002,15,8,15s1.818-0.734,1.969-1.689c1.352-0.133,2.656-0.389,3.803-0.793c0.307-0.107,0.539-0.355,0.629-0.666
	c0.09-0.312,0.022-0.646-0.178-0.898C13.107,9.55,12,8.31,12,5.395z"/>
</svg>
