<?xml version="1.0" encoding="utf-8"?>
<!-- Generator: Adobe Illustrator 16.0.0, SVG Export Plug-In . SVG Version: 6.00 Build 0)  -->
<!DOCTYPE svg PUBLIC "-//W3C//DTD SVG 1.1//EN" "http://www.w3.org/Graphics/SVG/1.1/DTD/svg11.dtd">
<svg version="1.1" id="Layer_1" xmlns="http://www.w3.org/2000/svg" xmlns:xlink="http://www.w3.org/1999/xlink" x="0px" y="0px"
	 width="16px" height="16px" viewBox="0 0 16 16" enable-background="new 0 0 16 16" xml:space="preserve">
<g>
	<path fill="#231F20" d="M8,2.343L6.232,4.111L6.217,4.13V4.129C4.672,5.693,4.676,8.211,6.232,9.768
		c0.391,0.392,1.023,0.392,1.414,0c0.391-0.391,0.391-1.022,0-1.414c-0.781-0.781-0.781-2.048,0-2.828L8.762,4.41l0.651-0.651
		c0.78-0.781,2.048-0.781,2.828,0c0.78,0.78,0.78,2.047,0,2.828L11.59,7.238c0.319,0.815,0.404,1.694,0.279,2.55L13.657,8
		c1.562-1.562,1.562-4.095,0-5.657C12.096,0.781,9.562,0.781,8,2.343z"/>
	<path fill="#231F20" d="M8,13.657l1.768-1.769l0.017-0.02v0.001c1.545-1.563,1.541-4.082-0.017-5.639
		c-0.391-0.391-1.022-0.391-1.414,0s-0.391,1.023,0,1.414c0.781,0.781,0.781,2.048,0,2.828l-1.116,1.116L6.587,12.24
		c-0.781,0.781-2.048,0.781-2.828,0c-0.781-0.78-0.781-2.047,0-2.828l0.354-0.354L4.411,8.76C4.09,7.947,4.005,7.068,4.13,6.213
		L2.696,7.646L2.343,8c-1.562,1.562-1.562,4.096,0,5.657C3.905,15.219,6.438,15.219,8,13.657z"/>
</g>
</svg>
