<?xml version="1.0" encoding="utf-8"?>
<!-- Generator: Adobe Illustrator 16.0.0, SVG Export Plug-In . SVG Version: 6.00 Build 0)  -->
<!DOCTYPE svg PUBLIC "-//W3C//DTD SVG 1.1//EN" "http://www.w3.org/Graphics/SVG/1.1/DTD/svg11.dtd">
<svg version="1.1" id="Layer_1" xmlns="http://www.w3.org/2000/svg" xmlns:xlink="http://www.w3.org/1999/xlink" x="0px" y="0px"
	 width="16px" height="16px" viewBox="0 0 16 16" enable-background="new 0 0 16 16" xml:space="preserve">
<g>
	<path fill="#231F20" d="M2,15c0.553,0,1-0.447,1-1V7c0-0.553-0.447-1-1-1S1,6.447,1,7v7C1,14.553,1.447,15,2,15z"/>
	<path fill="#231F20" d="M10.785,2.072C10.768,1.803,10.77,1.536,10.6,1.328S10.175,1,9.906,1H9.854
		C9.404,1,9.012,1.299,8.893,1.731C8.428,3.396,6.574,5.356,5.09,5.728L4.758,5.811C4.312,5.922,4,6.322,4,6.781V13
		c1.236,0,2.273,0.17,2.807,0.415C8.078,14,8.271,14,11,14c2.209,0,4-1.791,4-4c0-2.153,0.5-4-2-4h-3
		C10,6,10.917,4.125,10.785,2.072z"/>
</g>
</svg>
