<?xml version="1.0" encoding="utf-8"?>
<!-- Generator: Adobe Illustrator 16.0.0, SVG Export Plug-In . SVG Version: 6.00 Build 0)  -->
<!DOCTYPE svg PUBLIC "-//W3C//DTD SVG 1.1//EN" "http://www.w3.org/Graphics/SVG/1.1/DTD/svg11.dtd">
<svg version="1.1" id="Layer_1" xmlns="http://www.w3.org/2000/svg" xmlns:xlink="http://www.w3.org/1999/xlink" x="0px" y="0px"
	 width="16px" height="16px" viewBox="0 0 16 16" enable-background="new 0 0 16 16" xml:space="preserve">
<g>
	<path fill="#231F20" d="M1.104,13.62C2.701,13.867,4.335,14,6,14s3.299-0.133,4.896-0.38c0.307-0.047,0.573-0.234,0.723-0.506
		s0.165-0.598,0.041-0.882c-0.665-1.527-2.25-2.017-3.982-2.46C7.525,9.733,7.4,9.627,7.34,9.482
		C7.279,9.339,7.288,9.175,7.366,9.039C8.057,7.835,8.5,6.555,8.5,6c0-1.657-0.843-3-2.5-3S3.5,4.343,3.5,6
		c0,0.788,0.438,1.888,1.121,3.034c0.08,0.135,0.093,0.301,0.032,0.446c-0.06,0.146-0.186,0.255-0.338,0.294
		c-1.729,0.444-3.311,0.933-3.975,2.458c-0.124,0.284-0.109,0.609,0.04,0.882C0.53,13.386,0.798,13.573,1.104,13.62z"/>
	<path fill="#231F20" d="M12,4h-1.75C10.112,4,10,4.112,10,4.25v1.5C10,5.888,10.112,6,10.25,6H12v1.75C12,7.888,12.112,8,12.25,8
		h1.5C13.888,8,14,7.888,14,7.75V6h1.75C15.888,6,16,5.888,16,5.75v-1.5C16,4.112,15.888,4,15.75,4H14V2.25
		C14,2.112,13.888,2,13.75,2h-1.5C12.112,2,12,2.112,12,2.25V4z"/>
</g>
</svg>
