<?xml version="1.0" encoding="utf-8"?>
<!-- Generator: Adobe Illustrator 16.0.0, SVG Export Plug-In . SVG Version: 6.00 Build 0)  -->
<!DOCTYPE svg PUBLIC "-//W3C//DTD SVG 1.1//EN" "http://www.w3.org/Graphics/SVG/1.1/DTD/svg11.dtd">
<svg version="1.1" id="Layer_1" xmlns="http://www.w3.org/2000/svg" xmlns:xlink="http://www.w3.org/1999/xlink" x="0px" y="0px"
	 width="16px" height="16px" viewBox="0 0 16 16" enable-background="new 0 0 16 16" xml:space="preserve">
<g>
	<path fill="#231F20" d="M0.893,10.965c0.76,0.118,1.536,0.181,2.318,0.222c0.549-0.565,1.225-0.92,1.884-1.163
		C4.825,9.369,4.689,8.776,4.689,8.25c0-1.521,0.669-2.712,1.729-3.314C6.319,3.843,5.7,3,4.564,3C3.321,3,2.689,4.007,2.689,5.25
		c0,0.591,0.328,1.416,0.841,2.275C3.59,7.627,3.6,7.751,3.555,7.86s-0.14,0.191-0.254,0.221C2.004,8.414,0.818,8.78,0.32,9.924
		c-0.094,0.214-0.082,0.457,0.029,0.662C0.462,10.789,0.663,10.93,0.893,10.965z"/>
	<path fill="#231F20" d="M12.569,7.861c-0.046-0.107-0.039-0.23,0.02-0.332c0.518-0.903,0.851-1.863,0.851-2.279
		c0-1.243-0.632-2.25-1.875-2.25C10.429,3,9.81,3.843,9.71,4.936c1.061,0.603,1.729,1.793,1.729,3.314
		c0,0.505-0.186,1.146-0.436,1.762c0.669,0.244,1.356,0.601,1.914,1.175c0.781-0.041,1.558-0.104,2.318-0.222
		c0.229-0.035,0.43-0.176,0.542-0.379c0.111-0.204,0.123-0.448,0.03-0.662c-0.499-1.145-1.688-1.512-2.986-1.845
		C12.708,8.05,12.614,7.971,12.569,7.861z"/>
	<path fill="#231F20" d="M6.801,11.081c-1.297,0.333-2.482,0.699-2.98,1.843c-0.094,0.214-0.082,0.457,0.029,0.662
		c0.112,0.203,0.313,0.344,0.543,0.379C5.59,14.15,6.815,14.25,8.064,14.25s2.474-0.1,3.672-0.285
		c0.229-0.035,0.43-0.176,0.542-0.379c0.111-0.204,0.123-0.448,0.03-0.662c-0.499-1.145-1.688-1.512-2.986-1.845
		c-0.114-0.029-0.208-0.108-0.253-0.218c-0.046-0.107-0.039-0.23,0.02-0.332C9.606,9.626,9.939,8.666,9.939,8.25
		C9.939,7.007,9.308,6,8.064,6S6.189,7.007,6.189,8.25c0,0.591,0.328,1.416,0.841,2.275c0.06,0.102,0.069,0.226,0.024,0.335
		S6.915,11.052,6.801,11.081z"/>
</g>
</svg>
