<?xml version="1.0" encoding="utf-8"?>
<!-- Generator: Adobe Illustrator 16.0.0, SVG Export Plug-In . SVG Version: 6.00 Build 0)  -->
<!DOCTYPE svg PUBLIC "-//W3C//DTD SVG 1.1//EN" "http://www.w3.org/Graphics/SVG/1.1/DTD/svg11.dtd">
<svg version="1.1" id="Layer_1" xmlns="http://www.w3.org/2000/svg" xmlns:xlink="http://www.w3.org/1999/xlink" x="0px" y="0px"
	 width="16px" height="16px" viewBox="0 0 16 16" enable-background="new 0 0 16 16" xml:space="preserve">
<path fill="#231F20" d="M8.46,8.219C8.627,9,14.104,10.086,14.507,9.779c0.407-0.307,0.843-5.87,0.138-6.242
	c-0.209-0.11-0.818,0.483-1.613,1.213C11.962,3.099,10.113,2,8,2C4.687,2,2,4.687,2,8c0,3.312,2.687,6,6,6
	c1.42,0,2.725-0.493,3.752-1.316c0.168-0.136,0.271-0.336,0.282-0.552s-0.07-0.426-0.224-0.577
	c-0.278-0.273-0.709-0.312-1.031-0.093c-1.989,1.363-5.095,0.763-5.812-1.931C4.071,6.157,8.42,4.089,10.281,6.866
	C9.247,7.51,8.404,7.953,8.46,8.219z"/>
</svg>
