<?xml version="1.0" encoding="utf-8"?>
<!-- Generator: Adobe Illustrator 16.0.0, SVG Export Plug-In . SVG Version: 6.00 Build 0)  -->
<!DOCTYPE svg PUBLIC "-//W3C//DTD SVG 1.1//EN" "http://www.w3.org/Graphics/SVG/1.1/DTD/svg11.dtd">
<svg version="1.1" id="Layer_1" xmlns="http://www.w3.org/2000/svg" xmlns:xlink="http://www.w3.org/1999/xlink" x="0px" y="0px"
	 width="16px" height="16px" viewBox="0 0 16 16" enable-background="new 0 0 16 16" xml:space="preserve">
<g>
	<path fill="#231F20" d="M14,2H4C3.447,2,3,2.447,3,3s0.447,1,1,1h10c0.553,0,1-0.447,1-1S14.553,2,14,2z"/>
	<path fill="#231F20" d="M14,6H8C7.447,6,7,6.447,7,7s0.447,1,1,1h6c0.553,0,1-0.447,1-1S14.553,6,14,6z"/>
	<path fill="#231F20" d="M14,10h-4c-0.553,0-1,0.447-1,1s0.447,1,1,1h4c0.553,0,1-0.447,1-1S14.553,10,14,10z"/>
	<path fill="#231F20" d="M4,6C3.447,6,3,6.447,3,7v3.021c-1.038,0.045-1.896,0.162-1.986,0.354C0.764,10.911,3.563,14,3.939,14
		c0.377,0,3.296-3.089,3.046-3.624c-0.09-0.19-0.947-0.31-1.985-0.354V7C5,6.447,4.553,6,4,6z"/>
</g>
</svg>
