<?xml version="1.0" encoding="utf-8"?>
<!-- Generator: Adobe Illustrator 16.0.0, SVG Export Plug-In . SVG Version: 6.00 Build 0)  -->
<!DOCTYPE svg PUBLIC "-//W3C//DTD SVG 1.1//EN" "http://www.w3.org/Graphics/SVG/1.1/DTD/svg11.dtd">
<svg version="1.1" id="Layer_1" xmlns="http://www.w3.org/2000/svg" xmlns:xlink="http://www.w3.org/1999/xlink" x="0px" y="0px"
	 width="16px" height="16px" viewBox="0 0 16 16" enable-background="new 0 0 16 16" xml:space="preserve">
<path fill="#231F20" d="M6.315,9.773c-1.729,0.444-3.311,0.934-3.975,2.459c-0.124,0.283-0.109,0.608,0.04,0.882
	c0.149,0.271,0.417,0.459,0.724,0.506C4.701,13.867,6.335,14,8,14s3.299-0.133,4.896-0.38c0.307-0.047,0.572-0.234,0.723-0.506
	c0.15-0.272,0.165-0.599,0.041-0.882c-0.665-1.527-2.25-2.018-3.982-2.461C9.525,9.732,9.4,9.627,9.34,9.482
	C9.279,9.339,9.288,9.175,9.366,9.039C10.057,7.835,10.5,6.555,10.5,6c0-1.657-0.843-3-2.5-3S5.5,4.343,5.5,6
	c0,0.788,0.438,1.888,1.121,3.034c0.08,0.135,0.093,0.301,0.032,0.446C6.594,9.626,6.468,9.734,6.315,9.773z"/>
</svg>
