<?xml version="1.0" encoding="utf-8"?>
<!-- Generator: Adobe Illustrator 16.0.0, SVG Export Plug-In . SVG Version: 6.00 Build 0)  -->
<!DOCTYPE svg PUBLIC "-//W3C//DTD SVG 1.1//EN" "http://www.w3.org/Graphics/SVG/1.1/DTD/svg11.dtd">
<svg version="1.1" id="Layer_1" xmlns="http://www.w3.org/2000/svg" xmlns:xlink="http://www.w3.org/1999/xlink" x="0px" y="0px"
	 width="16px" height="16px" viewBox="0 0 16 16" enable-background="new 0 0 16 16" xml:space="preserve">
<path fill="#231F20" d="M8,1C6.136,1,4.625,2.511,4.625,4.375v3.187c-0.418,0-0.846,0-1.25,0c-0.441,0-0.831,0.29-0.958,0.713
	c-0.567,1.899-0.556,3.79,0.035,5.689c0.114,0.367,0.43,0.638,0.811,0.692c3.121,0.459,6.354,0.459,9.475,0
	c0.381-0.057,0.695-0.325,0.811-0.692c0.592-1.899,0.604-3.79,0.035-5.689c-0.127-0.424-0.516-0.713-0.958-0.713
	c-0.403,0-0.832,0-1.25,0V4.375C11.375,2.511,9.863,1,8,1z M6.625,4.375C6.625,3.617,7.242,3,8,3s1.375,0.617,1.375,1.375v3.187
	c-0.916,0-1.834,0-2.75,0V4.375z"/>
</svg>
