<?xml version="1.0" encoding="utf-8"?>
<!-- Generator: Adobe Illustrator 16.0.0, SVG Export Plug-In . SVG Version: 6.00 Build 0)  -->
<!DOCTYPE svg PUBLIC "-//W3C//DTD SVG 1.1//EN" "http://www.w3.org/Graphics/SVG/1.1/DTD/svg11.dtd">
<svg version="1.1" id="Layer_1" xmlns="http://www.w3.org/2000/svg" xmlns:xlink="http://www.w3.org/1999/xlink" x="0px" y="0px"
	 width="16px" height="16px" viewBox="0 0 16 16" enable-background="new 0 0 16 16" xml:space="preserve">
<path fill="#231F20" d="M8.028,2.591C7.754,2.362,7.372,2.313,7.049,2.465C6.34,2.797,6.391,3.831,6.85,4.214l2.58,2.415L2.95,6.952
	C2.418,6.979,2,7.418,2,7.951v0.098c0,0.533,0.418,0.972,0.95,0.999L9.43,9.371l-2.58,2.415c-0.459,0.383-0.51,1.417,0.199,1.749
	c0.323,0.151,0.705,0.103,0.979-0.126l5.641-4.701C13.879,8.533,14,8.273,14,8.001c0.001-0.273-0.12-0.533-0.33-0.708
	C11.842,5.77,8.028,2.591,8.028,2.591z"/>
</svg>
