<?xml version="1.0" encoding="utf-8"?>
<!-- Generator: Adobe Illustrator 16.0.0, SVG Export Plug-In . SVG Version: 6.00 Build 0)  -->
<!DOCTYPE svg PUBLIC "-//W3C//DTD SVG 1.1//EN" "http://www.w3.org/Graphics/SVG/1.1/DTD/svg11.dtd">
<svg version="1.1" id="Layer_1" xmlns="http://www.w3.org/2000/svg" xmlns:xlink="http://www.w3.org/1999/xlink" x="0px" y="0px"
	 width="16px" height="16px" viewBox="0 0 16 16" enable-background="new 0 0 16 16" xml:space="preserve">
<path fill="#231F20" d="M0,8c0,4.418,3.582,8,8,8s8-3.582,8-8s-3.582-8-8-8S0,3.582,0,8z M3,7.596c0-0.178,0.131-0.328,0.307-0.354
	C4.514,7.069,5.73,6.984,6.946,6.945C6.984,5.73,7.069,4.516,7.242,3.31c0.025-0.176,0.176-0.307,0.354-0.307h0.809
	c0.178,0,0.328,0.131,0.354,0.307v0.002c0.173,1.206,0.257,2.42,0.296,3.634c1.217,0.039,2.43,0.124,3.637,0.297
	c0.177,0.025,0.308,0.176,0.308,0.354v0.809c0,0.178-0.131,0.328-0.308,0.354h-0.002c-1.205,0.172-2.42,0.258-3.635,0.297
	c-0.037,1.215-0.123,2.43-0.296,3.639C8.732,12.869,8.582,13,8.404,13H7.596c-0.178,0-0.328-0.131-0.354-0.307
	c-0.173-1.207-0.258-2.424-0.297-3.641c-1.216-0.037-2.43-0.121-3.637-0.295C3.131,8.732,3,8.582,3,8.404V7.596z"/>
</svg>
