<?xml version="1.0" encoding="utf-8"?>
<!-- Generator: Adobe Illustrator 16.0.0, SVG Export Plug-In . SVG Version: 6.00 Build 0)  -->
<!DOCTYPE svg PUBLIC "-//W3C//DTD SVG 1.1//EN" "http://www.w3.org/Graphics/SVG/1.1/DTD/svg11.dtd">
<svg version="1.1" id="Layer_1" xmlns="http://www.w3.org/2000/svg" xmlns:xlink="http://www.w3.org/1999/xlink" x="0px" y="0px"
	 width="16px" height="16px" viewBox="0 0 16 16" enable-background="new 0 0 16 16" xml:space="preserve">
<g>
	<path fill="#231F20" d="M2.375,13.142c4.306,1.191,6.929,1.1,11.229-0.005c1.785-0.457,1.821-7.789,0.023-8.273
		c-0.953-0.257-1.818-0.447-2.646-0.589c0.083-0.801-0.099-1.822-0.883-2.005c-1.549-0.359-2.623-0.36-4.189,0
		C5.123,2.448,4.942,3.474,5.02,4.278c-0.825,0.143-1.688,0.33-2.64,0.584C0.588,5.339,0.607,12.654,2.375,13.142z M8,5.5
		c1.93,0,3.5,1.57,3.5,3.5S9.93,12.5,8,12.5S4.5,10.93,4.5,9S6.07,5.5,8,5.5z"/>
	<circle fill="#231F20" cx="8" cy="9" r="2.25"/>
</g>
</svg>
