<?xml version="1.0" encoding="utf-8"?>
<!-- Generator: Adobe Illustrator 16.0.0, SVG Export Plug-In . SVG Version: 6.00 Build 0)  -->
<!DOCTYPE svg PUBLIC "-//W3C//DTD SVG 1.1//EN" "http://www.w3.org/Graphics/SVG/1.1/DTD/svg11.dtd">
<svg version="1.1" id="Layer_1" xmlns="http://www.w3.org/2000/svg" xmlns:xlink="http://www.w3.org/1999/xlink" x="0px" y="0px"
	 width="16px" height="16px" viewBox="0 0 16 16" enable-background="new 0 0 16 16" xml:space="preserve">
<g>
	<path fill="#231F20" d="M13.325,4.626V4.579C13.325,1.76,11.203,0,8.045,0c-2.14,0-3.706,0.782-4.942,1.98
		C2.815,2.259,2.804,2.717,3.078,3.009l0.71,0.757C4.06,4.055,4.512,4.075,4.81,3.812c0.941-0.834,1.965-1.284,3.166-1.284
		c1.625,0,2.597,0.878,2.597,2.143v0.047c0,1.486-1.31,2.412-4.175,2.524L6.284,7.355l0.37,2.584
		c0.047,0.328,0.328,0.572,0.66,0.572h0.685c0.325,0,0.604-0.234,0.657-0.555l0.132-0.773C11.295,8.758,13.325,7.469,13.325,4.626z"
		/>
	<path fill="#231F20" d="M7.594,12.907c-0.835,0-1.513,0.678-1.513,1.513v0.066C6.081,15.322,6.759,16,7.594,16
		c0.835,0,1.514-0.678,1.514-1.514V14.42C9.105,13.585,8.429,12.907,7.594,12.907z"/>
</g>
</svg>
