<?xml version="1.0" encoding="utf-8"?>
<!-- Generator: Adobe Illustrator 16.0.0, SVG Export Plug-In . SVG Version: 6.00 Build 0)  -->
<!DOCTYPE svg PUBLIC "-//W3C//DTD SVG 1.1//EN" "http://www.w3.org/Graphics/SVG/1.1/DTD/svg11.dtd">
<svg version="1.1" id="Layer_1" xmlns="http://www.w3.org/2000/svg" xmlns:xlink="http://www.w3.org/1999/xlink" x="0px" y="0px"
	 width="16px" height="16px" viewBox="0 0 16 16" enable-background="new 0 0 16 16" xml:space="preserve">
<path fill="#231F20" d="M14.514,12.051c0.114-0.423-0.059-0.871-0.428-1.105l-2.878-1.834c-0.114-0.071-0.252-0.096-0.384-0.063
	c-0.131,0.03-0.244,0.113-0.312,0.229c-0.56,0.926-1.857,1.701-3.673-0.115C5.023,7.345,5.798,6.047,6.724,5.489
	C6.839,5.42,6.922,5.306,6.953,5.175c0.03-0.131,0.007-0.269-0.065-0.383L5.056,1.914C4.82,1.544,4.372,1.371,3.949,1.486
	c-2.506,0.683-4.372,4.655,0.769,9.796C9.857,16.422,13.831,14.557,14.514,12.051z"/>
</svg>
