<?xml version="1.0" encoding="utf-8"?>
<!-- Generator: Adobe Illustrator 16.0.0, SVG Export Plug-In . SVG Version: 6.00 Build 0)  -->
<!DOCTYPE svg PUBLIC "-//W3C//DTD SVG 1.1//EN" "http://www.w3.org/Graphics/SVG/1.1/DTD/svg11.dtd">
<svg version="1.1" id="Layer_1" xmlns="http://www.w3.org/2000/svg" xmlns:xlink="http://www.w3.org/1999/xlink" x="0px" y="0px"
	 width="16px" height="16px" viewBox="0 0 16 16" enable-background="new 0 0 16 16" xml:space="preserve">
<g>
	<path fill="#231F20" d="M1.391,8.938c0.093,1.299,0.238,2.896,0.441,3.709C2.084,13.656,2.92,14.454,4,14.714
		c1.589,0.384,6.413,0.382,8.033-0.01c1.074-0.261,1.908-1.052,2.162-2.054c0.205-0.799,0.348-2.358,0.438-3.646
		c0.019-0.26-0.071-0.516-0.25-0.706C14.206,8.108,13.957,8,13.695,8h-0.067c-0.524,0-0.959,0.405-0.997,0.93
		c-0.083,1.168-0.207,2.581-0.373,3.229c-0.07,0.281-0.345,0.518-0.693,0.603c-1.301,0.314-5.809,0.32-7.097,0.011
		c-0.352-0.086-0.624-0.323-0.695-0.609c-0.165-0.657-0.29-2.069-0.376-3.232C3.358,8.404,2.924,8,2.4,8H2.265
		C2.021,8,1.789,8.102,1.624,8.279C1.458,8.457,1.373,8.695,1.391,8.938z"/>
	<path fill="#231F20" d="M9.143,1.99C9.061,1.422,8.574,1,8,1S6.939,1.422,6.858,1.99L6.376,5.364
		c-1.294,0.074-2.334,0.235-2.454,0.49C3.567,6.613,7.464,11,7.999,11s4.433-4.387,4.079-5.146c-0.12-0.255-1.16-0.416-2.454-0.489
		L9.143,1.99z"/>
</g>
</svg>
