<?xml version="1.0" encoding="utf-8"?>
<!-- Generator: Adobe Illustrator 16.0.0, SVG Export Plug-In . SVG Version: 6.00 Build 0)  -->
<!DOCTYPE svg PUBLIC "-//W3C//DTD SVG 1.1//EN" "http://www.w3.org/Graphics/SVG/1.1/DTD/svg11.dtd">
<svg version="1.1" id="Layer_1" xmlns="http://www.w3.org/2000/svg" xmlns:xlink="http://www.w3.org/1999/xlink" x="0px" y="0px"
	 width="16px" height="16px" viewBox="0 0 16 16" enable-background="new 0 0 16 16" xml:space="preserve">
<g>
	<path fill="#231F20" d="M9.93,0.17C9.835,0.062,9.698,0,9.555,0H6.446c-0.144,0-0.28,0.062-0.375,0.17
		c-0.096,0.108-0.139,0.252-0.12,0.395l1.237,9.449c0.032,0.248,0.244,0.436,0.495,0.436h0.653c0.251,0,0.464-0.188,0.496-0.438
		l1.218-9.448C10.068,0.421,10.023,0.277,9.93,0.17z"/>
	<path fill="#231F20" d="M6.491,14.387v0.094c0,0.84,0.681,1.521,1.521,1.521c0.839,0,1.52-0.681,1.52-1.521v-0.094
		c0-0.839-0.681-1.52-1.52-1.52C7.172,12.867,6.491,13.548,6.491,14.387z"/>
</g>
</svg>
