<?xml version="1.0" encoding="utf-8"?>
<!-- Generator: Adobe Illustrator 16.0.0, SVG Export Plug-In . SVG Version: 6.00 Build 0)  -->
<!DOCTYPE svg PUBLIC "-//W3C//DTD SVG 1.1//EN" "http://www.w3.org/Graphics/SVG/1.1/DTD/svg11.dtd">
<svg version="1.1" id="Layer_1" xmlns="http://www.w3.org/2000/svg" xmlns:xlink="http://www.w3.org/1999/xlink" x="0px" y="0px"
	 width="16px" height="16px" viewBox="0 0 16 16" enable-background="new 0 0 16 16" xml:space="preserve">
<path fill="#231F20" d="M13.05,6.952L6.57,6.629L9.15,4.214c0.459-0.383,0.51-1.417-0.199-1.749
	C8.628,2.313,8.246,2.362,7.972,2.591L2.331,7.292C2.121,7.467,2,7.727,2,7.999C1.999,8.272,2.12,8.532,2.33,8.707
	c1.828,1.523,5.642,4.702,5.642,4.702c0.274,0.229,0.656,0.276,0.979,0.126c0.709-0.332,0.658-1.366,0.199-1.749L6.57,9.371
	l6.479-0.323C13.582,9.021,14,8.582,14,8.049V7.951C14,7.418,13.582,6.979,13.05,6.952z"/>
</svg>
