<?xml version="1.0" encoding="utf-8"?>
<!-- Generator: Adobe Illustrator 16.0.0, SVG Export Plug-In . SVG Version: 6.00 Build 0)  -->
<!DOCTYPE svg PUBLIC "-//W3C//DTD SVG 1.1//EN" "http://www.w3.org/Graphics/SVG/1.1/DTD/svg11.dtd">
<svg version="1.1" id="Layer_1" xmlns="http://www.w3.org/2000/svg" xmlns:xlink="http://www.w3.org/1999/xlink" x="0px" y="0px"
	 width="16px" height="16px" viewBox="0 0 16 16" enable-background="new 0 0 16 16" xml:space="preserve">
<path fill="#231F20" d="M15.562,6.945l-2.474-0.31c-0.187-0.023-0.345-0.149-0.407-0.327c-0.054-0.145-0.111-0.286-0.177-0.424
	c-0.08-0.171-0.058-0.372,0.06-0.521l1.528-1.966c0.154-0.199,0.138-0.482-0.042-0.661l-0.789-0.789
	c-0.179-0.179-0.462-0.196-0.66-0.042l-1.967,1.529c-0.148,0.116-0.35,0.139-0.521,0.059C9.979,3.429,9.836,3.371,9.691,3.318
	C9.514,3.255,9.389,3.097,9.363,2.91L9.055,0.437C9.023,0.188,8.811,0,8.559,0H7.441C7.189,0,6.977,0.188,6.945,0.438L6.636,2.91
	c-0.024,0.187-0.15,0.345-0.327,0.408c-0.145,0.053-0.286,0.11-0.424,0.176c-0.171,0.08-0.372,0.058-0.521-0.059L3.398,1.906
	C3.199,1.752,2.916,1.77,2.737,1.948L1.948,2.737C1.77,2.916,1.752,3.199,1.906,3.398l1.529,1.966
	c0.116,0.148,0.139,0.35,0.059,0.521C3.429,6.022,3.371,6.164,3.318,6.309C3.255,6.486,3.097,6.612,2.91,6.636l-2.473,0.31
	C0.188,6.977,0,7.189,0,7.441v1.118c0,0.252,0.188,0.465,0.438,0.496l2.473,0.31c0.187,0.022,0.345,0.149,0.408,0.327
	c0.053,0.145,0.11,0.285,0.176,0.424c0.08,0.171,0.058,0.371-0.059,0.521l-1.529,1.966c-0.154,0.199-0.137,0.482,0.042,0.662
	l0.789,0.788c0.179,0.179,0.462,0.196,0.661,0.042l1.966-1.529c0.148-0.115,0.35-0.139,0.521-0.059
	c0.138,0.064,0.279,0.123,0.424,0.176c0.178,0.063,0.304,0.223,0.327,0.408l0.31,2.473C6.977,15.812,7.189,16,7.441,16H8h0.559
	c0.252,0,0.465-0.188,0.496-0.438l0.311-2.474c0.023-0.187,0.148-0.345,0.326-0.407c0.146-0.054,0.287-0.111,0.425-0.177
	c0.171-0.08,0.372-0.058,0.521,0.06l1.967,1.528c0.198,0.154,0.481,0.138,0.66-0.042l0.789-0.789c0.18-0.179,0.196-0.462,0.043-0.66
	l-1.529-1.967c-0.116-0.148-0.14-0.35-0.06-0.521c0.065-0.138,0.123-0.279,0.177-0.425c0.062-0.178,0.221-0.303,0.407-0.326
	l2.474-0.311C15.812,9.023,16,8.811,16,8.559V7.441C16,7.189,15.812,6.977,15.562,6.945z M8,11c-1.656,0-3-1.344-3-3s1.344-3,3-3
	s3,1.344,3,3S9.656,11,8,11z"/>
</svg>
