<?xml version="1.0" encoding="utf-8"?>
<!-- Generator: Adobe Illustrator 16.0.0, SVG Export Plug-In . SVG Version: 6.00 Build 0)  -->
<!DOCTYPE svg PUBLIC "-//W3C//DTD SVG 1.1//EN" "http://www.w3.org/Graphics/SVG/1.1/DTD/svg11.dtd">
<svg version="1.1" id="Layer_1" xmlns="http://www.w3.org/2000/svg" xmlns:xlink="http://www.w3.org/1999/xlink" x="0px" y="0px"
	 width="16px" height="16px" viewBox="0 0 16 16" enable-background="new 0 0 16 16" xml:space="preserve">
<g>
	<path fill="#231F20" d="M14.938,8.313c-0.352,0.298-0.67,0.555-0.963,0.78c-0.033,1.029-0.104,1.955-0.22,2.438
		c-0.086,0.355-0.325,0.632-0.612,0.701c-1.357,0.332-3.293,0.522-5.308,0.522c-1.935,0-3.753-0.182-4.993-0.499
		c-0.281-0.07-0.518-0.345-0.603-0.693c-0.314-1.301-0.32-5.809-0.01-7.097c0.086-0.35,0.325-0.622,0.611-0.694
		c0.583-0.146,1.297-0.257,2.073-0.34c0.771-0.736,1.948-1.443,3.772-1.858c0.016-0.11,0.039-0.196,0.059-0.3
		C8.502,1.267,8.259,1.258,8.015,1.258c-2.063,0-4.132,0.191-5.661,0.574C1.344,2.084,0.546,2.92,0.286,4
		c-0.384,1.589-0.382,6.413,0.01,8.033c0.261,1.074,1.052,1.908,2.054,2.162c1.482,0.38,3.479,0.562,5.486,0.562
		c2.107,0,4.229-0.2,5.782-0.58C14.635,13.93,15.438,13.088,15.7,12c0.216-0.904,0.313-2.829,0.29-4.626
		C15.693,7.655,15.35,7.964,14.938,8.313z"/>
	<path fill="#231F20" d="M10.793,0.66c-0.252,0.119-0.412,1.136-0.486,2.408C5.617,3.643,4.614,6.122,5.405,7.935
		c0.521,1.19,1.649,1.75,2.199,1.961l0.054,0.01l0.106-0.045l0.033-0.159c-0.659-1.695-0.568-2.715,2.438-2.715h0.113
		c0.086,0.99,0.232,1.73,0.444,1.83l0.118,0.022c1.013,0,5.027-3.589,5.027-4.101c0-0.512-4.014-4.101-5.026-4.101L10.793,0.66z"/>
</g>
</svg>
