<?xml version="1.0" encoding="utf-8"?>
<!-- Generator: Adobe Illustrator 16.0.0, SVG Export Plug-In . SVG Version: 6.00 Build 0)  -->
<!DOCTYPE svg PUBLIC "-//W3C//DTD SVG 1.1//EN" "http://www.w3.org/Graphics/SVG/1.1/DTD/svg11.dtd">
<svg version="1.1" id="Layer_1" xmlns="http://www.w3.org/2000/svg" xmlns:xlink="http://www.w3.org/1999/xlink" x="0px" y="0px"
	 width="16px" height="16px" viewBox="0 0 16 16" enable-background="new 0 0 16 16" xml:space="preserve">
<g>
	<path fill="#231F20" d="M3.35,14.195c0.799,0.205,2.358,0.348,3.646,0.438c0.26,0.019,0.516-0.071,0.706-0.25
		C7.892,14.206,8,13.957,8,13.695v-0.067c0-0.524-0.405-0.959-0.929-0.997c-1.169-0.083-2.582-0.207-3.229-0.373
		c-0.281-0.07-0.518-0.345-0.603-0.693c-0.314-1.301-0.32-5.809-0.01-7.097C3.315,4.116,3.554,3.844,3.84,3.772
		c0.657-0.165,2.069-0.29,3.233-0.376C7.596,3.358,8,2.924,8,2.4V2.265c0-0.243-0.102-0.476-0.279-0.641
		C7.543,1.458,7.305,1.373,7.062,1.391C5.765,1.483,4.166,1.629,3.354,1.832C2.344,2.084,1.546,2.92,1.286,4
		c-0.384,1.589-0.382,6.413,0.01,8.033C1.557,13.107,2.348,13.941,3.35,14.195z"/>
	<path fill="#231F20" d="M9.854,3.922C9.6,4.042,9.438,5.082,9.365,6.376L5.99,6.858C5.422,6.939,5,7.426,5,8
		s0.422,1.061,0.99,1.143l3.373,0.481c0.074,1.294,0.234,2.334,0.49,2.454C10.613,12.434,15,8.536,15,8.001
		S10.613,3.568,9.854,3.922z"/>
</g>
</svg>
