<?xml version="1.0" encoding="utf-8"?>
<!-- Generator: Adobe Illustrator 16.0.0, SVG Export Plug-In . SVG Version: 6.00 Build 0)  -->
<!DOCTYPE svg PUBLIC "-//W3C//DTD SVG 1.1//EN" "http://www.w3.org/Graphics/SVG/1.1/DTD/svg11.dtd">
<svg version="1.1" id="Layer_1" xmlns="http://www.w3.org/2000/svg" xmlns:xlink="http://www.w3.org/1999/xlink" x="0px" y="0px"
	 width="16px" height="16px" viewBox="0 0 16 16" enable-background="new 0 0 16 16" xml:space="preserve">
<path fill="#231F20" d="M14.57,6.938c-1.684-0.24-3.375-0.385-5.068-0.44c-0.057-1.693-0.2-3.386-0.439-5.068
	C9.025,1.183,8.814,1,8.566,1H7.434c-0.249,0-0.46,0.183-0.495,0.43c-0.24,1.683-0.385,3.375-0.44,5.068
	c-1.693,0.056-3.386,0.2-5.068,0.44C1.183,6.974,1,7.185,1,7.434v1.132c0,0.25,0.183,0.461,0.43,0.496
	c1.683,0.239,3.375,0.385,5.068,0.439c0.056,1.693,0.2,3.387,0.44,5.068C6.974,14.816,7.185,15,7.434,15h1.132
	c0.25,0,0.461-0.184,0.496-0.43c0.239-1.684,0.385-3.375,0.439-5.068c1.693-0.057,3.387-0.2,5.068-0.439
	C14.816,9.025,15,8.814,15,8.566V7.434C15,7.185,14.816,6.974,14.57,6.938z"/>
</svg>
