<?xml version="1.0" encoding="utf-8"?>
<!-- Generator: Adobe Illustrator 16.0.0, SVG Export Plug-In . SVG Version: 6.00 Build 0)  -->
<!DOCTYPE svg PUBLIC "-//W3C//DTD SVG 1.1//EN" "http://www.w3.org/Graphics/SVG/1.1/DTD/svg11.dtd">
<svg version="1.1" id="Layer_1" xmlns="http://www.w3.org/2000/svg" xmlns:xlink="http://www.w3.org/1999/xlink" x="0px" y="0px"
	 width="16px" height="16px" viewBox="0 0 16 16" enable-background="new 0 0 16 16" xml:space="preserve">
<path fill="#231F20" d="M4.94,14c0.377,0,3.296-3.089,3.046-3.624c-0.078-0.166-0.735-0.274-1.583-0.332L6.049,2.95
	C6.021,2.418,5.583,2,5.05,2H4.952C4.419,2,3.98,2.418,3.953,2.95l-0.354,7.094C2.75,10.1,2.093,10.21,2.015,10.376
	C1.765,10.911,4.564,14,4.94,14z"/>
<path fill="#231F20" d="M11.061,2c-0.377,0-3.296,3.089-3.046,3.624C8.092,5.79,8.749,5.899,9.598,5.956l0.354,7.094
	C9.979,13.582,10.417,14,10.95,14h0.098c0.533,0,0.972-0.418,0.999-0.95L12.4,5.956c0.85-0.056,1.507-0.166,1.584-0.332
	C14.234,5.089,11.436,2,11.061,2z"/>
</svg>
